Atma-Light.ufo
<glyph name="exclam" format="1">
  <advance width="199"/>
  <unicode hex="0021"/>
  <outline>
    <contour>
      <point x="60" y="712"/>
      <point x="60" y="686"/>
      <point x="60" y="669" type="curve" smooth="yes"/>
      <point x="60" y="534"/>
      <point x="62" y="406"/>
      <point x="73" y="202" type="curve"/>
      <point x="80" y="200"/>
      <point x="87" y="199"/>
      <point x="97" y="199" type="curve" smooth="yes"/>
      <point x="105" y="199"/>
      <point x="110" y="200"/>
      <point x="114" y="201" type="curve"/>
      <point x="109" y="376"/>
      <point x="109" y="557"/>
      <point x="124" y="735" type="curve"/>
      <point x="116" y="736"/>
      <point x="110" y="737"/>
      <point x="99" y="737" type="curve" smooth="yes"/>
      <point x="85" y="737"/>
      <point x="75" y="734"/>
      <point x="61" y="728" type="curve"/>
    </contour>
    <contour>
      <point x="71" y="44"/>
      <point x="71" y="23"/>
      <point x="72" y="1" type="curve"/>
      <point x="81" y="0"/>
      <point x="89" y="-1"/>
      <point x="98" y="-1" type="curve" smooth="yes"/>
      <point x="108" y="-1"/>
      <point x="118" y="0"/>
      <point x="129" y="2" type="curve"/>
      <point x="128" y="26"/>
      <point x="128" y="41"/>
      <point x="126" y="64" type="curve"/>
      <point x="108" y="66"/>
      <point x="93" y="66"/>
      <point x="72" y="64" type="curve"/>
    </contour>
  </outline>
</glyph>
<glyph name="numbersign" format="1">
  <advance width="600"/>
  <unicode hex="0023"/>
  <outline>
    <contour>
      <point x="94" y="-35" type="curve"/>
      <point x="202" y="214"/>
      <point x="252" y="396"/>
      <point x="270" y="603" type="curve"/>
      <point x="252" y="612"/>
      <point x="240" y="617"/>
      <point x="226" y="620" type="curve"/>
      <point x="207" y="411"/>
      <point x="150" y="194"/>
      <point x="49" y="-19" type="curve"/>
      <point x="61" y="-26"/>
      <point x="73" y="-30"/>
    </contour>
    <contour>
      <point x="10" y="214" type="curve"/>
      <point x="232" y="165"/>
      <point x="395" y="162"/>
      <point x="570" y="181" type="curve"/>
      <point x="575" y="198"/>
      <point x="577" y="210"/>
      <point x="578" y="223" type="curve"/>
      <point x="401" y="204"/>
      <point x="207" y="209"/>
      <point x="16" y="257" type="curve"/>
      <point x="13" y="245"/>
      <point x="10" y="233"/>
    </contour>
    <contour>
      <point x="22" y="410" type="curve"/>
      <point x="244" y="362"/>
      <point x="407" y="359"/>
      <point x="582" y="378" type="curve"/>
      <point x="586" y="395"/>
      <point x="589" y="407"/>
      <point x="590" y="420" type="curve"/>
      <point x="413" y="401"/>
      <point x="219" y="405"/>
      <point x="28" y="453" type="curve"/>
      <point x="24" y="442"/>
      <point x="22" y="430"/>
    </contour>
    <contour>
      <point x="323" y="-39" type="curve"/>
      <point x="431" y="210"/>
      <point x="477" y="392"/>
      <point x="495" y="599" type="curve"/>
      <point x="477" y="608"/>
      <point x="466" y="612"/>
      <point x="451" y="615" type="curve"/>
      <point x="432" y="406"/>
      <point x="379" y="189"/>
      <point x="278" y="-24" type="curve"/>
      <point x="290" y="-31"/>
      <point x="301" y="-34"/>
    </contour>
  </outline>
</glyph>
<glyph name="dollar" format="1">
  <advance width="329"/>
  <unicode hex="0024"/>
  <outline>
    <contour>
      <point x="259" y="179" type="curve" smooth="yes"/>
      <point x="259" y="120"/>
      <point x="228" y="89"/>
      <point x="178" y="89" type="curve" smooth="yes"/>
      <point x="114" y="89"/>
      <point x="80" y="144"/>
      <point x="86" y="241" type="curve"/>
      <point x="68" y="242"/>
      <point x="49" y="239"/>
      <point x="31" y="234" type="curve"/>
      <point x="31" y="116"/>
      <point x="83" y="45"/>
      <point x="173" y="45" type="curve" smooth="yes"/>
      <point x="257" y="45"/>
      <point x="314" y="100"/>
      <point x="314" y="185" type="curve" smooth="yes"/>
      <point x="314" y="272"/>
      <point x="253" y="324"/>
      <point x="195" y="375" type="curve" smooth="yes"/>
      <point x="139" y="423"/>
      <point x="85" y="471"/>
      <point x="85" y="548" type="curve" smooth="yes"/>
      <point x="85" y="607"/>
      <point x="117" y="638"/>
      <point x="165" y="638" type="curve"/>
      <point x="217" y="638"/>
      <point x="243" y="601"/>
      <point x="254" y="521" type="curve"/>
      <point x="272" y="522"/>
      <point x="288" y="526"/>
      <point x="302" y="533" type="curve"/>
      <point x="288" y="631"/>
      <point x="251" y="682"/>
      <point x="167" y="682" type="curve" smooth="yes"/>
      <point x="77" y="682"/>
      <point x="30" y="625"/>
      <point x="30" y="542" type="curve" smooth="yes"/>
      <point x="30" y="451"/>
      <point x="91" y="397"/>
      <point x="150" y="346" type="curve" smooth="yes"/>
      <point x="206" y="297"/>
      <point x="259" y="251"/>
    </contour>
    <contour>
      <point x="190" y="654" type="line"/>
      <point x="185" y="696"/>
      <point x="184" y="737"/>
      <point x="186" y="773" type="curve"/>
      <point x="163" y="775"/>
      <point x="151" y="773"/>
      <point x="138" y="767" type="curve"/>
      <point x="136" y="736"/>
      <point x="143" y="697"/>
      <point x="150" y="654" type="curve"/>
    </contour>
    <contour>
      <point x="141" y="-63" type="curve"/>
      <point x="164" y="-66"/>
      <point x="174" y="-65"/>
      <point x="188" y="-60" type="curve"/>
      <point x="192" y="-26"/>
      <point x="191" y="13"/>
      <point x="188" y="53" type="curve"/>
      <point x="148" y="56" type="line"/>
      <point x="150" y="9"/>
      <point x="147" y="-22"/>
    </contour>
  </outline>
</glyph>
<glyph name="percent" format="1">
  <advance width="758"/>
  <unicode hex="0025"/>
  <outline>
    <contour>
      <point x="204" y="751" type="curve"/>
      <point x="105" y="751"/>
      <point x="40" y="670"/>
      <point x="40" y="523" type="curve"/>
      <point x="40" y="409"/>
      <point x="90" y="316"/>
      <point x="177" y="316" type="curve" smooth="yes"/>
      <point x="276" y="316"/>
      <point x="328" y="414"/>
      <point x="328" y="573" type="curve"/>
      <point x="328" y="677"/>
      <point x="285" y="751"/>
    </contour>
    <contour>
      <point x="192" y="714" type="curve" smooth="yes"/>
      <point x="251" y="714"/>
      <point x="275" y="657"/>
      <point x="275" y="546" type="curve" smooth="yes"/>
      <point x="275" y="430"/>
      <point x="241" y="353"/>
      <point x="185" y="353" type="curve" smooth="yes"/>
      <point x="128" y="353"/>
      <point x="93" y="428"/>
      <point x="93" y="530" type="curve" smooth="yes"/>
      <point x="93" y="646"/>
      <point x="136" y="714"/>
    </contour>
    <contour>
      <point x="594" y="425" type="curve"/>
      <point x="495" y="425"/>
      <point x="430" y="344"/>
      <point x="430" y="197" type="curve"/>
      <point x="430" y="83"/>
      <point x="480" y="-10"/>
      <point x="567" y="-10" type="curve" smooth="yes"/>
      <point x="666" y="-10"/>
      <point x="718" y="88"/>
      <point x="718" y="247" type="curve"/>
      <point x="718" y="351"/>
      <point x="675" y="425"/>
    </contour>
    <contour>
      <point x="582" y="388" type="curve" smooth="yes"/>
      <point x="641" y="388"/>
      <point x="665" y="331"/>
      <point x="665" y="220" type="curve" smooth="yes"/>
      <point x="665" y="104"/>
      <point x="631" y="27"/>
      <point x="575" y="27" type="curve" smooth="yes"/>
      <point x="518" y="27"/>
      <point x="483" y="102"/>
      <point x="483" y="204" type="curve" smooth="yes"/>
      <point x="483" y="320"/>
      <point x="526" y="388"/>
    </contour>
    <component base="fraction" xOffset="197" yOffset="-3"/>
  </outline>
</glyph>
<glyph name="ampersand" format="1">
  <advance width="744"/>
  <unicode hex="0026"/>
  <outline>
    <contour>
      <point x="685" y="2" type="line"/>
      <point x="398" y="122"/>
      <point x="275" y="313"/>
      <point x="275" y="528" type="curve" smooth="yes"/>
      <point x="275" y="631"/>
      <point x="314" y="679"/>
      <point x="358" y="679" type="curve" smooth="yes"/>
      <point x="404" y="679"/>
      <point x="427" y="640"/>
      <point x="427" y="581" type="curve" smooth="yes"/>
      <point x="427" y="504"/>
      <point x="380" y="446"/>
      <point x="273" y="425" type="curve"/>
      <point x="274" y="389" type="line"/>
      <point x="410" y="418"/>
      <point x="482" y="486"/>
      <point x="482" y="586" type="curve" smooth="yes"/>
      <point x="482" y="668"/>
      <point x="432" y="721"/>
      <point x="364" y="721" type="curve" smooth="yes"/>
      <point x="273" y="721"/>
      <point x="220" y="645"/>
      <point x="220" y="529" type="curve" smooth="yes"/>
      <point x="220" y="261"/>
      <point x="404" y="63"/>
      <point x="645" y="-36" type="curve"/>
    </contour>
    <contour>
      <point x="579" y="388"/>
      <point x="560" y="386"/>
      <point x="547" y="383" type="curve"/>
      <point x="555" y="347"/>
      <point x="558" y="319"/>
      <point x="558" y="279" type="curve" smooth="yes"/>
      <point x="558" y="118"/>
      <point x="450" y="-10"/>
      <point x="309" y="-10" type="curve" smooth="yes"/>
      <point x="182" y="-10"/>
      <point x="95" y="66"/>
      <point x="95" y="189" type="curve" smooth="yes"/>
      <point x="95" y="306"/>
      <point x="184" y="377"/>
      <point x="291" y="385" type="curve"/>
      <point x="286" y="424" type="line"/>
      <point x="114" y="398"/>
      <point x="40" y="301"/>
      <point x="40" y="185" type="curve" smooth="yes"/>
      <point x="40" y="55"/>
      <point x="134" y="-54"/>
      <point x="310" y="-54" type="curve" smooth="yes"/>
      <point x="457.983277592" y="-54.0"/>
      <point x="611.0" y="62.0"/>
      <point x="611" y="290" type="curve" smooth="yes"/>
      <point x="611" y="320"/>
      <point x="609" y="349"/>
      <point x="604" y="385" type="curve"/>
    </contour>
  </outline>
</glyph>
<glyph name="quotesingle" format="1">
  <advance width="119.685960588"/>
  <unicode hex="0027"/>
  <outline>
    <contour>
      <point x="79" y="736" type="curve"/>
      <point x="71" y="737"/>
      <point x="69" y="738"/>
      <point x="61" y="738" type="curve" smooth="yes"/>
      <point x="51" y="738"/>
      <point x="35" y="737"/>
      <point x="25" y="735" type="curve"/>
      <point x="31" y="656"/>
      <point x="32" y="594"/>
      <point x="31" y="499" type="curve"/>
      <point x="43" y="498"/>
      <point x="58" y="498"/>
      <point x="68" y="501" type="curve"/>
      <point x="79" y="618"/>
      <point x="81" y="675"/>
    </contour>
  </outline>
</glyph>
<glyph name="parenleft" format="1">
  <advance width="331"/>
  <unicode hex="0028"/>
  <outline>
    <contour>
      <point x="80" y="315" type="curve" smooth="yes"/>
      <point x="80.0" y="480.0"/>
      <point x="140.698338608" y="650.651442208"/>
      <point x="321" y="761" type="curve"/>
      <point x="307.672662189" y="775.279290511"/>
      <point x="295.485888447" y="788.757055777"/>
      <point x="279" y="797" type="curve"/>
      <point x="109" y="684"/>
      <point x="25" y="515"/>
      <point x="25" y="309" type="curve" smooth="yes"/>
      <point x="25" y="105"/>
      <point x="117" y="-50"/>
      <point x="275" y="-160" type="curve"/>
      <point x="291.485888447" y="-151.757055777"/>
      <point x="303.672662189" y="-138.279290511"/>
      <point x="317" y="-124" type="curve"/>
      <point x="163.317646996" y="-28.4411010164"/>
      <point x="80.0" y="122.0"/>
    </contour>
  </outline>
</glyph>
<glyph name="parenright" format="1">
  <advance width="336"/>
  <unicode hex="0029"/>
  <outline>
    <contour>
      <point x="256" y="322" type="curve" smooth="yes"/>
      <point x="256" y="167"/>
      <point x="193" y="-12"/>
      <point x="10" y="-124" type="curve"/>
      <point x="23" y="-138"/>
      <point x="36" y="-152"/>
      <point x="52" y="-160" type="curve"/>
      <point x="224" y="-45"/>
      <point x="311" y="132"/>
      <point x="311" y="328" type="curve" smooth="yes"/>
      <point x="311" y="523"/>
      <point x="228" y="692"/>
      <point x="76" y="798" type="curve"/>
      <point x="60" y="790"/>
      <point x="47" y="776"/>
      <point x="34" y="762" type="curve"/>
      <point x="181" y="670"/>
      <point x="256" y="506"/>
    </contour>
  </outline>
</glyph>
<glyph name="asterisk" format="1">
  <advance width="427"/>
  <unicode hex="002A"/>
  <outline>
    <contour>
      <point x="214" y="492" type="curve"/>
      <point x="307" y="535"/>
      <point x="351" y="556"/>
      <point x="397" y="585" type="curve"/>
      <point x="394" y="591"/>
      <point x="394" y="593"/>
      <point x="390" y="600" type="curve" smooth="yes"/>
      <point x="386" y="610"/>
      <point x="375" y="623"/>
      <point x="369" y="632" type="curve"/>
      <point x="312" y="591"/>
      <point x="265" y="563"/>
      <point x="195" y="523" type="curve"/>
      <point x="200" y="512"/>
      <point x="206" y="500"/>
    </contour>
    <contour>
      <point x="242" y="707" type="curve"/>
      <point x="234" y="708"/>
      <point x="232" y="709"/>
      <point x="224" y="709" type="curve" smooth="yes"/>
      <point x="214" y="709"/>
      <point x="198" y="708"/>
      <point x="188" y="706" type="curve"/>
      <point x="193" y="635"/>
      <point x="195" y="580"/>
      <point x="194" y="495" type="curve"/>
      <point x="206" y="494"/>
      <point x="221" y="494"/>
      <point x="231" y="497" type="curve"/>
      <point x="241" y="602"/>
      <point x="244" y="652"/>
    </contour>
    <contour>
      <point x="203" y="314" type="curve" smooth="yes"/>
      <point x="213" y="314"/>
      <point x="229" y="315"/>
      <point x="239" y="317" type="curve"/>
      <point x="234" y="386"/>
      <point x="232" y="440"/>
      <point x="233" y="523" type="curve"/>
      <point x="221" y="524"/>
      <point x="206" y="524"/>
      <point x="196" y="521" type="curve"/>
      <point x="186" y="419"/>
      <point x="183" y="369"/>
      <point x="185" y="316" type="curve"/>
      <point x="193" y="315"/>
      <point x="195" y="314"/>
    </contour>
    <contour>
      <point x="58" y="634" type="curve"/>
      <point x="54" y="628"/>
      <point x="52" y="627"/>
      <point x="48" y="620" type="curve" smooth="yes"/>
      <point x="42" y="611"/>
      <point x="36" y="596"/>
      <point x="32" y="586" type="curve"/>
      <point x="96" y="555"/>
      <point x="145" y="530"/>
      <point x="218" y="486" type="curve"/>
      <point x="225" y="497"/>
      <point x="233" y="509"/>
      <point x="235" y="520" type="curve"/>
      <point x="149" y="581"/>
      <point x="108" y="608"/>
    </contour>
    <contour>
      <point x="214" y="534" type="curve"/>
      <point x="207" y="524"/>
      <point x="199" y="512"/>
      <point x="197" y="501" type="curve"/>
      <point x="280" y="442"/>
      <point x="321" y="414"/>
      <point x="369" y="389" type="curve"/>
      <point x="373" y="395"/>
      <point x="375" y="396"/>
      <point x="379" y="403" type="curve" smooth="yes"/>
      <point x="385" y="412"/>
      <point x="391" y="427"/>
      <point x="395" y="437" type="curve"/>
      <point x="332" y="466"/>
      <point x="284" y="492"/>
    </contour>
    <contour>
      <point x="30" y="438" type="curve"/>
      <point x="33" y="432"/>
      <point x="33" y="430"/>
      <point x="37" y="423" type="curve" smooth="yes"/>
      <point x="41" y="413"/>
      <point x="52" y="400"/>
      <point x="58" y="391" type="curve"/>
      <point x="117" y="431"/>
      <point x="163" y="461"/>
      <point x="238" y="503" type="curve"/>
      <point x="232" y="515"/>
      <point x="226" y="527"/>
      <point x="217" y="535" type="curve"/>
      <point x="121" y="490"/>
      <point x="77" y="468"/>
    </contour>
  </outline>
</glyph>
<glyph name="plus" format="1">
  <advance width="341"/>
  <unicode hex="002B"/>
  <outline>
    <contour>
      <point x="32" y="366" type="curve"/>
      <point x="29" y="353"/>
      <point x="27" y="341"/>
      <point x="27" y="324" type="curve"/>
      <point x="122" y="313"/>
      <point x="219" y="313"/>
      <point x="310" y="324" type="curve"/>
      <point x="313" y="337"/>
      <point x="314" y="351"/>
      <point x="314" y="364" type="curve"/>
      <point x="190" y="354"/>
      <point x="115" y="356"/>
    </contour>
    <contour>
      <point x="142" y="195" type="curve"/>
      <point x="155" y="192"/>
      <point x="169" y="191"/>
      <point x="184" y="194" type="curve"/>
      <point x="195" y="289"/>
      <point x="195" y="386"/>
      <point x="184" y="477" type="curve"/>
      <point x="171" y="480"/>
      <point x="157" y="480"/>
      <point x="144" y="477" type="curve"/>
      <point x="154" y="353"/>
      <point x="152" y="278"/>
    </contour>
  </outline>
</glyph>
<glyph name="comma" format="1">
  <advance width="114"/>
  <unicode hex="002C"/>
  <outline>
    <contour>
      <point x="92" y="68" type="curve"/>
      <point x="73" y="70"/>
      <point x="55" y="71"/>
      <point x="37" y="70" type="curve"/>
      <point x="33" y="-23"/>
      <point x="22" y="-102"/>
      <point x="-5" y="-210" type="curve"/>
      <point x="9" y="-215"/>
      <point x="21" y="-218"/>
      <point x="33" y="-220" type="curve"/>
      <point x="74" y="-105"/>
      <point x="90" y="-22"/>
    </contour>
  </outline>
</glyph>
<glyph name="hyphen" format="1">
  <advance width="264"/>
  <unicode hex="002D"/>
  <outline>
    <contour>
      <point x="30" y="301"/>
      <point x="30" y="287"/>
      <point x="30" y="266" type="curve"/>
      <point x="75" y="255"/>
      <point x="143" y="252"/>
      <point x="231" y="260" type="curve"/>
      <point x="234" y="282"/>
      <point x="234" y="299"/>
      <point x="234" y="313" type="curve"/>
      <point x="213" y="310"/>
      <point x="187" y="309"/>
      <point x="159" y="309" type="curve" smooth="yes"/>
      <point x="115" y="309"/>
      <point x="67" y="313"/>
      <point x="34" y="319" type="curve"/>
    </contour>
  </outline>
</glyph>
<glyph name="period" format="1">
  <advance width="149"/>
  <unicode hex="002E"/>
  <outline>
    <contour>
      <point x="112" y="25"/>
      <point x="113" y="45"/>
      <point x="114" y="69" type="curve"/>
      <point x="81" y="74"/>
      <point x="54" y="70"/>
      <point x="35" y="66" type="curve"/>
      <point x="35" y="42"/>
      <point x="37" y="27"/>
      <point x="38" y="1" type="curve"/>
      <point x="61" y="-2"/>
      <point x="81" y="-2"/>
      <point x="108" y="1" type="curve"/>
    </contour>
  </outline>
</glyph>
<glyph name="slash" format="1">
  <advance width="465"/>
  <unicode hex="002F"/>
  <outline>
    <contour>
      <point x="161" y="79"/>
      <point x="319" y="406"/>
      <point x="450" y="720" type="curve"/>
      <point x="434" y="731"/>
      <point x="423" y="738"/>
      <point x="409" y="744" type="curve"/>
      <point x="257" y="393"/>
      <point x="106" y="60"/>
      <point x="-30" y="-174" type="curve"/>
      <point x="-17" y="-184"/>
      <point x="-3" y="-192"/>
      <point x="19" y="-199" type="curve"/>
    </contour>
  </outline>
</glyph>
<glyph name="zero" format="1">
  <advance width="490"/>
  <unicode hex="0030"/>
  <outline>
    <contour>
      <point x="272" y="673" type="curve"/>
      <point x="132" y="673"/>
      <point x="40" y="551"/>
      <point x="40" y="313" type="curve"/>
      <point x="40" y="127"/>
      <point x="117" y="-20"/>
      <point x="241" y="-20" type="curve" smooth="yes"/>
      <point x="370" y="-20"/>
      <point x="450" y="112"/>
      <point x="450" y="387" type="curve"/>
      <point x="450" y="550"/>
      <point x="390" y="673"/>
    </contour>
    <contour>
      <point x="258" y="629" type="curve" smooth="yes"/>
      <point x="356" y="629"/>
      <point x="395" y="531"/>
      <point x="395" y="347" type="curve" smooth="yes"/>
      <point x="395" y="143"/>
      <point x="335" y="24"/>
      <point x="247" y="24" type="curve" smooth="yes"/>
      <point x="155" y="24"/>
      <point x="95" y="144"/>
      <point x="95" y="321" type="curve" smooth="yes"/>
      <point x="95" y="517"/>
      <point x="166" y="629"/>
    </contour>
  </outline>
</glyph>
<glyph name="one" format="1">
  <advance width="313"/>
  <unicode hex="0031"/>
  <outline>
    <contour>
      <point x="204" y="-38" type="curve"/>
      <point x="223" y="188"/>
      <point x="267" y="514"/>
      <point x="328" y="670" type="curve"/>
      <point x="298" y="670" type="line"/>
      <point x="274" y="670" type="line"/>
      <point x="230" y="529"/>
      <point x="200" y="355"/>
      <point x="182" y="205" type="curve" smooth="yes"/>
      <point x="169" y="105"/>
      <point x="164" y="46"/>
      <point x="159" y="-44" type="curve"/>
      <point x="168" y="-44"/>
      <point x="177" y="-44"/>
      <point x="185" y="-43" type="curve" smooth="yes"/>
      <point x="192" y="-42"/>
      <point x="199" y="-40"/>
    </contour>
    <contour>
      <point x="296" y="693" type="curve"/>
      <point x="209" y="605"/>
      <point x="110" y="538"/>
      <point x="25" y="488" type="curve"/>
      <point x="34" y="470"/>
      <point x="41" y="462"/>
      <point x="55" y="449" type="curve"/>
      <point x="185" y="531"/>
      <point x="262" y="595"/>
      <point x="328" y="670" type="curve"/>
      <point x="317" y="680"/>
      <point x="309" y="685"/>
    </contour>
  </outline>
</glyph>
<glyph name="two" format="1">
  <advance width="368"/>
  <unicode hex="0032"/>
  <outline>
    <contour>
      <point x="350" y="473" type="curve" smooth="yes"/>
      <point x="350" y="575"/>
      <point x="291" y="641"/>
      <point x="205" y="641" type="curve" smooth="yes"/>
      <point x="133" y="641"/>
      <point x="62" y="586"/>
      <point x="35" y="452" type="curve"/>
      <point x="53" y="444"/>
      <point x="71" y="439"/>
      <point x="87" y="439" type="curve"/>
      <point x="105" y="541"/>
      <point x="150" y="597"/>
      <point x="204" y="597" type="curve" smooth="yes"/>
      <point x="263" y="597"/>
      <point x="295" y="546"/>
      <point x="295" y="480" type="curve" smooth="yes"/>
      <point x="295" y="342"/>
      <point x="228" y="228"/>
      <point x="14" y="64" type="curve"/>
      <point x="9" y="50"/>
      <point x="6" y="35"/>
      <point x="5" y="21" type="curve"/>
      <point x="94" y="-3"/>
      <point x="194" y="-18"/>
      <point x="343" y="-31" type="curve"/>
      <point x="351" y="-14"/>
      <point x="356" y="2"/>
      <point x="358" y="21" type="curve"/>
      <point x="217" y="23"/>
      <point x="137" y="33"/>
      <point x="43" y="52" type="curve"/>
      <point x="37" y="28" type="line"/>
      <point x="245" y="181"/>
      <point x="350" y="337"/>
    </contour>
  </outline>
</glyph>
<glyph name="four" format="1">
  <advance width="478"/>
  <unicode hex="0034"/>
  <outline>
    <contour>
      <point x="471" y="134" type="curve"/>
      <point x="477" y="149"/>
      <point x="481" y="165"/>
      <point x="483" y="182" type="curve"/>
      <point x="328" y="186"/>
      <point x="206" y="199"/>
      <point x="60" y="234" type="curve"/>
      <point x="55" y="192" type="line"/>
      <point x="177" y="363"/>
      <point x="265" y="546"/>
      <point x="332" y="733" type="curve"/>
      <point x="313" y="742"/>
      <point x="294" y="749"/>
      <point x="275" y="752" type="curve"/>
      <point x="210" y="541"/>
      <point x="149" y="409"/>
      <point x="20" y="224" type="curve"/>
      <point x="24" y="211"/>
      <point x="29" y="199"/>
      <point x="37" y="186" type="curve"/>
      <point x="208" y="154"/>
      <point x="314" y="141"/>
    </contour>
    <contour>
      <point x="303" y="-42" type="curve"/>
      <point x="302" y="101"/>
      <point x="310" y="287"/>
      <point x="345" y="409" type="curve"/>
      <point x="338" y="411"/>
      <point x="326" y="412"/>
      <point x="315" y="411" type="curve" smooth="yes"/>
      <point x="302" y="410"/>
      <point x="293" y="407"/>
      <point x="287" y="404" type="curve"/>
      <point x="267" y="304"/>
      <point x="258" y="196"/>
      <point x="258" y="69" type="curve" smooth="yes"/>
      <point x="258" y="35"/>
      <point x="259" y="1"/>
      <point x="260" y="-35" type="curve"/>
      <point x="265" y="-37"/>
      <point x="271" y="-39"/>
      <point x="279" y="-40" type="curve" smooth="yes"/>
      <point x="286" y="-41"/>
      <point x="294" y="-42"/>
    </contour>
  </outline>
</glyph>
<glyph name="five" format="1">
  <advance width="374"/>
  <unicode hex="0035"/>
  <outline>
    <contour>
      <point x="183" y="-37" type="curve" smooth="yes"/>
      <point x="279" y="-37"/>
      <point x="348" y="50"/>
      <point x="348" y="183" type="curve" smooth="yes"/>
      <point x="348" y="321"/>
      <point x="279" y="398"/>
      <point x="174" y="398" type="curve" smooth="yes"/>
      <point x="148" y="398"/>
      <point x="121" y="393"/>
      <point x="100" y="383" type="curve"/>
      <point x="96" y="456"/>
      <point x="104" y="546"/>
      <point x="122" y="639" type="curve"/>
      <point x="93" y="610" type="line"/>
      <point x="184" y="589"/>
      <point x="250" y="578"/>
      <point x="368" y="566" type="curve"/>
      <point x="376" y="583"/>
      <point x="382" y="602"/>
      <point x="384" y="621" type="curve"/>
      <point x="258" y="624"/>
      <point x="187" y="635"/>
      <point x="75" y="660" type="curve"/>
      <point x="64" y="609"/>
      <point x="54" y="524"/>
      <point x="54" y="438" type="curve" smooth="yes"/>
      <point x="54" y="412"/>
      <point x="55" y="391"/>
      <point x="57" y="365" type="curve"/>
      <point x="83" y="338" type="line"/>
      <point x="106" y="350"/>
      <point x="131" y="355"/>
      <point x="155" y="355" type="curve" smooth="yes"/>
      <point x="250" y="355"/>
      <point x="293" y="277"/>
      <point x="293" y="178" type="curve" smooth="yes"/>
      <point x="293" y="66"/>
      <point x="253" y="8"/>
      <point x="182" y="8" type="curve" smooth="yes"/>
      <point x="115" y="8"/>
      <point x="59" y="54"/>
      <point x="59" y="193" type="curve"/>
      <point x="38" y="195"/>
      <point x="18" y="198"/>
      <point x="5" y="198" type="curve"/>
      <point x="13" y="59"/>
      <point x="71" y="-37"/>
    </contour>
  </outline>
</glyph>
<glyph name="seven" format="1">
  <advance width="350"/>
  <unicode hex="0037"/>
  <outline>
    <contour>
      <point x="57" y="-7" type="curve"/>
      <point x="150" y="272"/>
      <point x="224" y="407"/>
      <point x="365" y="618" type="curve"/>
      <point x="360" y="630"/>
      <point x="353" y="641"/>
      <point x="344" y="653" type="curve"/>
      <point x="204" y="646"/>
      <point x="127" y="653"/>
      <point x="-8" y="675" type="curve"/>
      <point x="-12" y="659"/>
      <point x="-15" y="642"/>
      <point x="-15" y="625" type="curve"/>
      <point x="114" y="606"/>
      <point x="193" y="605"/>
      <point x="333" y="609" type="curve"/>
      <point x="330" y="645" type="line"/>
      <point x="202" y="461"/>
      <point x="101" y="268"/>
      <point x="2" y="2" type="curve"/>
      <point x="22" y="-5"/>
      <point x="38" y="-7"/>
    </contour>
  </outline>
</glyph>
<glyph name="nine" format="1">
  <advance width="465"/>
  <unicode hex="0039"/>
  <outline>
    <contour>
      <point x="191" y="13" type="curve"/>
      <point x="293" y="13"/>
      <point x="375" y="171"/>
      <point x="375" y="373" type="curve" smooth="yes"/>
      <point x="375" y="560"/>
      <point x="320" y="667"/>
      <point x="231" y="667" type="curve" smooth="yes"/>
      <point x="160" y="667"/>
      <point x="103" y="590"/>
      <point x="103" y="480" type="curve" smooth="yes"/>
      <point x="103" y="366"/>
      <point x="154" y="311"/>
      <point x="225" y="311" type="curve" smooth="yes"/>
      <point x="297" y="311"/>
      <point x="356" y="382"/>
      <point x="373" y="492" type="curve"/>
      <point x="405" y="435" type="line"/>
      <point x="371" y="329"/>
      <point x="300" y="267"/>
      <point x="215" y="267" type="curve" smooth="yes"/>
      <point x="120" y="267"/>
      <point x="48" y="354"/>
      <point x="48" y="466" type="curve" smooth="yes"/>
      <point x="48" y="612"/>
      <point x="130" y="711"/>
      <point x="233" y="711" type="curve" smooth="yes"/>
      <point x="351" y="711"/>
      <point x="430" y="595"/>
      <point x="430" y="382" type="curve" smooth="yes"/>
      <point x="430" y="155"/>
      <point x="328" y="-31"/>
      <point x="183" y="-31" type="curve" smooth="yes"/>
      <point x="116" y="-31"/>
      <point x="71" y="5"/>
      <point x="35" y="55" type="curve"/>
      <point x="45" y="72"/>
      <point x="55" y="86"/>
      <point x="69" y="101" type="curve"/>
      <point x="97" y="45"/>
      <point x="135" y="13"/>
    </contour>
  </outline>
</glyph>
<glyph name="colon" format="1">
  <advance width="149"/>
  <unicode hex="003A"/>
  <outline>
    <contour>
      <point x="112" y="25"/>
      <point x="113" y="45"/>
      <point x="114" y="69" type="curve"/>
      <point x="81" y="74"/>
      <point x="54" y="70"/>
      <point x="35" y="66" type="curve"/>
      <point x="35" y="42"/>
      <point x="37" y="27"/>
      <point x="38" y="1" type="curve"/>
      <point x="61" y="-2"/>
      <point x="81" y="-2"/>
      <point x="108" y="1" type="curve"/>
    </contour>
    <contour>
      <point x="112" y="500"/>
      <point x="113" y="520"/>
      <point x="114" y="544" type="curve"/>
      <point x="103" y="546"/>
      <point x="93" y="546"/>
      <point x="83" y="546" type="curve" smooth="yes"/>
      <point x="64" y="546"/>
      <point x="48" y="544"/>
      <point x="35" y="541" type="curve"/>
      <point x="35" y="517"/>
      <point x="37" y="502"/>
      <point x="38" y="476" type="curve"/>
      <point x="61" y="473"/>
      <point x="81" y="473"/>
      <point x="108" y="476" type="curve"/>
    </contour>
  </outline>
</glyph>
<glyph name="semicolon" format="1">
  <advance width="149"/>
  <unicode hex="003B"/>
  <outline>
    <contour>
      <point x="108" y="476" type="curve"/>
      <point x="112" y="500"/>
      <point x="113" y="520"/>
      <point x="114" y="544" type="curve"/>
      <point x="103" y="546"/>
      <point x="93" y="546"/>
      <point x="83" y="546" type="curve" smooth="yes"/>
      <point x="64" y="546"/>
      <point x="48" y="544"/>
      <point x="35" y="541" type="curve"/>
      <point x="35" y="517"/>
      <point x="37" y="502"/>
      <point x="38" y="476" type="curve"/>
      <point x="61" y="473"/>
      <point x="81" y="473"/>
    </contour>
    <contour>
      <point x="99" y="68" type="curve"/>
      <point x="80" y="70"/>
      <point x="60" y="71"/>
      <point x="42" y="70" type="curve"/>
      <point x="42" y="-15"/>
      <point x="32" y="-84"/>
      <point x="0" y="-210" type="curve"/>
      <point x="14" y="-215"/>
      <point x="23" y="-218"/>
      <point x="35" y="-220" type="curve"/>
      <point x="83" y="-107"/>
      <point x="101" y="-23"/>
    </contour>
  </outline>
</glyph>
<glyph name="less" format="1">
  <advance width="340"/>
  <unicode hex="003C"/>
  <outline>
    <contour>
      <point x="56" y="321" type="line"/>
      <point x="129" y="373"/>
      <point x="203" y="415"/>
      <point x="311" y="461" type="curve"/>
      <point x="308" y="474"/>
      <point x="304" y="481"/>
      <point x="298" y="498" type="curve"/>
      <point x="194" y="455"/>
      <point x="117" y="416"/>
      <point x="34" y="357" type="curve"/>
      <point x="31" y="322" type="line"/>
      <point x="105" y="265"/>
      <point x="189" y="222"/>
      <point x="295" y="181" type="curve"/>
      <point x="302" y="193"/>
      <point x="307" y="205"/>
      <point x="308" y="218" type="curve"/>
      <point x="200" y="264"/>
      <point x="115" y="307"/>
      <point x="53" y="358" type="curve"/>
    </contour>
  </outline>
</glyph>
<glyph name="equal" format="1">
  <advance width="341"/>
  <unicode hex="003D"/>
  <outline>
    <contour>
      <point x="37" y="401" type="curve"/>
      <point x="34" y="388"/>
      <point x="32" y="376"/>
      <point x="32" y="359" type="curve"/>
      <point x="127" y="348"/>
      <point x="224" y="348"/>
      <point x="315" y="359" type="curve"/>
      <point x="318" y="372"/>
      <point x="319" y="386"/>
      <point x="319" y="399" type="curve"/>
      <point x="195" y="389"/>
      <point x="120" y="391"/>
    </contour>
    <contour>
      <point x="27" y="281" type="curve"/>
      <point x="24" y="268"/>
      <point x="22" y="256"/>
      <point x="22" y="239" type="curve"/>
      <point x="117" y="228"/>
      <point x="214" y="228"/>
      <point x="305" y="239" type="curve"/>
      <point x="308" y="252"/>
      <point x="309" y="266"/>
      <point x="309" y="279" type="curve"/>
      <point x="185" y="269"/>
      <point x="110" y="271"/>
    </contour>
  </outline>
</glyph>
<glyph name="question" format="1">
  <advance width="353"/>
  <unicode hex="003F"/>
  <outline>
    <contour>
      <point x="157" y="355" type="line"/>
      <point x="267.827854402" y="385.311891802"/>
      <point x="323.0" y="473.0"/>
      <point x="323" y="575" type="curve" smooth="yes"/>
      <point x="323" y="688"/>
      <point x="266" y="763"/>
      <point x="177" y="763" type="curve" smooth="yes"/>
      <point x="69" y="763"/>
      <point x="23" y="679"/>
      <point x="15" y="545" type="curve"/>
      <point x="30" y="541"/>
      <point x="48" y="538"/>
      <point x="65" y="538" type="curve"/>
      <point x="65" y="651"/>
      <point x="102" y="719"/>
      <point x="171" y="719" type="curve" smooth="yes"/>
      <point x="229" y="719"/>
      <point x="268" y="661"/>
      <point x="268" y="571" type="curve" smooth="yes"/>
      <point x="268.0" y="478.0"/>
      <point x="222.640581829" y="411.441319076"/>
      <point x="127" y="388" type="curve"/>
    </contour>
    <contour>
      <point x="127" y="388" type="line"/>
      <point x="129" y="322"/>
      <point x="136" y="254"/>
      <point x="140" y="200" type="curve"/>
      <point x="152" y="199"/>
      <point x="165" y="199"/>
      <point x="177" y="200" type="curve"/>
      <point x="177" y="277"/>
      <point x="177" y="329"/>
      <point x="177" y="396" type="curve"/>
    </contour>
    <contour>
      <point x="194" y="2" type="curve"/>
      <point x="193" y="26"/>
      <point x="193" y="41"/>
      <point x="191" y="64" type="curve"/>
      <point x="173" y="66"/>
      <point x="158" y="66"/>
      <point x="137" y="64" type="curve"/>
      <point x="136" y="44"/>
      <point x="136" y="23"/>
      <point x="137" y="1" type="curve"/>
      <point x="146" y="0"/>
      <point x="154" y="-1"/>
      <point x="163" y="-1" type="curve" smooth="yes"/>
      <point x="173" y="-1"/>
      <point x="183" y="0"/>
    </contour>
  </outline>
</glyph>
<glyph name="at" format="1">
  <advance width="875"/>
  <unicode hex="0040"/>
  <outline>
    <contour>
      <point x="529" y="461" type="curve"/>
      <point x="537" y="502" type="line"/>
      <point x="522" y="512"/>
      <point x="472" y="533"/>
      <point x="428" y="533" type="curve" smooth="yes"/>
      <point x="329" y="533"/>
      <point x="254" y="445"/>
      <point x="254" y="295" type="curve" smooth="yes"/>
      <point x="254" y="172"/>
      <point x="312" y="96"/>
      <point x="388" y="96" type="curve" smooth="yes"/>
      <point x="469" y="96"/>
      <point x="522" y="167"/>
      <point x="534" y="383" type="curve"/>
      <point x="509" y="407" type="line"/>
      <point x="502" y="203"/>
      <point x="449" y="140"/>
      <point x="390" y="140" type="curve" smooth="yes"/>
      <point x="342" y="140"/>
      <point x="309" y="196"/>
      <point x="309" y="304" type="curve" smooth="yes"/>
      <point x="309" y="422"/>
      <point x="366" y="489"/>
      <point x="436" y="489" type="curve" smooth="yes"/>
      <point x="484" y="489"/>
      <point x="507" y="473"/>
    </contour>
    <contour>
      <point x="805" y="355" type="curve" smooth="yes"/>
      <point x="805.0" y="538.042492918"/>
      <point x="701" y="718"/>
      <point x="446" y="718" type="curve" smooth="yes"/>
      <point x="199" y="718"/>
      <point x="45" y="553"/>
      <point x="45" y="292" type="curve" smooth="yes"/>
      <point x="45" y="57"/>
      <point x="198" y="-93"/>
      <point x="411" y="-93" type="curve" smooth="yes"/>
      <point x="491.911504425" y="-93.0"/>
      <point x="570.468210385" y="-72.096485917"/>
      <point x="634" y="-33" type="curve"/>
      <point x="624.627603236" y="-15.2965838896"/>
      <point x="620.381963553" y="-4.48309083117"/>
      <point x="606" y="9" type="curve"/>
      <point x="557" y="-32"/>
      <point x="496" y="-49"/>
      <point x="419" y="-49" type="curve" smooth="yes"/>
      <point x="222" y="-49"/>
      <point x="100" y="88"/>
      <point x="100" y="305" type="curve" smooth="yes"/>
      <point x="100" y="529"/>
      <point x="238" y="674"/>
      <point x="434" y="674" type="curve" smooth="yes"/>
      <point x="647" y="674"/>
      <point x="750.0" y="527.374592834"/>
      <point x="750" y="357" type="curve" smooth="yes"/>
      <point x="750.0" y="216.176470588"/>
      <point x="693.0" y="129.0"/>
      <point x="618" y="129" type="curve" smooth="yes"/>
      <point x="564.266666667" y="129.0"/>
      <point x="540.0" y="179.0"/>
      <point x="540" y="312" type="curve" smooth="yes"/>
      <point x="540" y="372"/>
      <point x="543" y="442"/>
      <point x="551" y="554" type="curve"/>
      <point x="525" y="560"/>
      <point x="502" y="556"/>
      <point x="488" y="550" type="curve"/>
      <point x="488" y="457"/>
      <point x="491" y="324"/>
      <point x="491" y="259" type="curve" smooth="yes"/>
      <point x="491.0" y="141.0"/>
      <point x="539.391304348" y="85.0"/>
      <point x="617" y="85" type="curve" smooth="yes"/>
      <point x="721.681818182" y="85.0"/>
      <point x="805.0" y="189.142857143"/>
    </contour>
  </outline>
</glyph>
<glyph name="A" format="1">
  <advance width="673"/>
  <unicode hex="0041"/>
  <outline>
    <contour>
      <point x="486" y="-117" type="curve"/>
      <point x="567" y="-107"/>
      <point x="634" y="-89"/>
      <point x="685" y="-55" type="curve"/>
      <point x="642" y="210"/>
      <point x="562" y="484"/>
      <point x="433" y="689" type="curve"/>
      <point x="376.103717733" y="702.955691877"/>
      <point x="312" y="710"/>
      <point x="239" y="710" type="curve"/>
      <point x="170" y="466"/>
      <point x="105.61564092" y="278.414337586"/>
      <point x="-14" y="55" type="curve"/>
      <point x="19" y="13"/>
      <point x="80" y="-21"/>
      <point x="147" y="-32" type="curve"/>
      <point x="216" y="109"/>
      <point x="287" y="351"/>
      <point x="325" y="503" type="curve"/>
      <point x="396" y="342"/>
      <point x="464" y="99"/>
    </contour>
    <contour>
      <point x="471" y="279" type="line"/>
      <point x="366" y="279"/>
      <point x="272" y="269"/>
      <point x="174" y="250" type="curve"/>
      <point x="180" y="124" type="line"/>
      <point x="279" y="139"/>
      <point x="382" y="142"/>
      <point x="481" y="142" type="curve"/>
    </contour>
  </outline>
</glyph>
<glyph name="B" format="1">
  <advance width="566"/>
  <unicode hex="0042"/>
  <outline>
    <contour>
      <point x="127" y="7" type="curve"/>
      <point x="120" y="88"/>
      <point x="117" y="152"/>
      <point x="117" y="265" type="curve" smooth="yes"/>
      <point x="117" y="378"/>
      <point x="111" y="527"/>
      <point x="126" y="708" type="curve"/>
      <point x="124" y="708"/>
      <point x="62" y="706"/>
      <point x="60" y="705" type="curve"/>
      <point x="60" y="635"/>
      <point x="61" y="586"/>
      <point x="61" y="538" type="curve" smooth="yes"/>
      <point x="61" y="371"/>
      <point x="64" y="256"/>
      <point x="73" y="12" type="curve"/>
      <point x="75" y="12"/>
      <point x="125" y="7"/>
    </contour>
    <contour>
      <point x="458" y="577" type="curve" smooth="yes"/>
      <point x="458" y="677"/>
      <point x="376" y="740"/>
      <point x="229" y="740" type="curve"/>
      <point x="171" y="740"/>
      <point x="113" y="729"/>
      <point x="60" y="705" type="curve"/>
      <point x="60" y="704"/>
      <point x="80" y="662"/>
      <point x="81" y="661" type="curve"/>
      <point x="121" y="684"/>
      <point x="175" y="696"/>
      <point x="236" y="696" type="curve" smooth="yes"/>
      <point x="347" y="696"/>
      <point x="398" y="645"/>
      <point x="398" y="572" type="curve" smooth="yes"/>
      <point x="398" y="478"/>
      <point x="329" y="419"/>
      <point x="105" y="402" type="curve"/>
      <point x="118" y="367" type="line"/>
      <point x="416" y="394"/>
      <point x="458" y="504"/>
    </contour>
    <contour>
      <point x="508" y="258" type="curve" smooth="yes"/>
      <point x="508" y="361"/>
      <point x="430" y="420"/>
      <point x="279" y="420" type="curve" smooth="yes"/>
      <point x="229" y="420"/>
      <point x="158" y="402"/>
      <point x="105" y="392" type="curve"/>
      <point x="105" y="348" type="line"/>
      <point x="136" y="362"/>
      <point x="218" y="382"/>
      <point x="283" y="382" type="curve" smooth="yes"/>
      <point x="407" y="382"/>
      <point x="448" y="326"/>
      <point x="448" y="243" type="curve" smooth="yes"/>
      <point x="448" y="129"/>
      <point x="343" y="25"/>
      <point x="207" y="25" type="curve" smooth="yes"/>
      <point x="162" y="25"/>
      <point x="116" y="40"/>
      <point x="86" y="65" type="curve"/>
      <point x="73" y="12" type="line"/>
      <point x="100" y="-6"/>
      <point x="149" y="-20"/>
      <point x="198" y="-20" type="curve" smooth="yes"/>
      <point x="375" y="-20"/>
      <point x="508" y="108"/>
    </contour>
  </outline>
</glyph>
<glyph name="C" format="1">
  <advance width="519"/>
  <unicode hex="0043"/>
  <outline>
    <contour>
      <point x="464" y="210" type="curve"/>
      <point x="445" y="218"/>
      <point x="434" y="220"/>
      <point x="414" y="220" type="curve"/>
      <point x="417" y="95"/>
      <point x="363" y="12"/>
      <point x="265" y="12" type="curve" smooth="yes"/>
      <point x="159" y="12"/>
      <point x="100" y="112"/>
      <point x="100" y="296" type="curve" smooth="yes"/>
      <point x="100" y="532"/>
      <point x="201" y="646"/>
      <point x="294" y="646" type="curve"/>
      <point x="382" y="646"/>
      <point x="413" y="590"/>
      <point x="403" y="450" type="curve"/>
      <point x="422" y="449"/>
      <point x="448" y="453"/>
      <point x="462" y="464" type="curve"/>
      <point x="468" y="616"/>
      <point x="421" y="693"/>
      <point x="304" y="693" type="curve"/>
      <point x="147" y="693"/>
      <point x="40" y="531"/>
      <point x="40" y="285" type="curve" smooth="yes"/>
      <point x="40" y="78"/>
      <point x="122" y="-35"/>
      <point x="262" y="-35" type="curve" smooth="yes"/>
      <point x="387" y="-35"/>
      <point x="456" y="50"/>
    </contour>
  </outline>
</glyph>
<glyph name="D" format="1">
  <advance width="550"/>
  <unicode hex="0044"/>
  <outline>
    <contour>
      <point x="123" y="-12" type="curve"/>
      <point x="119" y="68"/>
      <point x="117" y="132"/>
      <point x="117" y="236" type="curve" smooth="yes"/>
      <point x="117" y="390"/>
      <point x="115" y="474"/>
      <point x="127" y="675" type="curve"/>
      <point x="125" y="676"/>
      <point x="66" y="679"/>
      <point x="63" y="678" type="curve"/>
      <point x="61" y="627"/>
      <point x="60" y="558"/>
      <point x="60" y="508" type="curve" smooth="yes"/>
      <point x="60" y="346"/>
      <point x="63" y="205"/>
      <point x="73" y="-5" type="curve"/>
      <point x="75" y="-5"/>
      <point x="122" y="-12"/>
    </contour>
    <contour>
      <point x="514" y="445" type="curve" smooth="yes"/>
      <point x="514.0" y="611.0"/>
      <point x="429" y="717"/>
      <point x="241" y="717" type="curve" smooth="yes"/>
      <point x="173" y="717"/>
      <point x="114" y="704"/>
      <point x="63" y="678" type="curve"/>
      <point x="63.8445403457" y="677.155459654"/>
      <point x="73.0304787996" y="627.939042401"/>
      <point x="74" y="626" type="curve"/>
      <point x="120.115809836" y="655.346424441"/>
      <point x="168.344827586" y="670.0"/>
      <point x="226" y="670" type="curve" smooth="yes"/>
      <point x="386" y="670"/>
      <point x="453" y="582"/>
      <point x="453" y="448" type="curve" smooth="yes"/>
      <point x="453" y="263"/>
      <point x="347" y="109"/>
      <point x="88" y="23" type="curve"/>
      <point x="123" y="-12" type="line"/>
      <point x="368" y="67"/>
      <point x="514" y="243"/>
    </contour>
  </outline>
</glyph>
<glyph name="E" format="1">
  <advance width="489"/>
  <unicode hex="0045"/>
  <outline>
    <contour>
      <point x="455" y="-14" type="curve"/>
      <point x="457" y="-2"/>
      <point x="457" y="19"/>
      <point x="453" y="36" type="curve"/>
      <point x="357" y="15"/>
      <point x="279" y="8"/>
      <point x="165" y="4" type="curve"/>
      <point x="145" y="131"/>
      <point x="132" y="249"/>
      <point x="124" y="334" type="curve" smooth="yes"/>
      <point x="111" y="477"/>
      <point x="108" y="582"/>
      <point x="110" y="687" type="curve"/>
      <point x="50" y="693" type="line"/>
      <point x="53" y="510"/>
      <point x="77" y="234"/>
      <point x="118" y="-41" type="curve"/>
      <point x="222" y="-38"/>
      <point x="315" y="-33"/>
    </contour>
    <contour>
      <point x="386" y="367" type="curve"/>
      <point x="387" y="384"/>
      <point x="385" y="399"/>
      <point x="382" y="412" type="curve"/>
      <point x="276" y="402"/>
      <point x="199" y="388"/>
      <point x="104" y="373" type="curve"/>
      <point x="106" y="330" type="line"/>
      <point x="202" y="348"/>
      <point x="261" y="357"/>
    </contour>
    <contour>
      <point x="429" y="688" type="curve"/>
      <point x="432" y="703"/>
      <point x="433" y="718"/>
      <point x="432" y="735" type="curve"/>
      <point x="274" y="731"/>
      <point x="176" y="715"/>
      <point x="50" y="693" type="curve"/>
      <point x="72" y="650" type="line"/>
      <point x="180" y="672"/>
      <point x="291" y="687"/>
    </contour>
  </outline>
</glyph>
<glyph name="F" format="1">
  <advance width="481"/>
  <unicode hex="0046"/>
  <outline>
    <contour>
      <point x="379" y="400" type="curve"/>
      <point x="379" y="418"/>
      <point x="377" y="432"/>
      <point x="374" y="446" type="curve"/>
      <point x="286" y="440"/>
      <point x="203" y="430"/>
      <point x="119" y="414" type="curve"/>
      <point x="124" y="371" type="line"/>
      <point x="202" y="383"/>
      <point x="292" y="395"/>
    </contour>
    <contour>
      <point x="148" y="-74" type="curve"/>
      <point x="150" y="45"/>
      <point x="148" y="129"/>
      <point x="143" y="325" type="curve" smooth="yes"/>
      <point x="140" y="455"/>
      <point x="129" y="587"/>
      <point x="108" y="715" type="curve"/>
      <point x="104" y="715"/>
      <point x="52" y="723"/>
      <point x="50" y="723" type="curve"/>
      <point x="90" y="470"/>
      <point x="101" y="223"/>
      <point x="95" y="-77" type="curve"/>
      <point x="107" y="-78"/>
      <point x="131" y="-77"/>
    </contour>
    <contour>
      <point x="439" y="723" type="curve"/>
      <point x="440" y="733"/>
      <point x="440" y="741"/>
      <point x="438" y="751" type="curve" smooth="yes"/>
      <point x="437" y="758"/>
      <point x="434" y="767"/>
      <point x="431" y="774" type="curve"/>
      <point x="305" y="749"/>
      <point x="215" y="736"/>
      <point x="50" y="723" type="curve"/>
      <point x="50" y="722"/>
      <point x="90" y="680"/>
      <point x="90" y="678" type="curve"/>
      <point x="215" y="686"/>
      <point x="307" y="700"/>
    </contour>
  </outline>
</glyph>
<glyph name="G" format="1">
  <advance width="540"/>
  <unicode hex="0047"/>
  <outline>
    <contour>
      <point x="458" y="225" type="curve"/>
      <point x="414" y="246" type="line"/>
      <point x="385" y="103"/>
      <point x="324" y="27"/>
      <point x="239" y="27" type="curve" smooth="yes"/>
      <point x="161" y="27"/>
      <point x="100" y="121"/>
      <point x="100" y="323" type="curve" smooth="yes"/>
      <point x="100" y="532"/>
      <point x="176" y="677"/>
      <point x="275" y="677" type="curve" smooth="yes"/>
      <point x="351" y="677"/>
      <point x="394" y="611"/>
      <point x="395" y="478" type="curve"/>
      <point x="418" y="480"/>
      <point x="437" y="483"/>
      <point x="454" y="488" type="curve"/>
      <point x="456" y="621"/>
      <point x="402" y="724"/>
      <point x="290" y="724" type="curve" smooth="yes"/>
      <point x="136" y="724"/>
      <point x="40" y="551"/>
      <point x="40" y="306" type="curve" smooth="yes"/>
      <point x="40" y="95"/>
      <point x="120" y="-21"/>
      <point x="232" y="-21" type="curve" smooth="yes"/>
      <point x="348" y="-21"/>
      <point x="412" y="66"/>
    </contour>
    <contour>
      <point x="512" y="-23" type="curve"/>
      <point x="473" y="105"/>
      <point x="457" y="220"/>
      <point x="459" y="348" type="curve"/>
      <point x="437" y="348"/>
      <point x="412" y="345"/>
      <point x="392" y="341" type="curve"/>
      <point x="400" y="194"/>
      <point x="425" y="79"/>
      <point x="467" y="-29" type="curve"/>
      <point x="483" y="-28"/>
      <point x="501" y="-26"/>
    </contour>
  </outline>
</glyph>
<glyph name="H" format="1">
  <advance width="573"/>
  <unicode hex="0048"/>
  <outline>
    <contour>
      <point x="130" y="12" type="curve"/>
      <point x="117" y="212"/>
      <point x="113" y="554"/>
      <point x="127" y="710" type="curve"/>
      <point x="116" y="713"/>
      <point x="107" y="714"/>
      <point x="96" y="714" type="curve" smooth="yes"/>
      <point x="81" y="714"/>
      <point x="69" y="712"/>
      <point x="60" y="709" type="curve"/>
      <point x="60" y="493"/>
      <point x="64" y="264"/>
      <point x="78" y="8" type="curve"/>
      <point x="95" y="6"/>
      <point x="115" y="8"/>
    </contour>
    <contour>
      <point x="502" y="-55" type="curve"/>
      <point x="502" y="153"/>
      <point x="493" y="493"/>
      <point x="481" y="737" type="curve"/>
      <point x="474" y="741"/>
      <point x="465" y="742"/>
      <point x="458" y="742" type="curve" smooth="yes"/>
      <point x="445" y="742"/>
      <point x="436" y="740"/>
      <point x="422" y="736" type="curve"/>
      <point x="438" y="561"/>
      <point x="446" y="144"/>
      <point x="446" y="-47" type="curve"/>
      <point x="458" y="-50"/>
      <point x="483" y="-55"/>
    </contour>
    <contour>
      <point x="460" y="352" type="curve"/>
      <point x="454" y="400" type="line"/>
      <point x="328" y="400"/>
      <point x="215" y="392"/>
      <point x="98" y="370" type="curve"/>
      <point x="100" y="330" type="line"/>
      <point x="218" y="349"/>
      <point x="341" y="352"/>
    </contour>
  </outline>
</glyph>
<glyph name="I" format="1">
  <advance width="203.26446281"/>
  <unicode hex="0049"/>
  <outline>
    <contour>
      <point x="123" y="-22" type="curve"/>
      <point x="130" y="206"/>
      <point x="128" y="332"/>
      <point x="128" y="481" type="curve" smooth="yes"/>
      <point x="128" y="552"/>
      <point x="127" y="610"/>
      <point x="122" y="677" type="curve"/>
      <point x="116" y="678"/>
      <point x="110" y="679"/>
      <point x="102" y="679" type="curve" smooth="yes"/>
      <point x="87" y="679"/>
      <point x="74" y="676"/>
      <point x="61" y="670" type="curve"/>
      <point x="75" y="454"/>
      <point x="79" y="217"/>
      <point x="75" y="-28" type="curve"/>
      <point x="93" y="-27"/>
      <point x="113" y="-25"/>
    </contour>
  </outline>
</glyph>
<glyph name="J" format="1">
  <advance width="429"/>
  <unicode hex="004A"/>
  <outline>
    <contour>
      <point x="189" y="-88" type="curve" smooth="yes"/>
      <point x="257" y="-88"/>
      <point x="301" y="-38"/>
      <point x="326" y="43" type="curve" smooth="yes"/>
      <point x="348" y="117"/>
      <point x="354" y="214"/>
      <point x="354" y="322" type="curve" smooth="yes"/>
      <point x="354" y="453"/>
      <point x="342" y="596"/>
      <point x="328" y="725" type="curve"/>
      <point x="317" y="725"/>
      <point x="306" y="724"/>
      <point x="296" y="722" type="curve" smooth="yes"/>
      <point x="283" y="720"/>
      <point x="271" y="716"/>
      <point x="262" y="711" type="curve"/>
      <point x="282" y="533"/>
      <point x="294" y="392"/>
      <point x="294" y="232" type="curve" smooth="yes"/>
      <point x="294" y="39"/>
      <point x="256" y="-41"/>
      <point x="192" y="-41" type="curve" smooth="yes"/>
      <point x="136" y="-41"/>
      <point x="105" y="6"/>
      <point x="84" y="183" type="curve"/>
      <point x="63" y="178"/>
      <point x="46" y="173"/>
      <point x="30" y="164" type="curve"/>
      <point x="47" y="3"/>
      <point x="100" y="-88"/>
    </contour>
  </outline>
</glyph>
<glyph name="K" format="1">
  <advance width="531"/>
  <unicode hex="004B"/>
  <outline>
    <contour>
      <point x="142" y="-64" type="curve"/>
      <point x="125" y="73"/>
      <point x="118" y="166"/>
      <point x="118" y="343" type="curve" smooth="yes"/>
      <point x="118" y="457"/>
      <point x="120" y="566"/>
      <point x="141" y="700" type="curve"/>
      <point x="133" y="702"/>
      <point x="122" y="704"/>
      <point x="109" y="704" type="curve" smooth="yes"/>
      <point x="97" y="704"/>
      <point x="83" y="702"/>
      <point x="71" y="700" type="curve"/>
      <point x="64" y="597"/>
      <point x="60" y="511"/>
      <point x="60" y="440" type="curve" smooth="yes"/>
      <point x="60" y="264"/>
      <point x="66" y="142"/>
      <point x="92" y="-69" type="curve"/>
      <point x="107" y="-69"/>
      <point x="127" y="-66"/>
    </contour>
    <contour>
      <point x="106" y="218" type="line"/>
      <point x="288" y="360"/>
      <point x="366" y="457"/>
      <point x="466" y="644" type="curve"/>
      <point x="453" y="659"/>
      <point x="438" y="673"/>
      <point x="422" y="681" type="curve"/>
      <point x="329" y="487"/>
      <point x="274" y="407"/>
      <point x="89" y="247" type="curve"/>
    </contour>
    <contour>
      <point x="483" y="-78" type="curve"/>
      <point x="502" y="-67"/>
      <point x="514" y="-54"/>
      <point x="525" y="-40" type="curve"/>
      <point x="394" y="160"/>
      <point x="342" y="221"/>
      <point x="213" y="338" type="curve"/>
      <point x="179" y="305" type="line"/>
      <point x="330" y="161"/>
      <point x="395" y="71"/>
    </contour>
  </outline>
</glyph>
<glyph name="L" format="1">
  <advance width="455"/>
  <unicode hex="004C"/>
  <outline>
    <contour>
      <point x="450" y="-72" type="curve"/>
      <point x="450" y="-59"/>
      <point x="448" y="-36"/>
      <point x="446" y="-22" type="curve"/>
      <point x="346" y="-22"/>
      <point x="241" y="-31"/>
      <point x="155" y="-43" type="curve"/>
      <point x="131" y="128"/>
      <point x="124" y="258"/>
      <point x="122" y="392" type="curve" smooth="yes"/>
      <point x="121" y="488"/>
      <point x="121" y="576"/>
      <point x="129" y="672" type="curve"/>
      <point x="124" y="673"/>
      <point x="115" y="674"/>
      <point x="107" y="674" type="curve" smooth="yes"/>
      <point x="90" y="674"/>
      <point x="80" y="672"/>
      <point x="65" y="666" type="curve"/>
      <point x="58" y="426"/>
      <point x="73" y="172"/>
      <point x="109" y="-97" type="curve"/>
      <point x="208" y="-83"/>
      <point x="300" y="-73"/>
    </contour>
  </outline>
</glyph>
<glyph name="M" format="1">
  <advance width="708"/>
  <unicode hex="004D"/>
  <outline>
    <contour>
      <point x="162" y="4" type="line"/>
      <point x="128" y="206"/>
      <point x="114" y="378"/>
      <point x="114" y="517" type="curve" smooth="yes"/>
      <point x="114" y="605"/>
      <point x="112" y="627"/>
      <point x="126" y="721" type="curve"/>
      <point x="66" y="732" type="line"/>
      <point x="56" y="501"/>
      <point x="71" y="219"/>
      <point x="108" y="-4" type="curve"/>
    </contour>
    <contour>
      <point x="625" y="-49" type="curve"/>
      <point x="633" y="197"/>
      <point x="640" y="510"/>
      <point x="629" y="736" type="curve"/>
      <point x="580" y="736" type="line"/>
      <point x="586" y="371"/>
      <point x="582" y="174"/>
      <point x="568" y="-58" type="curve"/>
      <point x="588" y="-58"/>
      <point x="607" y="-55"/>
    </contour>
    <contour>
      <point x="370" y="205" type="line"/>
      <point x="510" y="438"/>
      <point x="559" y="546"/>
      <point x="629" y="736" type="curve"/>
      <point x="566" y="754" type="line"/>
      <point x="513" y="562"/>
      <point x="466" y="449"/>
      <point x="340" y="246" type="curve"/>
      <point x="365" y="236" type="line"/>
      <point x="306" y="428"/>
      <point x="216" y="619"/>
      <point x="123" y="754" type="curve"/>
      <point x="66" y="732" type="line"/>
      <point x="176" y="583"/>
      <point x="254" y="422"/>
      <point x="330" y="199" type="curve"/>
    </contour>
  </outline>
</glyph>
<glyph name="N" format="1">
  <advance width="600"/>
  <unicode hex="004E"/>
  <outline>
    <contour>
      <point x="145" y="-34" type="curve"/>
      <point x="135" y="105"/>
      <point x="125" y="240"/>
      <point x="123" y="360" type="curve" smooth="yes"/>
      <point x="120" y="491"/>
      <point x="117" y="561"/>
      <point x="122" y="685" type="curve"/>
      <point x="119" y="685"/>
      <point x="62" y="683"/>
      <point x="61" y="682" type="curve"/>
      <point x="61" y="467"/>
      <point x="69" y="296"/>
      <point x="98" y="-40" type="curve"/>
      <point x="116" y="-39"/>
      <point x="131" y="-37"/>
    </contour>
    <contour>
      <point x="508" y="23" type="curve"/>
      <point x="526" y="230"/>
      <point x="529" y="366"/>
      <point x="529" y="549" type="curve" smooth="yes"/>
      <point x="529" y="622"/>
      <point x="526" y="689"/>
      <point x="522" y="757" type="curve"/>
      <point x="496" y="755"/>
      <point x="478" y="751"/>
      <point x="459" y="745" type="curve"/>
      <point x="473" y="653"/>
      <point x="476" y="496"/>
      <point x="476" y="353" type="curve" smooth="yes"/>
      <point x="476" y="227"/>
      <point x="476" y="108"/>
      <point x="463" y="18" type="curve"/>
      <point x="479" y="19"/>
      <point x="493" y="20"/>
    </contour>
    <contour>
      <point x="495" y="65" type="line"/>
      <point x="369" y="376"/>
      <point x="241" y="560"/>
      <point x="128" y="704" type="curve"/>
      <point x="96" y="698"/>
      <point x="86" y="693"/>
      <point x="61" y="682" type="curve"/>
      <point x="200" y="528"/>
      <point x="343" y="296"/>
      <point x="463" y="18" type="curve"/>
    </contour>
  </outline>
</glyph>
<glyph name="O" format="1">
  <advance width="679"/>
  <unicode hex="004F"/>
  <outline>
    <contour>
      <point x="372" y="733" type="curve" smooth="yes"/>
      <point x="203.93258427" y="733.0"/>
      <point x="95.0" y="565.0"/>
      <point x="95" y="343" type="curve" smooth="yes"/>
      <point x="95.0" y="130.0"/>
      <point x="177.744075829" y="-20.0"/>
      <point x="316" y="-20" type="curve" smooth="yes"/>
      <point x="515.441860465" y="-20.0"/>
      <point x="584.0" y="217.0"/>
      <point x="584" y="386" type="curve" smooth="yes"/>
      <point x="584.0" y="611.0"/>
      <point x="509.485148515" y="733.0"/>
    </contour>
    <contour>
      <point x="357" y="688" type="curve" smooth="yes"/>
      <point x="468.218045113" y="688.0"/>
      <point x="529.0" y="601.0"/>
      <point x="529" y="377" type="curve" smooth="yes"/>
      <point x="529.0" y="206.0"/>
      <point x="465.984924623" y="24.0"/>
      <point x="320" y="24" type="curve" smooth="yes"/>
      <point x="197.8125" y="24.0"/>
      <point x="150.0" y="203.0"/>
      <point x="150" y="351" type="curve" smooth="yes"/>
      <point x="150.0" y="553.0"/>
      <point x="236.651162791" y="688.0"/>
    </contour>
  </outline>
</glyph>
<glyph name="P" format="1">
  <advance width="536"/>
  <unicode hex="0050"/>
  <outline>
    <contour>
      <point x="142" y="-68" type="curve"/>
      <point x="127" y="100"/>
      <point x="121" y="206"/>
      <point x="123" y="357" type="curve"/>
      <point x="123" y="460"/>
      <point x="126" y="563"/>
      <point x="141" y="709" type="curve"/>
      <point x="76" y="721" type="line"/>
      <point x="72" y="672"/>
      <point x="69" y="586"/>
      <point x="69" y="538" type="curve" smooth="yes"/>
      <point x="69" y="340"/>
      <point x="69" y="222"/>
      <point x="92" y="-67" type="curve"/>
      <point x="101" y="-70"/>
      <point x="131" y="-71"/>
    </contour>
    <contour>
      <point x="497" y="547" type="curve" smooth="yes"/>
      <point x="497" y="660"/>
      <point x="416" y="742"/>
      <point x="242" y="742" type="curve" smooth="yes"/>
      <point x="185" y="742"/>
      <point x="134" y="734"/>
      <point x="76" y="721" type="curve"/>
      <point x="76" y="719"/>
      <point x="97" y="673"/>
      <point x="98" y="671" type="curve"/>
      <point x="148" y="688"/>
      <point x="193" y="698"/>
      <point x="247" y="698" type="curve" smooth="yes"/>
      <point x="375" y="698"/>
      <point x="437" y="640"/>
      <point x="437" y="542" type="curve" smooth="yes"/>
      <point x="437" y="417"/>
      <point x="310" y="333"/>
      <point x="107" y="281" type="curve"/>
      <point x="116" y="235" type="line"/>
      <point x="361" y="308"/>
      <point x="497" y="400"/>
    </contour>
  </outline>
</glyph>
<glyph name="Q" format="1">
  <advance width="564"/>
  <unicode hex="0051"/>
  <outline>
    <contour>
      <point x="523" y="357" type="curve" smooth="yes"/>
      <point x="523" y="531"/>
      <point x="463" y="673"/>
      <point x="310" y="673" type="curve" smooth="yes"/>
      <point x="144" y="673"/>
      <point x="36" y="505"/>
      <point x="36" y="278" type="curve" smooth="yes"/>
      <point x="36" y="73"/>
      <point x="133" y="-40"/>
      <point x="254" y="-40" type="curve" smooth="yes"/>
      <point x="420" y="-40"/>
      <point x="523" y="138"/>
    </contour>
    <contour>
      <point x="303" y="625" type="curve" smooth="yes"/>
      <point x="410" y="625"/>
      <point x="463" y="528"/>
      <point x="463" y="346" type="curve" smooth="yes"/>
      <point x="463" y="147"/>
      <point x="381" y="7"/>
      <point x="255" y="7" type="curve" smooth="yes"/>
      <point x="156" y="7"/>
      <point x="96" y="114"/>
      <point x="96" y="287" type="curve" smooth="yes"/>
      <point x="96" y="491"/>
      <point x="182" y="625"/>
    </contour>
    <contour>
      <point x="520" y="-101" type="curve"/>
      <point x="535" y="-91"/>
      <point x="549" y="-76"/>
      <point x="560" y="-60" type="curve"/>
      <point x="449" y="77"/>
      <point x="406" y="120"/>
      <point x="313" y="190" type="curve"/>
      <point x="302" y="183"/>
      <point x="294" y="166"/>
      <point x="287" y="157" type="curve"/>
      <point x="376" y="86"/>
      <point x="431" y="25"/>
    </contour>
  </outline>
</glyph>
<glyph name="R" format="1">
  <advance width="549"/>
  <unicode hex="0052"/>
  <outline>
    <contour>
      <point x="129" y="-5" type="curve"/>
      <point x="142" y="130"/>
      <point x="147" y="264"/>
      <point x="147" y="395" type="curve" smooth="yes"/>
      <point x="147" y="492"/>
      <point x="143" y="577"/>
      <point x="132" y="705" type="curve"/>
      <point x="130" y="705"/>
      <point x="71" y="708"/>
      <point x="69" y="707" type="curve"/>
      <point x="90" y="518"/>
      <point x="91" y="438"/>
      <point x="91" y="248" type="curve" smooth="yes"/>
      <point x="91" y="153"/>
      <point x="87" y="89"/>
      <point x="82" y="-3" type="curve"/>
      <point x="92" y="-7"/>
      <point x="117" y="-7"/>
    </contour>
    <contour>
      <point x="144" y="280" type="line"/>
      <point x="376" y="340"/>
      <point x="478" y="437"/>
      <point x="478" y="584" type="curve" smooth="yes"/>
      <point x="478" y="692"/>
      <point x="403" y="770"/>
      <point x="274" y="770" type="curve" smooth="yes"/>
      <point x="199" y="770"/>
      <point x="124" y="745"/>
      <point x="69" y="707" type="curve"/>
      <point x="69" y="706"/>
      <point x="100" y="667"/>
      <point x="100" y="665" type="curve"/>
      <point x="139" y="701"/>
      <point x="203" y="724"/>
      <point x="270" y="724" type="curve" smooth="yes"/>
      <point x="361" y="724"/>
      <point x="419" y="674"/>
      <point x="419" y="570" type="curve" smooth="yes"/>
      <point x="419" y="451"/>
      <point x="333" y="369"/>
      <point x="135" y="324" type="curve"/>
    </contour>
    <contour>
      <point x="525" y="0" type="curve"/>
      <point x="439" y="191"/>
      <point x="367" y="302"/>
      <point x="313" y="363" type="curve"/>
      <point x="268" y="342" type="line"/>
      <point x="350" y="233"/>
      <point x="400" y="143"/>
      <point x="474" y="-24" type="curve"/>
      <point x="490" y="-21"/>
      <point x="518" y="-7"/>
    </contour>
  </outline>
</glyph>
<glyph name="S" format="1">
  <advance width="445"/>
  <unicode hex="0053"/>
  <outline>
    <contour>
      <point x="409" y="140" type="curve" smooth="yes"/>
      <point x="409" y="395"/>
      <point x="133" y="360"/>
      <point x="133" y="587" type="curve" smooth="yes"/>
      <point x="133" y="675"/>
      <point x="171" y="720"/>
      <point x="238" y="720" type="curve" smooth="yes"/>
      <point x="303" y="720"/>
      <point x="341" y="684"/>
      <point x="355" y="565" type="curve"/>
      <point x="377" y="566"/>
      <point x="394" y="569"/>
      <point x="410" y="578" type="curve"/>
      <point x="389" y="694"/>
      <point x="353" y="767"/>
      <point x="241" y="767" type="curve" smooth="yes"/>
      <point x="141" y="767"/>
      <point x="73" y="700"/>
      <point x="73" y="584" type="curve" smooth="yes"/>
      <point x="73" y="325"/>
      <point x="349" y="362"/>
      <point x="349" y="137" type="curve" smooth="yes"/>
      <point x="349" y="61"/>
      <point x="304" y="7"/>
      <point x="231" y="7" type="curve" smooth="yes"/>
      <point x="130" y="7"/>
      <point x="87" y="110"/>
      <point x="88" y="246" type="curve"/>
      <point x="66" y="244"/>
      <point x="46" y="238"/>
      <point x="30" y="229" type="curve"/>
      <point x="30" y="107"/>
      <point x="75" y="-40"/>
      <point x="232" y="-40" type="curve" smooth="yes"/>
      <point x="334" y="-40"/>
      <point x="409" y="32"/>
    </contour>
  </outline>
</glyph>
<glyph name="T" format="1">
  <advance width="576"/>
  <unicode hex="0054"/>
  <outline>
    <contour>
      <point x="553" y="740" type="curve"/>
      <point x="553" y="747"/>
      <point x="554" y="755"/>
      <point x="553" y="764" type="curve" smooth="yes"/>
      <point x="552" y="772"/>
      <point x="550" y="782"/>
      <point x="546" y="791" type="curve"/>
      <point x="352" y="788"/>
      <point x="223" y="776"/>
      <point x="16" y="744" type="curve"/>
      <point x="15" y="732"/>
      <point x="16" y="712"/>
      <point x="20" y="693" type="curve"/>
      <point x="238" y="726"/>
      <point x="345" y="737"/>
    </contour>
    <contour>
      <point x="347" y="33" type="curve"/>
      <point x="349" y="95"/>
      <point x="350" y="153"/>
      <point x="350" y="209" type="curve" smooth="yes"/>
      <point x="350" y="400"/>
      <point x="339" y="559"/>
      <point x="317" y="763" type="curve"/>
      <point x="314" y="763"/>
      <point x="255" y="758"/>
      <point x="252" y="757" type="curve"/>
      <point x="284" y="539"/>
      <point x="300" y="263"/>
      <point x="292" y="25" type="curve"/>
      <point x="311" y="26"/>
      <point x="336" y="29"/>
    </contour>
  </outline>
</glyph>
<glyph name="U" format="1">
  <advance width="516"/>
  <unicode hex="0055"/>
  <outline>
    <contour>
      <point x="463" y="363" type="curve" smooth="yes"/>
      <point x="463" y="490"/>
      <point x="442" y="606"/>
      <point x="416" y="705" type="curve"/>
      <point x="390" y="703"/>
      <point x="373" y="700"/>
      <point x="354" y="694" type="curve"/>
      <point x="389" y="560"/>
      <point x="403" y="457"/>
      <point x="403" y="316" type="curve" smooth="yes"/>
      <point x="403" y="104"/>
      <point x="346" y="-31"/>
      <point x="235" y="-31" type="curve" smooth="yes"/>
      <point x="151" y="-31"/>
      <point x="108" y="41"/>
      <point x="108" y="293" type="curve" smooth="yes"/>
      <point x="108" y="403"/>
      <point x="127" y="521"/>
      <point x="155" y="632" type="curve"/>
      <point x="149" y="633"/>
      <point x="142" y="634"/>
      <point x="133" y="634" type="curve" smooth="yes"/>
      <point x="125" y="634"/>
      <point x="107" y="633"/>
      <point x="97" y="630" type="curve"/>
      <point x="72" y="553"/>
      <point x="47" y="408"/>
      <point x="47" y="274" type="curve" smooth="yes"/>
      <point x="47" y="3"/>
      <point x="121" y="-80"/>
      <point x="224" y="-80" type="curve" smooth="yes"/>
      <point x="373" y="-80"/>
      <point x="463" y="40"/>
    </contour>
  </outline>
</glyph>
<glyph name="V" format="1">
  <advance width="549"/>
  <unicode hex="0056"/>
  <outline>
    <contour>
      <point x="266" y="-90" type="curve"/>
      <point x="407" y="213"/>
      <point x="466" y="398"/>
      <point x="503" y="751" type="curve"/>
      <point x="481" y="758"/>
      <point x="466" y="761"/>
      <point x="446" y="760" type="curve"/>
      <point x="418" y="440"/>
      <point x="364" y="245"/>
      <point x="250" y="-24" type="curve"/>
      <point x="166" y="188"/>
      <point x="109" y="402"/>
      <point x="83" y="633" type="curve"/>
      <point x="61" y="630"/>
      <point x="47" y="625"/>
      <point x="26" y="615" type="curve"/>
      <point x="62" y="352"/>
      <point x="127" y="121"/>
      <point x="222" y="-95" type="curve"/>
      <point x="238" y="-95"/>
      <point x="249" y="-94"/>
    </contour>
  </outline>
</glyph>
<glyph name="W" format="1">
  <advance width="699"/>
  <unicode hex="0057"/>
  <outline>
    <contour>
      <point x="481" y="-30" type="curve"/>
      <point x="605" y="252"/>
      <point x="650" y="442"/>
      <point x="685" y="695" type="curve"/>
      <point x="664" y="706"/>
      <point x="645" y="710"/>
      <point x="628" y="710" type="curve"/>
      <point x="602" y="461"/>
      <point x="551" y="262"/>
      <point x="450" y="9" type="curve"/>
      <point x="469" y="8" type="line"/>
      <point x="403" y="214"/>
      <point x="379" y="359"/>
      <point x="372" y="536" type="curve"/>
      <point x="354" y="534"/>
      <point x="336" y="531"/>
      <point x="319" y="527" type="curve"/>
      <point x="301" y="354"/>
      <point x="267" y="234"/>
      <point x="187" y="6" type="curve"/>
      <point x="205" y="6" type="line"/>
      <point x="123" y="272"/>
      <point x="84" y="455"/>
      <point x="70" y="672" type="curve"/>
      <point x="44" y="670"/>
      <point x="28" y="666"/>
      <point x="12" y="660" type="curve"/>
      <point x="35" y="413"/>
      <point x="71" y="252"/>
      <point x="171" y="-62" type="curve"/>
      <point x="184" y="-61"/>
      <point x="198" y="-57"/>
      <point x="211" y="-53" type="curve"/>
      <point x="271" y="88"/>
      <point x="309" y="205"/>
      <point x="337" y="331" type="curve"/>
      <point x="354" y="220"/>
      <point x="383" y="116"/>
      <point x="432" y="-37" type="curve"/>
      <point x="450" y="-36"/>
      <point x="463" y="-34"/>
    </contour>
  </outline>
</glyph>
<glyph name="X" format="1">
  <advance width="625"/>
  <unicode hex="0058"/>
  <outline>
    <contour>
      <point x="561" y="8" type="curve"/>
      <point x="549" y="-5"/>
      <point x="534" y="-16"/>
      <point x="518" y="-24" type="curve"/>
      <point x="358" y="351"/>
      <point x="257" y="520"/>
      <point x="65" y="724" type="curve"/>
      <point x="83" y="740"/>
      <point x="101" y="753"/>
      <point x="123" y="762" type="curve"/>
      <point x="334" y="508"/>
      <point x="418" y="347"/>
    </contour>
    <contour>
      <point x="44" y="23" type="curve"/>
      <point x="30" y="32"/>
      <point x="19" y="43"/>
      <point x="12" y="55" type="curve"/>
      <point x="127" y="176"/>
      <point x="224" y="287"/>
      <point x="318" y="411" type="curve"/>
      <point x="335" y="426" type="line"/>
      <point x="404" y="520"/>
      <point x="470" y="620"/>
      <point x="533" y="737" type="curve"/>
      <point x="550" y="729"/>
      <point x="566" y="714"/>
      <point x="578" y="697" type="curve"/>
      <point x="510" y="584"/>
      <point x="439" y="482"/>
      <point x="364" y="384" type="curve"/>
      <point x="346" y="368" type="line"/>
      <point x="254" y="251"/>
      <point x="160" y="141"/>
    </contour>
  </outline>
</glyph>
<glyph name="Y" format="1">
  <advance width="552"/>
  <unicode hex="0059"/>
  <outline>
    <contour>
      <point x="-11" y="673" type="curve"/>
      <point x="28" y="497"/>
      <point x="98.7961165894" y="321.600979521"/>
      <point x="212" y="188" type="curve"/>
      <point x="318" y="329" type="line"/>
      <point x="250" y="465"/>
      <point x="209" y="575"/>
      <point x="188" y="737" type="curve"/>
      <point x="109" y="733"/>
      <point x="44" y="714"/>
    </contour>
    <contour>
      <point x="365" y="729" type="curve"/>
      <point x="317" y="429"/>
      <point x="235" y="214"/>
      <point x="91" y="-33" type="curve"/>
      <point x="126.68951406" y="-62.9331408244"/>
      <point x="197" y="-91"/>
      <point x="245" y="-103" type="curve"/>
      <point x="393" y="140"/>
      <point x="489.568839629" y="383.299996253"/>
      <point x="560" y="661" type="curve"/>
      <point x="506" y="699"/>
      <point x="443" y="719"/>
    </contour>
  </outline>
</glyph>
<glyph name="Z" format="1">
  <advance width="563"/>
  <unicode hex="005A"/>
  <outline>
    <contour>
      <point x="489" y="-34" type="curve"/>
      <point x="499" y="-12"/>
      <point x="505" y="8"/>
      <point x="506" y="28" type="curve"/>
      <point x="375" y="19"/>
      <point x="227" y="24"/>
      <point x="72" y="42" type="curve"/>
      <point x="300" y="286"/>
      <point x="435" y="461"/>
      <point x="537" y="623" type="curve"/>
      <point x="537" y="625"/>
      <point x="544" y="662"/>
      <point x="544" y="664" type="curve"/>
      <point x="392" y="686"/>
      <point x="265" y="704"/>
      <point x="106" y="737" type="curve"/>
      <point x="95" y="721"/>
      <point x="88" y="702"/>
      <point x="87" y="681" type="curve"/>
      <point x="207" y="659"/>
      <point x="333" y="642"/>
      <point x="512" y="625" type="curve"/>
      <point x="486" y="649" type="line"/>
      <point x="413" y="514"/>
      <point x="276" y="324"/>
      <point x="18" y="53" type="curve"/>
      <point x="15" y="39"/>
      <point x="14" y="23"/>
      <point x="15" y="5" type="curve"/>
      <point x="146" y="-17"/>
      <point x="316" y="-33"/>
    </contour>
  </outline>
</glyph>
<glyph name="bracketleft" format="1">
  <advance width="341"/>
  <unicode hex="005B"/>
  <outline>
    <contour>
      <point x="331" y="-131" type="curve"/>
      <point x="331" y="-118"/>
      <point x="330" y="-100"/>
      <point x="328" y="-86" type="curve"/>
      <point x="275" y="-95"/>
      <point x="215" y="-99"/>
      <point x="170" y="-99" type="curve"/>
      <point x="115" y="295"/>
      <point x="113" y="498"/>
      <point x="121" y="756" type="curve"/>
      <point x="60" y="753" type="line"/>
      <point x="59" y="452"/>
      <point x="78" y="176"/>
      <point x="125" y="-142" type="curve"/>
      <point x="202" y="-144"/>
      <point x="272" y="-140"/>
    </contour>
    <contour>
      <point x="262" y="784" type="curve"/>
      <point x="203" y="780"/>
      <point x="133" y="772"/>
      <point x="60" y="753" type="curve"/>
      <point x="110" y="721" type="line"/>
      <point x="153" y="731"/>
      <point x="212" y="736"/>
      <point x="262" y="739" type="curve"/>
      <point x="263" y="755"/>
      <point x="263" y="771"/>
    </contour>
  </outline>
</glyph>
<glyph name="bracketright" format="1">
  <advance width="312.862576285"/>
  <unicode hex="005D"/>
  <outline>
    <contour>
      <point x="10" y="793" type="curve"/>
      <point x="10" y="780"/>
      <point x="11" y="762"/>
      <point x="13" y="748" type="curve"/>
      <point x="66" y="757"/>
      <point x="121" y="762"/>
      <point x="166" y="762" type="curve"/>
      <point x="195" y="497"/>
      <point x="200" y="208"/>
      <point x="174" y="-86" type="curve"/>
      <point x="229" y="-87" type="line"/>
      <point x="247" y="206"/>
      <point x="252" y="597"/>
      <point x="216" y="804" type="curve"/>
      <point x="139" y="806"/>
      <point x="69" y="802"/>
    </contour>
    <contour>
      <point x="27" y="-114" type="curve"/>
      <point x="86" y="-110"/>
      <point x="154" y="-103"/>
      <point x="229" y="-87" type="curve"/>
      <point x="179" y="-51" type="line"/>
      <point x="143" y="-60"/>
      <point x="84" y="-66"/>
      <point x="27" y="-69" type="curve"/>
      <point x="26" y="-85"/>
      <point x="26" y="-101"/>
    </contour>
  </outline>
</glyph>
<glyph name="grave" format="1">
  <advance width="260"/>
  <unicode hex="0060"/>
  <outline>
    <contour>
      <point x="177" y="580" type="curve"/>
      <point x="155" y="643"/>
      <point x="141" y="696"/>
      <point x="136" y="751" type="curve"/>
      <point x="117" y="753"/>
      <point x="90" y="752"/>
      <point x="74" y="748" type="curve"/>
      <point x="81" y="689"/>
      <point x="102" y="632"/>
      <point x="136" y="573" type="curve"/>
      <point x="151" y="574"/>
      <point x="163" y="576"/>
    </contour>
    <contour>
      <point x="158" y="560" type="move" name="_top"/>
    </contour>
  </outline>
</glyph>
<glyph name="a" format="1">
  <advance width="553"/>
  <unicode hex="0061"/>
  <outline>
    <contour>
      <point x="117.36" y="334.0"/>
      <point x="94" y="370"/>
      <point x="74" y="427" type="curve"/>
      <point x="87" y="480"/>
      <point x="164.643153527" y="553.0"/>
      <point x="295" y="553" type="curve" smooth="yes"/>
      <point x="392.457013575" y="553.0"/>
      <point x="416.0" y="456.0"/>
      <point x="416" y="358" type="curve" smooth="yes"/>
      <point x="416" y="255"/>
      <point x="386" y="73"/>
      <point x="360" y="-37" type="curve"/>
      <point x="349.578947368" y="-37.0"/>
      <point x="339.940074793" y="-22.737323514"/>
      <point x="327" y="-20" type="curve"/>
      <point x="330" y="3"/>
      <point x="354" y="210"/>
      <point x="352" y="371" type="curve" smooth="yes"/>
      <point x="350.999501397" y="431.029916203"/>
      <point x="324.104825111" y="446.858871586"/>
      <point x="277" y="449" type="curve" smooth="yes"/>
      <point x="231.399616986" y="450.688903075"/>
      <point x="181" y="407"/>
      <point x="179" y="334" type="curve"/>
    </contour>
    <contour>
      <point x="349" y="214" type="line"/>
      <point x="235.900826446" y="214.0"/>
      <point x="188" y="193"/>
      <point x="188" y="153" type="curve" smooth="yes"/>
      <point x="188" y="116"/>
      <point x="231.867924528" y="104.0"/>
      <point x="281" y="104" type="curve" smooth="yes"/>
      <point x="303" y="104"/>
      <point x="326" y="107"/>
      <point x="345" y="111" type="curve"/>
      <point x="336" y="23" type="line"/>
      <point x="304" y="13"/>
      <point x="272" y="8"/>
      <point x="232" y="8" type="curve" smooth="yes"/>
      <point x="113.961538462" y="8.0"/>
      <point x="44" y="65"/>
      <point x="44" y="159" type="curve" smooth="yes"/>
      <point x="44" y="245"/>
      <point x="98.0995670996" y="298.0"/>
      <point x="255" y="298" type="curve" smooth="yes"/>
      <point x="314" y="298"/>
      <point x="331" y="297"/>
      <point x="349" y="295" type="curve"/>
    </contour>
  </outline>
</glyph>
<glyph name="b" format="1">
  <advance width="400"/>
  <unicode hex="0062"/>
  <outline>
    <contour>
      <point x="45.2644628099" y="-16" type="curve"/>
      <point x="63.2644628099" y="-19"/>
      <point x="76.2644628099" y="-34"/>
      <point x="94.2644628099" y="-35" type="curve"/>
      <point x="86.2644628099" y="27"/>
      <point x="88.2644628099" y="86"/>
      <point x="88.2644628099" y="204" type="curve" smooth="yes"/>
      <point x="88.2644628099" y="338"/>
      <point x="104.26446281" y="549"/>
      <point x="133.26446281" y="692" type="curve"/>
      <point x="120.26446281" y="695"/>
      <point x="111.26446281" y="696"/>
      <point x="97.2644628099" y="696" type="curve" smooth="yes"/>
      <point x="83.2644628099" y="696"/>
      <point x="72.2644628099" y="695"/>
      <point x="59.2644628099" y="691" type="curve"/>
      <point x="47.2644628099" y="599"/>
      <point x="40.2644628099" y="424"/>
      <point x="40.2644628099" y="273" type="curve" smooth="yes"/>
      <point x="40.2644628099" y="243"/>
      <point x="38.2644628099" y="94"/>
    </contour>
    <contour>
      <point x="84.2644628099" y="13" type="curve"/>
      <point x="45.2644628099" y="-16" type="line"/>
      <point x="73.2644628099" y="-45"/>
      <point x="107.26446281" y="-60"/>
      <point x="151.26446281" y="-60" type="curve" smooth="yes"/>
      <point x="282.26446281" y="-60"/>
      <point x="370.26446281" y="67"/>
      <point x="370.26446281" y="276" type="curve" smooth="yes"/>
      <point x="370.26446281" y="419"/>
      <point x="317.26446281" y="483"/>
      <point x="233.26446281" y="483" type="curve" smooth="yes"/>
      <point x="139.26446281" y="483"/>
      <point x="83.2644628099" y="412"/>
      <point x="48.2644628099" y="295" type="curve"/>
      <point x="79.2644628099" y="267" type="line"/>
      <point x="107.26446281" y="386"/>
      <point x="168.26446281" y="438"/>
      <point x="214.26446281" y="438" type="curve" smooth="yes"/>
      <point x="275.26446281" y="438"/>
      <point x="311.26446281" y="389"/>
      <point x="311.26446281" y="275" type="curve" smooth="yes"/>
      <point x="311.26446281" y="118"/>
      <point x="268.26446281" y="-15"/>
      <point x="155.26446281" y="-15" type="curve" smooth="yes"/>
      <point x="122.26446281" y="-15"/>
      <point x="103.26446281" y="-5"/>
    </contour>
  </outline>
</glyph>
<glyph name="c" format="1">
  <advance width="531"/>
  <unicode hex="0063"/>
  <outline>
    <contour>
      <point x="343" y="330" type="curve"/>
      <point x="411" y="330"/>
      <point x="469" y="337"/>
      <point x="516" y="360" type="curve"/>
      <point x="516.0" y="456.310344828"/>
      <point x="454" y="531"/>
      <point x="318" y="531" type="curve" smooth="yes"/>
      <point x="116" y="531"/>
      <point x="30" y="344"/>
      <point x="30" y="162" type="curve" smooth="yes"/>
      <point x="30" y="46"/>
      <point x="97" y="-56"/>
      <point x="251" y="-56" type="curve" smooth="yes"/>
      <point x="420" y="-56"/>
      <point x="494" y="48"/>
      <point x="505" y="83" type="curve"/>
      <point x="481" y="118"/>
      <point x="439" y="145"/>
      <point x="402" y="152" type="curve"/>
      <point x="379" y="119"/>
      <point x="337" y="55"/>
      <point x="288" y="55" type="curve" smooth="yes"/>
      <point x="251" y="55"/>
      <point x="236" y="112"/>
      <point x="236" y="179" type="curve" smooth="yes"/>
      <point x="236" y="294"/>
      <point x="267" y="434"/>
      <point x="304" y="434" type="curve" smooth="yes"/>
      <point x="334" y="434"/>
      <point x="343" y="391"/>
    </contour>
  </outline>
</glyph>
<glyph name="d" format="1">
  <advance width="599"/>
  <unicode hex="0064"/>
  <outline>
    <contour>
      <point x="414" y="457" type="curve"/>
      <point x="422" y="498" type="line"/>
      <point x="404" y="508"/>
      <point x="354.0" y="518.0"/>
      <point x="322" y="518" type="curve" smooth="yes"/>
      <point x="193" y="518"/>
      <point x="113.0" y="406.0"/>
      <point x="113" y="236" type="curve" smooth="yes"/>
      <point x="113.0" y="92.0"/>
      <point x="149.65625" y="-30.0"/>
      <point x="274" y="-30" type="curve" smooth="yes"/>
      <point x="332" y="-30"/>
      <point x="397" y="38"/>
      <point x="428" y="257" type="curve"/>
      <point x="403" y="281" type="line"/>
      <point x="381.336462703" y="78.2911867214"/>
      <point x="334.0" y="14.0"/>
      <point x="294" y="14" type="curve" smooth="yes"/>
      <point x="214.253164557" y="14.0"/>
      <point x="168.0" y="90.0"/>
      <point x="168" y="245" type="curve" smooth="yes"/>
      <point x="168.0" y="409.0"/>
      <point x="250" y="474"/>
      <point x="330" y="474" type="curve" smooth="yes"/>
      <point x="373.0" y="474.0"/>
      <point x="392" y="465"/>
    </contour>
    <contour>
      <point x="392" y="476"/>
      <point x="400" y="128"/>
      <point x="410" y="-42" type="curve"/>
      <point x="423.246753247" y="-42.0"/>
      <point x="439.570570347" y="-39.4764765509"/>
      <point x="450" y="-36" type="curve"/>
      <point x="448" y="15"/>
      <point x="447" y="53"/>
      <point x="447" y="127" type="curve" smooth="yes"/>
      <point x="447.0" y="307.0"/>
      <point x="445.023294356" y="588.314473801"/>
      <point x="455" y="723" type="curve"/>
      <point x="444.023736221" y="725.744065945"/>
      <point x="433.918918919" y="727.0"/>
      <point x="425" y="727" type="curve" smooth="yes"/>
      <point x="412.513513514" y="727.0"/>
      <point x="400" y="723"/>
      <point x="392" y="719" type="curve"/>
    </contour>
  </outline>
</glyph>
<glyph name="e" format="1">
  <advance width="545"/>
  <unicode hex="0065"/>
  <outline>
    <contour>
      <point x="168" y="262" type="line"/>
      <point x="212" y="244"/>
      <point x="260" y="236"/>
      <point x="303" y="236" type="curve" smooth="yes"/>
      <point x="376.233695652" y="236.0"/>
      <point x="441" y="243"/>
      <point x="488" y="266" type="curve"/>
      <point x="500" y="296"/>
      <point x="507" y="347"/>
      <point x="507" y="383" type="curve" smooth="yes"/>
      <point x="507" y="474"/>
      <point x="439" y="544"/>
      <point x="317" y="544" type="curve" smooth="yes"/>
      <point x="140" y="544"/>
      <point x="30" y="363"/>
      <point x="30" y="208" type="curve" smooth="yes"/>
      <point x="30" y="92"/>
      <point x="97" y="-10"/>
      <point x="251" y="-10" type="curve" smooth="yes"/>
      <point x="420.333333333" y="-10.0"/>
      <point x="494" y="94"/>
      <point x="505" y="129" type="curve"/>
      <point x="471" y="164"/>
      <point x="413.209182467" y="194.139556035"/>
      <point x="363" y="203" type="curve"/>
      <point x="352" y="167"/>
      <point x="320" y="101"/>
      <point x="288" y="101" type="curve" smooth="yes"/>
      <point x="251" y="101"/>
      <point x="236" y="158"/>
      <point x="236" y="225" type="curve" smooth="yes"/>
      <point x="236" y="324"/>
      <point x="267" y="444"/>
      <point x="309" y="444" type="curve" smooth="yes"/>
      <point x="326" y="444"/>
      <point x="331" y="426"/>
      <point x="331" y="403" type="curve" smooth="yes"/>
      <point x="331" y="381"/>
      <point x="328" y="356"/>
      <point x="322" y="335" type="curve"/>
      <point x="317" y="334"/>
      <point x="299" y="333"/>
      <point x="289" y="333" type="curve" smooth="yes"/>
      <point x="263" y="333"/>
      <point x="219" y="343"/>
      <point x="177" y="366" type="curve"/>
    </contour>
  </outline>
</glyph>
<glyph name="f" format="1">
  <advance width="474"/>
  <unicode hex="0066"/>
  <outline>
    <contour>
      <point x="264.948100933" y="1.79464220773"/>
      <point x="232" y="-21"/>
      <point x="210" y="-21" type="curve"/>
      <point x="197" y="38"/>
      <point x="171" y="236"/>
      <point x="171" y="391" type="curve" smooth="yes"/>
      <point x="171" y="618"/>
      <point x="230.267857143" y="727.0"/>
      <point x="305" y="727" type="curve" smooth="yes"/>
      <point x="417" y="727"/>
      <point x="464" y="656"/>
      <point x="464" y="584" type="curve" smooth="yes"/>
      <point x="464" y="567"/>
      <point x="461" y="549"/>
      <point x="455" y="534" type="curve"/>
      <point x="419.802816901" y="534.0"/>
      <point x="386" y="543"/>
      <point x="357" y="551" type="curve"/>
      <point x="361" y="562"/>
      <point x="362" y="573"/>
      <point x="362" y="600" type="curve" smooth="yes"/>
      <point x="362" y="665"/>
      <point x="345" y="682"/>
      <point x="313" y="682" type="curve" smooth="yes"/>
      <point x="236.857142857" y="682.0"/>
      <point x="222" y="582"/>
      <point x="222" y="448" type="curve" smooth="yes"/>
      <point x="222" y="281"/>
      <point x="275" y="51"/>
      <point x="287" y="10" type="curve"/>
    </contour>
    <contour>
      <point x="149" y="437"/>
      <point x="251.454849498" y="428.0"/>
      <point x="324" y="428" type="curve" smooth="yes"/>
      <point x="373" y="428"/>
      <point x="414" y="429"/>
      <point x="442" y="434" type="curve"/>
      <point x="442" y="419"/>
      <point x="439" y="398"/>
      <point x="437" y="386" type="curve"/>
      <point x="418" y="383"/>
      <point x="387" y="380"/>
      <point x="319" y="380" type="curve" smooth="yes"/>
      <point x="230.950819672" y="380.0"/>
      <point x="134" y="400"/>
      <point x="104" y="412" type="curve"/>
      <point x="104" y="421"/>
      <point x="110" y="437"/>
      <point x="115" y="442" type="curve"/>
    </contour>
  </outline>
</glyph>
<glyph name="g" format="1">
  <advance width="414"/>
  <unicode hex="0067"/>
  <outline>
    <contour>
      <point x="272" y="457" type="curve"/>
      <point x="327" y="486" type="line"/>
      <point x="296" y="503"/>
      <point x="258" y="513"/>
      <point x="222" y="513" type="curve" smooth="yes"/>
      <point x="116" y="513"/>
      <point x="37" y="421"/>
      <point x="37" y="257" type="curve" smooth="yes"/>
      <point x="37" y="101"/>
      <point x="98" y="4"/>
      <point x="194" y="4" type="curve" smooth="yes"/>
      <point x="255" y="4"/>
      <point x="301" y="50"/>
      <point x="333" y="198" type="curve"/>
      <point x="308" y="238" type="line"/>
      <point x="288" y="130"/>
      <point x="257" y="51"/>
      <point x="195" y="51" type="curve" smooth="yes"/>
      <point x="141" y="51"/>
      <point x="97" y="117"/>
      <point x="97" y="253" type="curve" smooth="yes"/>
      <point x="97" y="403"/>
      <point x="142" y="467"/>
      <point x="223" y="467" type="curve" smooth="yes"/>
      <point x="240" y="467"/>
      <point x="259" y="464"/>
    </contour>
    <contour>
      <point x="305" y="486"/>
      <point x="279" y="484"/>
      <point x="264" y="469" type="curve"/>
      <point x="290" y="387"/>
      <point x="305" y="302"/>
      <point x="305" y="150" type="curve" smooth="yes"/>
      <point x="305" y="-145"/>
      <point x="233" y="-202"/>
      <point x="180" y="-202" type="curve" smooth="yes"/>
      <point x="125" y="-202"/>
      <point x="94" y="-163"/>
      <point x="79" y="-62" type="curve"/>
      <point x="59" y="-68"/>
      <point x="41" y="-77"/>
      <point x="25" y="-87" type="curve"/>
      <point x="37" y="-156"/>
      <point x="86" y="-247"/>
      <point x="177" y="-247" type="curve" smooth="yes"/>
      <point x="248" y="-247"/>
      <point x="361" y="-179"/>
      <point x="361" y="169" type="curve" smooth="yes"/>
      <point x="361" y="276"/>
      <point x="346" y="403"/>
      <point x="327" y="486" type="curve"/>
    </contour>
  </outline>
</glyph>
<glyph name="h" format="1">
  <advance width="428"/>
  <unicode hex="0068"/>
  <outline>
    <contour>
      <point x="385" y="323" type="curve" smooth="yes"/>
      <point x="385" y="470"/>
      <point x="344" y="523"/>
      <point x="256" y="523" type="curve" smooth="yes"/>
      <point x="185" y="523"/>
      <point x="118" y="449"/>
      <point x="82" y="352" type="curve"/>
      <point x="91" y="258" type="line"/>
      <point x="121" y="411"/>
      <point x="199" y="476"/>
      <point x="253" y="476" type="curve" smooth="yes"/>
      <point x="310" y="476"/>
      <point x="330" y="436"/>
      <point x="330" y="322" type="curve" smooth="yes"/>
      <point x="330" y="208"/>
      <point x="302" y="81"/>
      <point x="265" y="-15" type="curve"/>
      <point x="279" y="-24"/>
      <point x="295" y="-29"/>
      <point x="311" y="-32" type="curve"/>
      <point x="332" y="16"/>
      <point x="385" y="189"/>
    </contour>
    <contour>
      <point x="64" y="27" type="curve"/>
      <point x="80" y="27"/>
      <point x="101" y="29"/>
      <point x="114" y="33" type="curve"/>
      <point x="109" y="72"/>
      <point x="97" y="223"/>
      <point x="97" y="319" type="curve" smooth="yes"/>
      <point x="97" y="458"/>
      <point x="116" y="623"/>
      <point x="142" y="747" type="curve"/>
      <point x="129" y="750"/>
      <point x="121" y="755"/>
      <point x="108" y="755" type="curve" smooth="yes"/>
      <point x="94" y="755"/>
      <point x="83" y="750"/>
      <point x="71" y="744" type="curve"/>
      <point x="60" y="675"/>
      <point x="49" y="491"/>
      <point x="49" y="378" type="curve" smooth="yes"/>
      <point x="49" y="278"/>
      <point x="54" y="160"/>
    </contour>
  </outline>
</glyph>
<glyph name="i" format="1">
  <advance width="331"/>
  <unicode hex="0069"/>
  <outline>
    <contour>
      <point x="159" y="531"/>
      <point x="122" y="520"/>
      <point x="93" y="505" type="curve"/>
      <point x="71" y="410"/>
      <point x="55" y="228"/>
      <point x="55" y="84" type="curve" smooth="yes"/>
      <point x="55" y="51"/>
      <point x="55" y="19"/>
      <point x="58" y="-7" type="curve"/>
      <point x="75" y="-12"/>
      <point x="90" y="-14"/>
      <point x="118" y="-14" type="curve" smooth="yes"/>
      <point x="166" y="-14"/>
      <point x="201" y="-6"/>
      <point x="225" y="5" type="curve"/>
      <point x="245" y="244"/>
      <point x="281" y="439"/>
      <point x="312" y="519" type="curve"/>
      <point x="283" y="526"/>
      <point x="249" y="531"/>
      <point x="222" y="531" type="curve" smooth="yes"/>
    </contour>
    <contour>
      <point x="319" y="644"/>
      <point x="336" y="708"/>
      <point x="348" y="737" type="curve"/>
      <point x="328" y="747"/>
      <point x="293" y="756"/>
      <point x="248" y="756" type="curve" smooth="yes"/>
      <point x="202" y="756"/>
      <point x="164" y="748"/>
      <point x="133" y="731" type="curve"/>
      <point x="128" y="715"/>
      <point x="127" y="697"/>
      <point x="127" y="681" type="curve" smooth="yes"/>
      <point x="127" y="649"/>
      <point x="133" y="619"/>
      <point x="141" y="594" type="curve"/>
      <point x="219.110380247" y="592.944454321"/>
      <point x="270.899228625" y="596.622938471"/>
      <point x="312" y="604" type="curve"/>
    </contour>
  </outline>
</glyph>
<glyph name="j" format="1">
  <advance width="209"/>
  <unicode hex="006A"/>
  <outline>
    <contour>
      <point x="11" y="-224" type="curve" smooth="yes"/>
      <point x="-42" y="-224"/>
      <point x="-74" y="-202"/>
      <point x="-110" y="-157" type="curve"/>
      <point x="-102" y="-139"/>
      <point x="-91" y="-122"/>
      <point x="-79" y="-110" type="curve"/>
      <point x="-54" y="-154"/>
      <point x="-23" y="-179"/>
      <point x="6" y="-179" type="curve" smooth="yes"/>
      <point x="69" y="-179"/>
      <point x="104" y="-109"/>
      <point x="104" y="44" type="curve" smooth="yes"/>
      <point x="104" y="183"/>
      <point x="73" y="343"/>
      <point x="19" y="505" type="curve"/>
      <point x="39" y="511"/>
      <point x="58" y="516"/>
      <point x="84" y="519" type="curve"/>
      <point x="132" y="341"/>
      <point x="159" y="179"/>
      <point x="159" y="70" type="curve" smooth="yes"/>
      <point x="159" y="-138"/>
      <point x="101" y="-224"/>
    </contour>
    <contour>
      <point x="54" y="627" type="curve"/>
      <point x="60" y="667"/>
      <point x="72" y="708"/>
      <point x="83" y="737" type="curve"/>
      <point x="70" y="743"/>
      <point x="61" y="744"/>
      <point x="48" y="745" type="curve" smooth="yes"/>
      <point x="35" y="745"/>
      <point x="26" y="743"/>
      <point x="15" y="738" type="curve"/>
      <point x="7" y="714"/>
      <point x="5" y="687"/>
      <point x="7" y="659" type="curve" smooth="yes"/>
      <point x="8" y="647"/>
      <point x="10" y="634"/>
      <point x="12" y="622" type="curve"/>
      <point x="28" y="623"/>
      <point x="44" y="625"/>
    </contour>
  </outline>
</glyph>
<glyph name="k" format="1">
  <advance width="414"/>
  <unicode hex="006B"/>
  <outline>
    <contour>
      <point x="130" y="731" type="curve"/>
      <point x="115" y="735"/>
      <point x="97" y="736"/>
      <point x="71" y="732" type="curve"/>
      <point x="50" y="587"/>
      <point x="41" y="445"/>
      <point x="41" y="306" type="curve" smooth="yes"/>
      <point x="41" y="185"/>
      <point x="47" y="96"/>
      <point x="60" y="-49" type="curve"/>
      <point x="73" y="-49"/>
      <point x="94" y="-46"/>
      <point x="108" y="-44" type="curve"/>
      <point x="95" y="63"/>
      <point x="90" y="157"/>
      <point x="90" y="244" type="curve" smooth="yes"/>
      <point x="90" y="415"/>
      <point x="104" y="561"/>
    </contour>
    <contour>
      <point x="329" y="579" type="curve"/>
      <point x="240" y="437"/>
      <point x="183" y="380"/>
      <point x="56" y="274" type="curve"/>
      <point x="73" y="239" type="line"/>
      <point x="235" y="366"/>
      <point x="284" y="425"/>
      <point x="365" y="551" type="curve"/>
      <point x="354" y="563"/>
      <point x="343" y="571"/>
    </contour>
    <contour>
      <point x="140" y="341" type="curve"/>
      <point x="110" y="304" type="line"/>
      <point x="211" y="165"/>
      <point x="264" y="109"/>
      <point x="359" y="37" type="curve"/>
      <point x="375" y="49"/>
      <point x="385" y="64"/>
      <point x="393" y="78" type="curve"/>
      <point x="269" y="163"/>
      <point x="215" y="223"/>
    </contour>
  </outline>
</glyph>
<glyph name="l" format="1">
  <advance width="160"/>
  <unicode hex="006C"/>
  <outline>
    <contour>
      <point x="39" y="466"/>
      <point x="41" y="232"/>
      <point x="57" y="-61" type="curve"/>
      <point x="70" y="-61"/>
      <point x="97" y="-58"/>
      <point x="107" y="-55" type="curve"/>
      <point x="93" y="223"/>
      <point x="93" y="533"/>
      <point x="104" y="738" type="curve"/>
      <point x="93" y="741"/>
      <point x="83" y="742"/>
      <point x="74" y="742" type="curve" smooth="yes"/>
      <point x="62" y="742"/>
      <point x="49" y="738"/>
      <point x="41" y="734" type="curve"/>
    </contour>
  </outline>
</glyph>
<glyph name="m" format="1">
  <advance width="872"/>
  <unicode hex="006D"/>
  <outline>
    <contour>
      <point x="503" y="58"/>
      <point x="530" y="217"/>
      <point x="530" y="343" type="curve" smooth="yes"/>
      <point x="530.0" y="483.805"/>
      <point x="476" y="532"/>
      <point x="406" y="532" type="curve" smooth="yes"/>
      <point x="314" y="532"/>
      <point x="251.878013592" y="469.264901599"/>
      <point x="217" y="375" type="curve"/>
      <point x="236" y="267" type="line"/>
      <point x="252.497742625" y="339.4067593"/>
      <point x="281" y="381"/>
      <point x="307" y="381" type="curve" smooth="yes"/>
      <point x="331" y="381"/>
      <point x="340" y="361"/>
      <point x="340" y="326" type="curve" smooth="yes"/>
      <point x="340" y="242"/>
      <point x="318.481137298" y="110.094368871"/>
      <point x="304" y="29" type="curve"/>
      <point x="369.268879825" y="18.4417988519"/>
      <point x="432.474226804" y="10.0"/>
      <point x="490" y="10" type="curve"/>
    </contour>
    <contour>
      <point x="30" y="381"/>
      <point x="59.3279293786" y="124.956520833"/>
      <point x="76" y="2" type="curve"/>
      <point x="131" y="2"/>
      <point x="204" y="11"/>
      <point x="241" y="22" type="curve"/>
      <point x="240" y="51"/>
      <point x="241.0" y="72.9090909091"/>
      <point x="241" y="99" type="curve" smooth="yes"/>
      <point x="241.0" y="253.333333333"/>
      <point x="245" y="472"/>
      <point x="258" y="562" type="curve"/>
      <point x="230" y="568"/>
      <point x="204" y="570"/>
      <point x="181" y="570" type="curve" smooth="yes"/>
      <point x="124" y="570"/>
      <point x="62" y="560"/>
      <point x="30" y="544" type="curve"/>
    </contour>
    <contour>
      <point x="779" y="20"/>
      <point x="822.0" y="226.162162162"/>
      <point x="822" y="390" type="curve" smooth="yes"/>
      <point x="822" y="539"/>
      <point x="765" y="590"/>
      <point x="690" y="590" type="curve" smooth="yes"/>
      <point x="589.238095238" y="590.0"/>
      <point x="520" y="525"/>
      <point x="483" y="425" type="curve"/>
      <point x="520" y="314" type="line"/>
      <point x="538" y="393"/>
      <point x="565" y="439"/>
      <point x="591" y="439" type="curve" smooth="yes"/>
      <point x="615" y="439"/>
      <point x="624" y="419"/>
      <point x="624" y="384" type="curve" smooth="yes"/>
      <point x="624.0" y="269.035714286"/>
      <point x="586" y="91"/>
      <point x="561" y="-23" type="curve"/>
      <point x="632" y="-39"/>
      <point x="699.835051546" y="-43.0"/>
      <point x="762" y="-43" type="curve"/>
    </contour>
  </outline>
</glyph>
<glyph name="n" format="1">
  <advance width="598"/>
  <unicode hex="006E"/>
  <outline>
    <contour>
      <point x="521" y="58"/>
      <point x="548" y="217"/>
      <point x="548" y="343" type="curve" smooth="yes"/>
      <point x="548" y="492"/>
      <point x="487" y="543"/>
      <point x="406" y="543" type="curve" smooth="yes"/>
      <point x="299.427807487" y="543.0"/>
      <point x="224.755611641" y="477.042193624"/>
      <point x="187" y="375" type="curve"/>
      <point x="206" y="267" type="line"/>
      <point x="224.376782289" y="348.674587952"/>
      <point x="275.888888889" y="392.0"/>
      <point x="317" y="392" type="curve" smooth="yes"/>
      <point x="341" y="392"/>
      <point x="350" y="372"/>
      <point x="350" y="337" type="curve" smooth="yes"/>
      <point x="350" y="250"/>
      <point x="329" y="113"/>
      <point x="314" y="29" type="curve"/>
      <point x="382" y="18"/>
      <point x="447.573770492" y="10.0"/>
      <point x="508" y="10" type="curve"/>
    </contour>
    <contour>
      <point x="81" y="355"/>
      <point x="102" y="86"/>
      <point x="119" y="-42" type="curve"/>
      <point x="154" y="-42"/>
      <point x="189.35854422" y="-29.325838205"/>
      <point x="214" y="-22" type="curve"/>
      <point x="212" y="24"/>
      <point x="211" y="58"/>
      <point x="211" y="99" type="curve" smooth="yes"/>
      <point x="211" y="247"/>
      <point x="226" y="456"/>
      <point x="239" y="543" type="curve"/>
      <point x="221.28856811" y="546.795306834"/>
      <point x="206.038961039" y="551.0"/>
      <point x="192" y="551" type="curve" smooth="yes"/>
      <point x="146.324503311" y="551.0"/>
      <point x="108" y="539"/>
      <point x="81" y="525" type="curve"/>
    </contour>
  </outline>
</glyph>
<glyph name="o" format="1">
  <advance width="559"/>
  <unicode hex="006F"/>
  <outline>
    <contour>
      <point x="323" y="553" type="curve" smooth="yes"/>
      <point x="146" y="553"/>
      <point x="30" y="416"/>
      <point x="30" y="233" type="curve" smooth="yes"/>
      <point x="30" y="110"/>
      <point x="85" y="-10"/>
      <point x="234" y="-10" type="curve" smooth="yes"/>
      <point x="461" y="-10"/>
      <point x="529" y="215"/>
      <point x="529" y="342" type="curve" smooth="yes"/>
      <point x="529" y="479"/>
      <point x="452" y="553"/>
    </contour>
    <contour>
      <point x="280" y="433" type="curve" smooth="yes"/>
      <point x="306" y="433"/>
      <point x="320" y="392"/>
      <point x="320" y="287" type="curve" smooth="yes"/>
      <point x="320" y="215"/>
      <point x="311" y="110"/>
      <point x="277" y="110" type="curve" smooth="yes"/>
      <point x="247" y="110"/>
      <point x="235" y="195"/>
      <point x="235" y="261" type="curve" smooth="yes"/>
      <point x="235" y="364"/>
      <point x="254" y="433"/>
    </contour>
  </outline>
</glyph>
<glyph name="p" format="1">
  <advance width="569"/>
  <unicode hex="0070"/>
  <outline>
    <contour>
      <point x="204" y="156" type="curve"/>
      <point x="79" y="64" type="line"/>
      <point x="120" y="42"/>
      <point x="176" y="10"/>
      <point x="274" y="10" type="curve" smooth="yes"/>
      <point x="424" y="10"/>
      <point x="549" y="138"/>
      <point x="549" y="369" type="curve" smooth="yes"/>
      <point x="549" y="488"/>
      <point x="495" y="563"/>
      <point x="401" y="563" type="curve" smooth="yes"/>
      <point x="294" y="563"/>
      <point x="230" y="461"/>
      <point x="195" y="347" type="curve"/>
      <point x="240" y="313" type="line"/>
      <point x="256" y="394"/>
      <point x="279" y="421"/>
      <point x="307" y="421" type="curve" smooth="yes"/>
      <point x="328" y="421"/>
      <point x="340" y="396"/>
      <point x="340" y="348" type="curve" smooth="yes"/>
      <point x="340" y="201"/>
      <point x="303" y="118"/>
      <point x="267" y="118" type="curve" smooth="yes"/>
      <point x="240" y="118"/>
      <point x="222" y="137"/>
    </contour>
    <contour>
      <point x="95.0" y="-233.0" type="curve"/>
      <point x="150.0" y="-233.0"/>
      <point x="223.0" y="-224.0"/>
      <point x="260.0" y="-213.0" type="curve"/>
      <point x="249.0" y="-103.0"/>
      <point x="241.0" y="-7.0"/>
      <point x="241.0" y="99.0" type="curve" smooth="yes"/>
      <point x="241.0" y="256.0"/>
      <point x="249" y="457"/>
      <point x="277" y="560" type="curve"/>
      <point x="251" y="566"/>
      <point x="235" y="568"/>
      <point x="213" y="568" type="curve" smooth="yes"/>
      <point x="158" y="568"/>
      <point x="98" y="558"/>
      <point x="67" y="542" type="curve"/>
      <point x="61" y="484"/>
      <point x="58" y="426"/>
      <point x="58" y="343" type="curve" smooth="yes"/>
      <point x="58" y="132"/>
      <point x="77.0" y="-102.0"/>
    </contour>
  </outline>
</glyph>
<glyph name="q" format="1">
  <advance width="599"/>
  <unicode hex="0071"/>
  <outline>
    <contour>
      <point x="375" y="392" type="curve"/>
      <point x="387" y="498" type="line"/>
      <point x="376" y="504"/>
      <point x="343" y="509"/>
      <point x="322" y="509" type="curve" smooth="yes"/>
      <point x="154" y="509"/>
      <point x="50" y="385"/>
      <point x="50" y="196" type="curve" smooth="yes"/>
      <point x="50" y="63"/>
      <point x="101" y="-50"/>
      <point x="234" y="-50" type="curve" smooth="yes"/>
      <point x="311" y="-50"/>
      <point x="368" y="35"/>
      <point x="403" y="152" type="curve"/>
      <point x="358" y="195" type="line"/>
      <point x="341" y="114"/>
      <point x="322" y="89"/>
      <point x="301" y="89" type="curve" smooth="yes"/>
      <point x="272" y="89"/>
      <point x="255" y="136"/>
      <point x="255" y="230" type="curve" smooth="yes"/>
      <point x="255" y="352"/>
      <point x="294" y="400"/>
      <point x="339" y="400" type="curve" smooth="yes"/>
      <point x="354" y="400"/>
      <point x="364" y="396"/>
    </contour>
    <contour>
      <point x="470.930232558" y="561.0"/>
      <point x="462.0" y="558.0"/>
      <point x="452" y="553" type="curve"/>
      <point x="426" y="443"/>
      <point x="407" y="235"/>
      <point x="407" y="95" type="curve" smooth="yes"/>
      <point x="407.0" y="-56.0"/>
      <point x="413.945614908" y="-210.510534168"/>
      <point x="417" y="-238" type="curve"/>
      <point x="424" y="-240"/>
      <point x="427" y="-241"/>
      <point x="434" y="-241" type="curve" smooth="yes"/>
      <point x="439" y="-241"/>
      <point x="445" y="-240"/>
      <point x="449" y="-238" type="curve"/>
      <point x="449.0" y="82.0"/>
      <point x="464.269555877" y="361.94344557"/>
      <point x="520" y="557" type="curve"/>
      <point x="510" y="560"/>
      <point x="498.3" y="561.0"/>
      <point x="489" y="561" type="curve" smooth="yes"/>
    </contour>
  </outline>
</glyph>
<glyph name="r" format="1">
  <advance width="537"/>
  <unicode hex="0072"/>
  <outline>
    <contour>
      <point x="107.109489051" y="533.0"/>
      <point x="64" y="526"/>
      <point x="32" y="510" type="curve"/>
      <point x="32" y="348"/>
      <point x="73" y="124"/>
      <point x="117" y="-16" type="curve"/>
      <point x="134" y="-21"/>
      <point x="149" y="-23"/>
      <point x="177" y="-23" type="curve" smooth="yes"/>
      <point x="232" y="-23"/>
      <point x="271.962785978" y="-13.661967623"/>
      <point x="300" y="-1" type="curve"/>
      <point x="247" y="217"/>
      <point x="236.918354893" y="430.422203855"/>
      <point x="250" y="523" type="curve"/>
      <point x="227" y="529"/>
      <point x="200" y="533"/>
      <point x="179" y="533" type="curve" smooth="yes"/>
    </contour>
    <contour>
      <point x="527" y="375" type="curve"/>
      <point x="527" y="524"/>
      <point x="463" y="575"/>
      <point x="392" y="575" type="curve" smooth="yes"/>
      <point x="295" y="575"/>
      <point x="208" y="449"/>
      <point x="193" y="237" type="curve"/>
      <point x="260" y="175" type="line"/>
      <point x="260" y="364"/>
      <point x="295.081081081" y="426.0"/>
      <point x="319" y="426" type="curve" smooth="yes"/>
      <point x="341.068965517" y="426.0"/>
      <point x="351" y="397"/>
      <point x="351" y="345" type="curve"/>
      <point x="416" y="345"/>
      <point x="484" y="357"/>
    </contour>
  </outline>
</glyph>
<glyph name="s" format="1">
  <advance width="339"/>
  <unicode hex="0073"/>
  <outline>
    <contour>
      <point x="261" y="104" type="curve" smooth="yes"/>
      <point x="261" y="45"/>
      <point x="230" y="4"/>
      <point x="177" y="4" type="curve" smooth="yes"/>
      <point x="110" y="4"/>
      <point x="72" y="60"/>
      <point x="75" y="155" type="curve"/>
      <point x="54" y="156"/>
      <point x="38" y="153"/>
      <point x="23" y="149" type="curve"/>
      <point x="23" y="31"/>
      <point x="88" y="-40"/>
      <point x="175" y="-40" type="curve" smooth="yes"/>
      <point x="259" y="-40"/>
      <point x="316" y="27"/>
      <point x="316" y="115" type="curve" smooth="yes"/>
      <point x="316" y="276"/>
      <point x="97" y="283"/>
      <point x="97" y="433" type="curve" smooth="yes"/>
      <point x="97" y="485"/>
      <point x="125" y="513"/>
      <point x="167" y="513" type="curve" smooth="yes"/>
      <point x="219" y="513"/>
      <point x="245" y="476"/>
      <point x="256" y="396" type="curve"/>
      <point x="271" y="398"/>
      <point x="286" y="402"/>
      <point x="301" y="408" type="curve"/>
      <point x="285" y="503"/>
      <point x="251" y="557"/>
      <point x="169" y="557" type="curve" smooth="yes"/>
      <point x="86" y="557"/>
      <point x="42" y="504"/>
      <point x="42" y="427" type="curve" smooth="yes"/>
      <point x="42" y="256"/>
      <point x="261" y="248"/>
    </contour>
  </outline>
</glyph>
<glyph name="t" format="1">
  <advance width="340"/>
  <unicode hex="0074"/>
  <outline>
    <contour>
      <point x="193" y="11" type="curve" smooth="yes"/>
      <point x="258" y="11"/>
      <point x="299" y="78"/>
      <point x="303" y="191" type="curve"/>
      <point x="290" y="198"/>
      <point x="273" y="202"/>
      <point x="258" y="203" type="curve"/>
      <point x="256" y="98"/>
      <point x="237" y="56"/>
      <point x="198" y="56" type="curve" smooth="yes"/>
      <point x="153.0" y="56.0"/>
      <point x="131.0" y="141.727272727"/>
      <point x="131" y="286" type="curve" smooth="yes"/>
      <point x="131.0" y="405.850746269"/>
      <point x="149.052792649" y="532.030376953"/>
      <point x="187" y="651" type="curve"/>
      <point x="167" y="657"/>
      <point x="151" y="661"/>
      <point x="128" y="663" type="curve"/>
      <point x="94.1302442076" y="525.468264358"/>
      <point x="81.0" y="413.674556213"/>
      <point x="81" y="295" type="curve" smooth="yes"/>
      <point x="81.0" y="115.686131387"/>
      <point x="112.0" y="11.0"/>
    </contour>
    <contour>
      <point x="28" y="541" type="curve"/>
      <point x="23" y="528"/>
      <point x="19" y="514"/>
      <point x="18" y="499" type="curve"/>
      <point x="96" y="484"/>
      <point x="190" y="481"/>
      <point x="300" y="491" type="curve"/>
      <point x="304" y="504"/>
      <point x="307" y="518"/>
      <point x="307" y="531" type="curve"/>
      <point x="193" y="521"/>
      <point x="110" y="524"/>
    </contour>
  </outline>
</glyph>
<glyph name="u" format="1">
  <advance width="549"/>
  <unicode hex="0075"/>
  <outline>
    <contour>
      <point x="62" y="500"/>
      <point x="30.0" y="382.744360902"/>
      <point x="30" y="265" type="curve" smooth="yes"/>
      <point x="30" y="128"/>
      <point x="77" y="-10"/>
      <point x="246" y="-10" type="curve" smooth="yes"/>
      <point x="473" y="-10"/>
      <point x="519" y="203"/>
      <point x="519" y="382" type="curve" smooth="yes"/>
      <point x="519" y="433"/>
      <point x="516" y="485"/>
      <point x="509" y="519" type="curve"/>
      <point x="451.544600939" y="519.0"/>
      <point x="357" y="506"/>
      <point x="298" y="481" type="curve"/>
      <point x="302" y="463"/>
      <point x="310.0" y="393.264044944"/>
      <point x="310" y="320" type="curve" smooth="yes"/>
      <point x="310.0" y="217.625"/>
      <point x="303.0" y="110.0"/>
      <point x="277" y="110" type="curve" smooth="yes"/>
      <point x="247.0" y="110.0"/>
      <point x="235.0" y="198.4"/>
      <point x="235" y="305" type="curve" smooth="yes"/>
      <point x="235.0" y="375.728888889"/>
      <point x="242" y="453"/>
      <point x="254" y="523" type="curve"/>
      <point x="239" y="532"/>
      <point x="210" y="538"/>
      <point x="166" y="538" type="curve" smooth="yes"/>
      <point x="131" y="538"/>
      <point x="96.2571701177" y="531.064292529"/>
      <point x="76" y="526" type="curve"/>
    </contour>
  </outline>
</glyph>
<glyph name="v" format="1">
  <advance width="405"/>
  <unicode hex="0076"/>
  <outline>
    <contour>
      <point x="197" y="12" type="curve"/>
      <point x="295" y="210"/>
      <point x="330" y="313"/>
      <point x="377" y="510" type="curve"/>
      <point x="362" y="519"/>
      <point x="344" y="527"/>
      <point x="325" y="530" type="curve"/>
      <point x="308" y="404"/>
      <point x="261" y="251"/>
      <point x="189" y="91" type="curve"/>
      <point x="142" y="321"/>
      <point x="106" y="442"/>
      <point x="61" y="565" type="curve"/>
      <point x="40" y="563"/>
      <point x="20" y="556"/>
      <point x="3" y="546" type="curve"/>
      <point x="70" y="385"/>
      <point x="119" y="209"/>
      <point x="157" y="10" type="curve"/>
      <point x="170" y="10"/>
      <point x="187" y="9"/>
    </contour>
  </outline>
</glyph>
<glyph name="w" format="1">
  <advance width="617"/>
  <unicode hex="0077"/>
  <outline>
    <contour>
      <point x="305" y="461" type="curve"/>
      <point x="345" y="355"/>
      <point x="386" y="199"/>
      <point x="409" y="13" type="curve"/>
      <point x="391" y="18" type="line"/>
      <point x="478" y="210"/>
      <point x="523" y="372"/>
      <point x="540" y="492" type="curve"/>
      <point x="559" y="489"/>
      <point x="579" y="479"/>
      <point x="594" y="470" type="curve"/>
      <point x="547" y="273"/>
      <point x="512" y="170"/>
      <point x="414" y="-28" type="curve"/>
      <point x="404" y="-31"/>
      <point x="384" y="-35"/>
      <point x="371" y="-35" type="curve"/>
      <point x="343" y="153"/>
      <point x="314" y="275"/>
      <point x="267" y="406" type="curve"/>
      <point x="304" y="408" type="line"/>
      <point x="269" y="261"/>
      <point x="243" y="171"/>
      <point x="176" y="19" type="curve"/>
      <point x="166" y="16"/>
      <point x="147" y="11"/>
      <point x="129" y="10" type="curve"/>
      <point x="59" y="195"/>
      <point x="25" y="348"/>
      <point x="8" y="536" type="curve"/>
      <point x="23" y="543"/>
      <point x="39" y="546"/>
      <point x="58" y="547" type="curve"/>
      <point x="80" y="311"/>
      <point x="116" y="175"/>
      <point x="167" y="39" type="curve"/>
      <point x="135" y="35" type="line"/>
      <point x="202" y="175"/>
      <point x="237" y="299"/>
      <point x="261" y="454" type="curve"/>
      <point x="273" y="458"/>
      <point x="287" y="461"/>
    </contour>
  </outline>
</glyph>
<glyph name="x" format="1">
  <advance width="455"/>
  <unicode hex="0078"/>
  <outline>
    <contour>
      <point x="432" y="2" type="curve"/>
      <point x="339" y="215"/>
      <point x="252" y="365"/>
      <point x="129" y="552" type="curve"/>
      <point x="107" y="544"/>
      <point x="87" y="532"/>
      <point x="67" y="518" type="curve"/>
      <point x="187" y="370"/>
      <point x="300" y="185"/>
      <point x="389" y="-23" type="curve"/>
      <point x="402" y="-19"/>
      <point x="419" y="-8"/>
    </contour>
    <contour>
      <point x="432" y="500" type="curve"/>
      <point x="417" y="517"/>
      <point x="411" y="529"/>
      <point x="391" y="543" type="curve"/>
      <point x="347" y="466"/>
      <point x="298" y="390"/>
      <point x="245" y="318" type="curve"/>
      <point x="230" y="304" type="line"/>
      <point x="156" y="206"/>
      <point x="76" y="116"/>
      <point x="-7" y="37" type="curve"/>
      <point x="2" y="25"/>
      <point x="13" y="14"/>
      <point x="27" y="5" type="curve"/>
      <point x="120" y="98"/>
      <point x="190" y="176"/>
      <point x="257" y="263" type="curve"/>
      <point x="273" y="277" type="line"/>
      <point x="323" y="343"/>
      <point x="373" y="413"/>
    </contour>
  </outline>
</glyph>
<glyph name="y" format="1">
  <advance width="398"/>
  <unicode hex="0079"/>
  <outline>
    <contour>
      <point x="8" y="474" type="curve"/>
      <point x="41" y="303"/>
      <point x="81" y="205"/>
      <point x="175" y="52" type="curve"/>
      <point x="201" y="96" type="line"/>
      <point x="126" y="220"/>
      <point x="89" y="328"/>
      <point x="65" y="491" type="curve"/>
      <point x="44" y="488"/>
      <point x="27" y="481"/>
    </contour>
    <contour>
      <point x="320" y="531" type="curve"/>
      <point x="237" y="237"/>
      <point x="184" y="109"/>
      <point x="16" y="-187" type="curve"/>
      <point x="29" y="-195"/>
      <point x="37" y="-201"/>
      <point x="54" y="-206" type="curve"/>
      <point x="232" y="98"/>
      <point x="284" y="233"/>
      <point x="375" y="508" type="curve"/>
      <point x="355" y="517"/>
      <point x="340" y="526"/>
    </contour>
  </outline>
</glyph>
<glyph name="z" format="1">
  <advance width="406"/>
  <unicode hex="007A"/>
  <outline>
    <contour>
      <point x="344" y="-14" type="curve"/>
      <point x="351" y="3"/>
      <point x="358" y="18"/>
      <point x="359" y="37" type="curve"/>
      <point x="232" y="32"/>
      <point x="149" y="40"/>
      <point x="57" y="54" type="curve"/>
      <point x="172" y="209"/>
      <point x="254" y="308"/>
      <point x="377" y="438" type="curve"/>
      <point x="383" y="478" type="line"/>
      <point x="264" y="512"/>
      <point x="194" y="526"/>
      <point x="71" y="537" type="curve"/>
      <point x="65" y="519"/>
      <point x="63" y="512"/>
      <point x="60" y="489" type="curve"/>
      <point x="165" y="479"/>
      <point x="225" y="471"/>
      <point x="327" y="450" type="curve"/>
      <point x="208" y="325"/>
      <point x="117" y="210"/>
      <point x="10" y="63" type="curve"/>
      <point x="8" y="50"/>
      <point x="8" y="38"/>
      <point x="9" y="21" type="curve"/>
      <point x="102" y="0"/>
      <point x="189" y="-13"/>
    </contour>
  </outline>
</glyph>
<glyph name="braceleft" format="1">
  <advance width="285"/>
  <unicode hex="007B"/>
  <outline>
    <contour>
      <point x="97" y="333" type="curve"/>
      <point x="92" y="324" type="line"/>
      <point x="162" y="335"/>
      <point x="199" y="383"/>
      <point x="199" y="447" type="curve" smooth="yes"/>
      <point x="199" y="541"/>
      <point x="111" y="594"/>
      <point x="111" y="688" type="curve" smooth="yes"/>
      <point x="111" y="737"/>
      <point x="136" y="768"/>
      <point x="175" y="768" type="curve" smooth="yes"/>
      <point x="196" y="768"/>
      <point x="207" y="765"/>
      <point x="223" y="757" type="curve"/>
      <point x="232" y="770"/>
      <point x="236" y="785"/>
      <point x="235" y="800" type="curve"/>
      <point x="219" y="809"/>
      <point x="202" y="813"/>
      <point x="171" y="813" type="curve" smooth="yes"/>
      <point x="102" y="813"/>
      <point x="56" y="760"/>
      <point x="56" y="688" type="curve" smooth="yes"/>
      <point x="56" y="643"/>
      <point x="68" y="609"/>
      <point x="98" y="559" type="curve" smooth="yes"/>
      <point x="129" y="507"/>
      <point x="149" y="480"/>
      <point x="149" y="442" type="curve" smooth="yes"/>
      <point x="149" y="394"/>
      <point x="122" y="364"/>
      <point x="80" y="364" type="curve" smooth="yes"/>
      <point x="66" y="364"/>
      <point x="57" y="365"/>
      <point x="43" y="369" type="curve"/>
      <point x="39" y="351"/>
      <point x="38" y="316"/>
      <point x="44" y="288" type="curve"/>
      <point x="58" y="291"/>
      <point x="71" y="292"/>
      <point x="85" y="292" type="curve" smooth="yes"/>
      <point x="124" y="292"/>
      <point x="154" y="260"/>
      <point x="154" y="215" type="curve" smooth="yes"/>
      <point x="154" y="177"/>
      <point x="134" y="142"/>
      <point x="103" y="90" type="curve" smooth="yes"/>
      <point x="73" y="40"/>
      <point x="61" y="6"/>
      <point x="61" y="-39" type="curve" smooth="yes"/>
      <point x="61" y="-111"/>
      <point x="107" y="-164"/>
      <point x="176" y="-164" type="curve" smooth="yes"/>
      <point x="207" y="-164"/>
      <point x="223" y="-160"/>
      <point x="240" y="-151" type="curve"/>
      <point x="239" y="-134"/>
      <point x="235" y="-119"/>
      <point x="228" y="-108" type="curve"/>
      <point x="212" y="-116"/>
      <point x="201" y="-119"/>
      <point x="180" y="-119" type="curve" smooth="yes"/>
      <point x="141" y="-119"/>
      <point x="116" y="-88"/>
      <point x="116" y="-39" type="curve" smooth="yes"/>
      <point x="116" y="55"/>
      <point x="204" y="116"/>
      <point x="204" y="210" type="curve" smooth="yes"/>
      <point x="204" y="278"/>
      <point x="168" y="325"/>
    </contour>
  </outline>
</glyph>
<glyph name="bar" format="1">
  <advance width="264"/>
  <unicode hex="007C"/>
  <outline>
    <contour>
      <point x="99" y="426"/>
      <point x="105" y="103"/>
      <point x="120" y="-171" type="curve"/>
      <point x="133" y="-171"/>
      <point x="158" y="-168"/>
      <point x="168" y="-165" type="curve"/>
      <point x="158" y="41"/>
      <point x="149" y="460"/>
      <point x="163" y="725" type="curve"/>
      <point x="137" y="727"/>
      <point x="114.0" y="721.0"/>
      <point x="100" y="714" type="curve"/>
    </contour>
  </outline>
</glyph>
<glyph name="braceright" format="1">
  <advance width="310.287253677"/>
  <unicode hex="007D"/>
  <outline>
    <contour>
      <point x="193" y="317" type="curve"/>
      <point x="198" y="326" type="line"/>
      <point x="128" y="317"/>
      <point x="90" y="269"/>
      <point x="89" y="205" type="curve" smooth="yes"/>
      <point x="87" y="111"/>
      <point x="174" y="57"/>
      <point x="172" y="-37" type="curve" smooth="yes"/>
      <point x="171" y="-86"/>
      <point x="145" y="-117"/>
      <point x="106" y="-116" type="curve" smooth="yes"/>
      <point x="85" y="-116"/>
      <point x="74" y="-112"/>
      <point x="58" y="-104" type="curve"/>
      <point x="49" y="-116"/>
      <point x="44" y="-131"/>
      <point x="45" y="-147" type="curve"/>
      <point x="61" y="-156"/>
      <point x="78" y="-160"/>
      <point x="109" y="-161" type="curve" smooth="yes"/>
      <point x="178" y="-163"/>
      <point x="225" y="-111"/>
      <point x="227" y="-39" type="curve" smooth="yes"/>
      <point x="228" y="6"/>
      <point x="216" y="41"/>
      <point x="187" y="91" type="curve" smooth="yes"/>
      <point x="157" y="144"/>
      <point x="138" y="171"/>
      <point x="139" y="209" type="curve" smooth="yes"/>
      <point x="140" y="257"/>
      <point x="167" y="287"/>
      <point x="209" y="286" type="curve" smooth="yes"/>
      <point x="223" y="286"/>
      <point x="232" y="284"/>
      <point x="246" y="280" type="curve"/>
      <point x="251" y="298"/>
      <point x="252" y="333"/>
      <point x="247" y="361" type="curve"/>
      <point x="233" y="358"/>
      <point x="220" y="358"/>
      <point x="206" y="358" type="curve" smooth="yes"/>
      <point x="167" y="359"/>
      <point x="138" y="391"/>
      <point x="139" y="436" type="curve" smooth="yes"/>
      <point x="139" y="474"/>
      <point x="160" y="510"/>
      <point x="192" y="561" type="curve" smooth="yes"/>
      <point x="223" y="611"/>
      <point x="236" y="644"/>
      <point x="237" y="689" type="curve" smooth="yes"/>
      <point x="239" y="761"/>
      <point x="194" y="815"/>
      <point x="125" y="817" type="curve" smooth="yes"/>
      <point x="94" y="818"/>
      <point x="78" y="814"/>
      <point x="61" y="805" type="curve"/>
      <point x="61" y="790"/>
      <point x="64" y="775"/>
      <point x="72" y="762" type="curve"/>
      <point x="88" y="770"/>
      <point x="99" y="772"/>
      <point x="120" y="772" type="curve" smooth="yes"/>
      <point x="159" y="771"/>
      <point x="183" y="740"/>
      <point x="182" y="691" type="curve" smooth="yes"/>
      <point x="180" y="597"/>
      <point x="91" y="538"/>
      <point x="89" y="443" type="curve" smooth="yes"/>
      <point x="87" y="375"/>
      <point x="122" y="327"/>
    </contour>
  </outline>
</glyph>
<glyph name="exclamdown" format="1">
  <advance width="199"/>
  <unicode hex="00A1"/>
  <outline>
    <contour>
      <point x="129" y="-160"/>
      <point x="129" y="-134"/>
      <point x="129" y="-117" type="curve" smooth="yes"/>
      <point x="129" y="18"/>
      <point x="127" y="146"/>
      <point x="116" y="350" type="curve"/>
      <point x="109" y="352"/>
      <point x="102" y="353"/>
      <point x="92" y="353" type="curve" smooth="yes"/>
      <point x="84" y="353"/>
      <point x="79" y="352"/>
      <point x="75" y="351" type="curve"/>
      <point x="80" y="176"/>
      <point x="80" y="-5"/>
      <point x="65" y="-183" type="curve"/>
      <point x="73" y="-184"/>
      <point x="79" y="-185"/>
      <point x="90" y="-185" type="curve" smooth="yes"/>
      <point x="104" y="-185"/>
      <point x="114" y="-182"/>
      <point x="128" y="-176" type="curve"/>
    </contour>
    <contour>
      <point x="118" y="508"/>
      <point x="118" y="529"/>
      <point x="117" y="551" type="curve"/>
      <point x="108" y="552"/>
      <point x="100" y="553"/>
      <point x="91" y="553" type="curve" smooth="yes"/>
      <point x="81" y="553"/>
      <point x="71" y="552"/>
      <point x="60" y="550" type="curve"/>
      <point x="61" y="526"/>
      <point x="61" y="511"/>
      <point x="63" y="488" type="curve"/>
      <point x="81" y="486"/>
      <point x="96" y="486"/>
      <point x="117" y="488" type="curve"/>
    </contour>
  </outline>
</glyph>
<glyph name="sterling" format="1">
  <advance width="404"/>
  <unicode hex="00A3"/>
  <outline>
    <contour>
      <point x="353" y="283" type="curve" smooth="yes"/>
      <point x="354" y="289"/>
      <point x="354" y="295"/>
      <point x="354" y="301" type="curve"/>
      <point x="235" y="283"/>
      <point x="111" y="276"/>
      <point x="28" y="286" type="curve"/>
      <point x="23" y="273"/>
      <point x="26" y="259"/>
      <point x="28" y="244" type="curve"/>
      <point x="104" y="238"/>
      <point x="239" y="245"/>
      <point x="349" y="261" type="curve"/>
      <point x="351" y="268"/>
      <point x="352" y="276"/>
    </contour>
    <contour>
      <point x="211" y="168" type="curve" smooth="yes"/>
      <point x="211" y="285"/>
      <point x="96" y="327"/>
      <point x="96" y="480" type="curve" smooth="yes"/>
      <point x="96" y="571"/>
      <point x="140" y="629"/>
      <point x="211" y="629" type="curve" smooth="yes"/>
      <point x="282" y="629"/>
      <point x="322" y="576"/>
      <point x="316" y="440" type="curve"/>
      <point x="367" y="436" type="line"/>
      <point x="373" y="591"/>
      <point x="321" y="673"/>
      <point x="212" y="673" type="curve" smooth="yes"/>
      <point x="107" y="673"/>
      <point x="41" y="585"/>
      <point x="41" y="478" type="curve" smooth="yes"/>
      <point x="41" y="374"/>
      <point x="101" y="303"/>
      <point x="130" y="262" type="curve" smooth="yes"/>
      <point x="156" y="225"/>
      <point x="167" y="203"/>
      <point x="167" y="162" type="curve" smooth="yes"/>
      <point x="167" y="113"/>
      <point x="145" y="74"/>
      <point x="77" y="39" type="curve"/>
      <point x="112" y="22" type="line"/>
      <point x="167" y="55"/>
      <point x="211" y="99"/>
    </contour>
    <contour>
      <point x="59" y="-4" type="curve"/>
      <point x="87" y="8"/>
      <point x="111" y="15"/>
      <point x="136" y="15" type="curve" smooth="yes"/>
      <point x="199" y="15"/>
      <point x="267" y="-10"/>
      <point x="413" y="6" type="curve"/>
      <point x="416" y="33"/>
      <point x="414" y="46"/>
      <point x="405" y="65" type="curve"/>
      <point x="349" y="53"/>
      <point x="278" y="46"/>
      <point x="244" y="46" type="curve"/>
      <point x="191" y="46"/>
      <point x="166" y="55"/>
      <point x="134" y="55" type="curve" smooth="yes"/>
      <point x="109" y="55"/>
      <point x="77" y="46"/>
      <point x="43" y="30" type="curve"/>
      <point x="45" y="18"/>
      <point x="50" y="7"/>
    </contour>
  </outline>
</glyph>
<glyph name="currency" format="1">
  <advance width="566"/>
  <unicode hex="00A4"/>
  <outline>
    <contour>
      <point x="300" y="590" type="curve"/>
      <point x="196" y="590"/>
      <point x="114" y="503"/>
      <point x="114" y="343" type="curve" smooth="yes"/>
      <point x="114" y="220"/>
      <point x="176" y="123"/>
      <point x="275" y="123" type="curve" smooth="yes"/>
      <point x="385" y="123"/>
      <point x="454" y="234"/>
      <point x="454" y="398" type="curve" smooth="yes"/>
      <point x="454" y="520"/>
      <point x="387" y="590"/>
    </contour>
    <contour>
      <point x="295" y="551" type="curve" smooth="yes"/>
      <point x="368" y="551"/>
      <point x="404" y="484"/>
      <point x="404" y="373" type="curve" smooth="yes"/>
      <point x="404" y="260"/>
      <point x="351" y="162"/>
      <point x="281" y="162" type="curve" smooth="yes"/>
      <point x="213" y="162"/>
      <point x="164" y="241"/>
      <point x="164" y="351" type="curve" smooth="yes"/>
      <point x="164" y="468"/>
      <point x="215" y="551"/>
    </contour>
    <contour>
      <point x="412" y="473" type="line"/>
      <point x="455" y="534"/>
      <point x="494" y="578"/>
      <point x="541" y="620" type="curve"/>
      <point x="526" y="637"/>
      <point x="515" y="646"/>
      <point x="503" y="650" type="curve"/>
      <point x="465" y="615"/>
      <point x="428" y="570"/>
      <point x="393" y="518" type="curve"/>
    </contour>
    <contour>
      <point x="175" y="201" type="curve"/>
      <point x="152" y="245" type="line"/>
      <point x="109" y="184"/>
      <point x="67" y="140"/>
      <point x="20" y="98" type="curve"/>
      <point x="35" y="81"/>
      <point x="50" y="73"/>
      <point x="62" y="69" type="curve"/>
      <point x="100" y="104"/>
      <point x="140" y="149"/>
    </contour>
    <contour>
      <point x="501" y="94" type="curve"/>
      <point x="520" y="107"/>
      <point x="530" y="117"/>
      <point x="536" y="128" type="curve"/>
      <point x="505" y="170"/>
      <point x="465" y="212"/>
      <point x="418" y="253" type="curve"/>
      <point x="390" y="221" type="line"/>
      <point x="445" y="171"/>
      <point x="465" y="145"/>
    </contour>
    <contour>
      <point x="209" y="522" type="line"/>
      <point x="153" y="572"/>
      <point x="127" y="606"/>
      <point x="91" y="658" type="curve"/>
      <point x="73" y="645"/>
      <point x="63" y="631"/>
      <point x="58" y="619" type="curve"/>
      <point x="88" y="577"/>
      <point x="128" y="532"/>
      <point x="175" y="492" type="curve"/>
    </contour>
  </outline>
</glyph>
<glyph name="yen" format="1">
  <advance width="456"/>
  <unicode hex="00A5"/>
  <outline>
    <contour>
      <point x="186" y="-47" type="curve"/>
      <point x="199" y="-47"/>
      <point x="214" y="-46"/>
      <point x="231" y="-43" type="curve"/>
      <point x="248" y="113"/>
      <point x="246" y="217"/>
      <point x="244" y="324" type="curve"/>
      <point x="193" y="317" type="line"/>
      <point x="199" y="193"/>
      <point x="197" y="103"/>
    </contour>
    <contour>
      <point x="397" y="187" type="curve" smooth="yes"/>
      <point x="398" y="194"/>
      <point x="399" y="200"/>
      <point x="399" y="207" type="curve"/>
      <point x="255" y="193"/>
      <point x="179" y="192"/>
      <point x="57" y="206" type="curve"/>
      <point x="53" y="193"/>
      <point x="53" y="179"/>
      <point x="53" y="164" type="curve"/>
      <point x="179" y="151"/>
      <point x="260" y="154"/>
      <point x="392" y="167" type="curve"/>
      <point x="394" y="173"/>
      <point x="396" y="180"/>
    </contour>
    <contour>
      <point x="240" y="281" type="line"/>
      <point x="288" y="282"/>
      <point x="337" y="286"/>
      <point x="397" y="292" type="curve"/>
      <point x="399" y="299"/>
      <point x="401" y="306"/>
      <point x="402" y="313" type="curve" smooth="yes"/>
      <point x="403" y="319"/>
      <point x="404" y="326"/>
      <point x="404" y="332" type="curve"/>
      <point x="338" y="326"/>
      <point x="287" y="322"/>
      <point x="238" y="321" type="curve"/>
    </contour>
    <contour>
      <point x="58" y="289" type="curve"/>
      <point x="111" y="284"/>
      <point x="156" y="281"/>
      <point x="200" y="281" type="curve"/>
      <point x="199" y="321" type="line"/>
      <point x="156" y="322"/>
      <point x="113" y="325"/>
      <point x="62" y="331" type="curve"/>
      <point x="58" y="318"/>
      <point x="58" y="304"/>
    </contour>
    <contour>
      <point x="207" y="249" type="curve"/>
      <point x="234" y="286" type="line"/>
      <point x="169" y="477"/>
      <point x="129" y="556"/>
      <point x="65" y="666" type="curve"/>
      <point x="56" y="662"/>
      <point x="47" y="658"/>
      <point x="40" y="654" type="curve" smooth="yes"/>
      <point x="33" y="650"/>
      <point x="27" y="646"/>
      <point x="22" y="641" type="curve"/>
      <point x="91" y="532"/>
      <point x="144" y="433"/>
    </contour>
    <contour>
      <point x="384" y="678" type="curve"/>
      <point x="339" y="538"/>
      <point x="294" y="441"/>
      <point x="202" y="294" type="curve"/>
      <point x="239" y="283" type="line"/>
      <point x="347" y="455"/>
      <point x="392" y="550"/>
      <point x="426" y="661" type="curve"/>
      <point x="410" y="671"/>
      <point x="400" y="677"/>
    </contour>
  </outline>
</glyph>
<glyph name="section" format="1">
  <advance width="347"/>
  <unicode hex="00A7"/>
  <outline>
    <contour>
      <point x="255" y="232" type="curve" smooth="yes"/>
      <point x="255" y="176"/>
      <point x="216" y="145"/>
      <point x="158" y="136" type="curve"/>
      <point x="175" y="96" type="line"/>
      <point x="261" y="118"/>
      <point x="307" y="169"/>
      <point x="307" y="239" type="curve" smooth="yes"/>
      <point x="307" y="319"/>
      <point x="251" y="362"/>
      <point x="194" y="401" type="curve" smooth="yes"/>
      <point x="123" y="449"/>
      <point x="100" y="486"/>
      <point x="100" y="545" type="curve" smooth="yes"/>
      <point x="100" y="601"/>
      <point x="129" y="632"/>
      <point x="177" y="632" type="curve" smooth="yes"/>
      <point x="229" y="632"/>
      <point x="256" y="595"/>
      <point x="267" y="515" type="curve"/>
      <point x="283" y="515"/>
      <point x="298" y="519"/>
      <point x="312" y="527" type="curve"/>
      <point x="295" y="633"/>
      <point x="250" y="676"/>
      <point x="174" y="676" type="curve" smooth="yes"/>
      <point x="100" y="676"/>
      <point x="45" y="614"/>
      <point x="45" y="536" type="curve" smooth="yes"/>
      <point x="45" y="464"/>
      <point x="78" y="415"/>
      <point x="155" y="365" type="curve" smooth="yes"/>
      <point x="239" y="310"/>
      <point x="255" y="275"/>
    </contour>
    <contour>
      <point x="82" y="265" type="curve" smooth="yes"/>
      <point x="82" y="321"/>
      <point x="121" y="352"/>
      <point x="179" y="361" type="curve"/>
      <point x="162" y="401" type="line"/>
      <point x="76" y="379"/>
      <point x="30" y="328"/>
      <point x="30" y="258" type="curve" smooth="yes"/>
      <point x="30" y="178"/>
      <point x="86" y="135"/>
      <point x="143" y="96" type="curve" smooth="yes"/>
      <point x="219.681887016" y="43.8563168294"/>
      <point x="247.0" y="7.05479452055"/>
      <point x="247" y="-55" type="curve" smooth="yes"/>
      <point x="247.0" y="-104.011494253"/>
      <point x="218.0" y="-137.0"/>
      <point x="173" y="-137" type="curve" smooth="yes"/>
      <point x="119" y="-137"/>
      <point x="91" y="-100"/>
      <point x="80" y="-20" type="curve"/>
      <point x="64" y="-20"/>
      <point x="49" y="-24"/>
      <point x="35" y="-32" type="curve"/>
      <point x="52" y="-138"/>
      <point x="98" y="-181"/>
      <point x="176" y="-181" type="curve" smooth="yes"/>
      <point x="250.0" y="-181.0"/>
      <point x="302.0" y="-115.428571429"/>
      <point x="302" y="-46" type="curve" smooth="yes"/>
      <point x="302.0" y="29.1098265896"/>
      <point x="264.445405631" y="78.0542407599"/>
      <point x="182" y="132" type="curve" smooth="yes"/>
      <point x="98" y="187"/>
      <point x="82" y="222"/>
    </contour>
  </outline>
</glyph>
<glyph name="copyright" format="1">
  <advance width="725"/>
  <unicode hex="00A9"/>
  <outline>
    <contour>
      <point x="481" y="281" type="curve"/>
      <point x="470" y="287"/>
      <point x="456" y="289"/>
      <point x="440" y="288" type="curve"/>
      <point x="443" y="227"/>
      <point x="417" y="187"/>
      <point x="370" y="187" type="curve" smooth="yes"/>
      <point x="319" y="187"/>
      <point x="291" y="237"/>
      <point x="291" y="329" type="curve" smooth="yes"/>
      <point x="291" y="441"/>
      <point x="337" y="503"/>
      <point x="381" y="503" type="curve"/>
      <point x="420" y="503"/>
      <point x="437" y="476"/>
      <point x="433" y="407" type="curve"/>
      <point x="454" y="407"/>
      <point x="469" y="410"/>
      <point x="482" y="418" type="curve"/>
      <point x="483" y="497"/>
      <point x="453" y="539"/>
      <point x="390" y="539" type="curve"/>
      <point x="298" y="539"/>
      <point x="237" y="446"/>
      <point x="237" y="318" type="curve" smooth="yes"/>
      <point x="237" y="207"/>
      <point x="285" y="150"/>
      <point x="361" y="150" type="curve" smooth="yes"/>
      <point x="436" y="150"/>
      <point x="477" y="198"/>
    </contour>
    <contour>
      <point x="625" y="347" type="curve" smooth="yes"/>
      <point x="625" y="151"/>
      <point x="534" y="36"/>
      <point x="363" y="36" type="curve" smooth="yes"/>
      <point x="200" y="36"/>
      <point x="100" y="151"/>
      <point x="100" y="335" type="curve" smooth="yes"/>
      <point x="100" y="515"/>
      <point x="226" y="654"/>
      <point x="378" y="654" type="curve" smooth="yes"/>
      <point x="544" y="654"/>
      <point x="625" y="527"/>
    </contour>
    <contour>
      <point x="680" y="345" type="curve" smooth="yes"/>
      <point x="680" y="541"/>
      <point x="595" y="698"/>
      <point x="390" y="698" type="curve" smooth="yes"/>
      <point x="184" y="698"/>
      <point x="45" y="556"/>
      <point x="45" y="322" type="curve" smooth="yes"/>
      <point x="45" y="120"/>
      <point x="175" y="-8"/>
      <point x="355" y="-8" type="curve" smooth="yes"/>
      <point x="553" y="-8"/>
      <point x="680" y="123"/>
    </contour>
  </outline>
</glyph>
<glyph name="ordfeminine" format="1">
  <advance width="237"/>
  <unicode hex="00AA"/>
  <outline>
    <contour>
      <point x="178" y="431" type="curve"/>
      <point x="165" y="431"/>
      <point x="150" y="434"/>
      <point x="137" y="438" type="curve"/>
      <point x="156" y="522"/>
      <point x="161" y="556"/>
      <point x="161" y="623" type="curve" smooth="yes"/>
      <point x="161" y="682"/>
      <point x="148" y="706"/>
      <point x="118" y="706" type="curve" smooth="yes"/>
      <point x="88" y="706"/>
      <point x="65" y="676"/>
      <point x="64" y="632" type="curve"/>
      <point x="41" y="634"/>
      <point x="26" y="642"/>
      <point x="19" y="656" type="curve"/>
      <point x="27" y="699"/>
      <point x="69" y="739"/>
      <point x="124" y="739" type="curve" smooth="yes"/>
      <point x="194" y="739"/>
      <point x="211" y="686"/>
      <point x="211" y="633" type="curve" smooth="yes"/>
      <point x="211" y="581"/>
      <point x="194" y="489"/>
    </contour>
    <contour>
      <point x="166" y="571" type="line"/>
      <point x="78" y="577"/>
      <point x="56" y="552"/>
      <point x="56" y="524" type="curve" smooth="yes"/>
      <point x="56" y="499"/>
      <point x="74" y="484"/>
      <point x="100" y="484" type="curve" smooth="yes"/>
      <point x="124" y="484"/>
      <point x="145" y="493"/>
      <point x="161" y="509" type="curve"/>
      <point x="158" y="482" type="line"/>
      <point x="144" y="465"/>
      <point x="119" y="454"/>
      <point x="89" y="454" type="curve" smooth="yes"/>
      <point x="39" y="454"/>
      <point x="5" y="482"/>
      <point x="5" y="526" type="curve" smooth="yes"/>
      <point x="5" y="570"/>
      <point x="41" y="598"/>
      <point x="122" y="598" type="curve" smooth="yes"/>
      <point x="143" y="598"/>
      <point x="154" y="597"/>
      <point x="167" y="596" type="curve"/>
    </contour>
  </outline>
</glyph>
<glyph name="guillemotleft" format="1">
  <advance width="448"/>
  <unicode hex="00AB"/>
  <outline>
    <contour>
      <point x="184" y="70" type="curve"/>
      <point x="199" y="80"/>
      <point x="208" y="91"/>
      <point x="221" y="109" type="curve"/>
      <point x="141" y="163"/>
      <point x="84" y="223"/>
      <point x="52" y="277" type="curve"/>
      <point x="10" y="264" type="line"/>
      <point x="52" y="190"/>
      <point x="107" y="128"/>
    </contour>
    <contour>
      <point x="217" y="396" type="curve"/>
      <point x="207" y="411"/>
      <point x="196" y="420"/>
      <point x="178" y="433" type="curve"/>
      <point x="124" y="353"/>
      <point x="64" y="296"/>
      <point x="10" y="264" type="curve"/>
      <point x="41" y="233" type="line"/>
      <point x="107" y="273"/>
      <point x="164" y="325"/>
    </contour>
    <contour>
      <point x="381" y="70" type="curve"/>
      <point x="396" y="80"/>
      <point x="405" y="91"/>
      <point x="418" y="109" type="curve"/>
      <point x="338" y="163"/>
      <point x="281" y="223"/>
      <point x="249" y="277" type="curve"/>
      <point x="207" y="264" type="line"/>
      <point x="249" y="190"/>
      <point x="304" y="128"/>
    </contour>
    <contour>
      <point x="414" y="396" type="curve"/>
      <point x="404" y="411"/>
      <point x="393" y="420"/>
      <point x="375" y="433" type="curve"/>
      <point x="321" y="353"/>
      <point x="261" y="296"/>
      <point x="207" y="264" type="curve"/>
      <point x="238" y="233" type="line"/>
      <point x="304" y="273"/>
      <point x="361" y="325"/>
    </contour>
  </outline>
</glyph>
<glyph name="logicalnot" format="1">
  <advance width="340.622776602"/>
  <unicode hex="00AC"/>
  <outline>
    <contour>
      <point x="30" y="401" type="curve"/>
      <point x="27" y="388"/>
      <point x="25" y="376"/>
      <point x="25" y="359" type="curve"/>
      <point x="120" y="348"/>
      <point x="217" y="348"/>
      <point x="308" y="359" type="curve"/>
      <point x="306" y="372"/>
      <point x="307" y="386"/>
      <point x="312" y="399" type="curve"/>
      <point x="188" y="389"/>
      <point x="113" y="391"/>
    </contour>
    <contour>
      <point x="268" y="242" type="curve"/>
      <point x="281" y="239"/>
      <point x="293" y="237"/>
      <point x="310" y="237" type="curve"/>
      <point x="316" y="292"/>
      <point x="318" y="346"/>
      <point x="312" y="399" type="curve"/>
      <point x="299" y="395"/>
      <point x="283" y="393"/>
      <point x="270" y="393" type="curve"/>
      <point x="276" y="338"/>
      <point x="276" y="302"/>
    </contour>
  </outline>
</glyph>
<glyph name="registered" format="1">
  <advance width="725"/>
  <unicode hex="00AE"/>
  <outline>
    <contour>
      <point x="625" y="151"/>
      <point x="534" y="36"/>
      <point x="363" y="36" type="curve" smooth="yes"/>
      <point x="200" y="36"/>
      <point x="100" y="151"/>
      <point x="100" y="335" type="curve" smooth="yes"/>
      <point x="100" y="515"/>
      <point x="226" y="654"/>
      <point x="378" y="654" type="curve" smooth="yes"/>
      <point x="544" y="654"/>
      <point x="625" y="527"/>
      <point x="625" y="347" type="curve" smooth="yes"/>
    </contour>
    <contour>
      <point x="553" y="-8"/>
      <point x="680" y="123"/>
      <point x="680" y="345" type="curve" smooth="yes"/>
      <point x="680" y="541"/>
      <point x="595" y="698"/>
      <point x="390" y="698" type="curve" smooth="yes"/>
      <point x="184" y="698"/>
      <point x="45" y="556"/>
      <point x="45" y="322" type="curve" smooth="yes"/>
      <point x="45" y="120"/>
      <point x="175" y="-8"/>
      <point x="355" y="-8" type="curve" smooth="yes"/>
    </contour>
    <contour>
      <point x="301" y="146" type="curve"/>
      <point x="308" y="218"/>
      <point x="311" y="290"/>
      <point x="311" y="360" type="curve" smooth="yes"/>
      <point x="311" y="411"/>
      <point x="309" y="458"/>
      <point x="304" y="521" type="curve"/>
      <point x="295" y="523"/>
      <point x="260" y="525"/>
      <point x="249" y="523" type="curve"/>
      <point x="260" y="422"/>
      <point x="262" y="364"/>
      <point x="262" y="263" type="curve" smooth="yes"/>
      <point x="262" y="221"/>
      <point x="261" y="190"/>
      <point x="258" y="149" type="curve"/>
      <point x="270" y="146"/>
      <point x="289" y="145"/>
    </contour>
    <contour>
      <point x="305" y="295" type="line"/>
      <point x="424" y="326"/>
      <point x="483" y="379"/>
      <point x="483" y="457" type="curve" smooth="yes"/>
      <point x="483" y="516"/>
      <point x="442" y="560"/>
      <point x="364" y="560" type="curve" smooth="yes"/>
      <point x="324" y="560"/>
      <point x="280" y="546"/>
      <point x="249" y="523" type="curve"/>
      <point x="250" y="516"/>
      <point x="265" y="495"/>
      <point x="267" y="487" type="curve"/>
      <point x="291" y="509"/>
      <point x="324" y="526"/>
      <point x="359" y="526" type="curve" smooth="yes"/>
      <point x="404" y="526"/>
      <point x="431" y="499"/>
      <point x="431" y="449" type="curve" smooth="yes"/>
      <point x="431" y="387"/>
      <point x="389" y="349"/>
      <point x="298" y="329" type="curve"/>
    </contour>
    <contour>
      <point x="511" y="155" type="curve"/>
      <point x="468" y="248"/>
      <point x="430" y="309"/>
      <point x="394" y="347" type="curve"/>
      <point x="357" y="328" type="line"/>
      <point x="401" y="269"/>
      <point x="427" y="218"/>
      <point x="465" y="132" type="curve"/>
      <point x="482" y="136"/>
      <point x="502" y="146"/>
    </contour>
  </outline>
</glyph>
<glyph name="macron" format="1">
  <advance width="260.090169944"/>
  <unicode hex="00AF"/>
  <outline>
    <contour>
      <point x="36" y="683"/>
      <point x="35" y="663"/>
      <point x="36" y="649" type="curve"/>
      <point x="74" y="637"/>
      <point x="134" y="632"/>
      <point x="222" y="641" type="curve"/>
      <point x="224" y="658"/>
      <point x="225" y="673"/>
      <point x="223" y="692" type="curve"/>
      <point x="167" y="685"/>
      <point x="100" y="686"/>
      <point x="39" y="698" type="curve"/>
    </contour>
    <contour>
      <point x="127" y="560" type="move" name="_top"/>
    </contour>
  </outline>
</glyph>
<glyph name="degree" format="1">
  <advance width="239"/>
  <unicode hex="00B0"/>
  <outline>
    <contour>
      <point x="128" y="740" type="curve" smooth="yes"/>
      <point x="54" y="740"/>
      <point x="10" y="694"/>
      <point x="10" y="629" type="curve" smooth="yes"/>
      <point x="10" y="568"/>
      <point x="50" y="523"/>
      <point x="114" y="523" type="curve" smooth="yes"/>
      <point x="186" y="523"/>
      <point x="229" y="572"/>
      <point x="229" y="648" type="curve" smooth="yes"/>
      <point x="229" y="701"/>
      <point x="192" y="740"/>
    </contour>
    <contour>
      <point x="123" y="702" type="curve" smooth="yes"/>
      <point x="150" y="702"/>
      <point x="179" y="686"/>
      <point x="179" y="639" type="curve" smooth="yes"/>
      <point x="179" y="591"/>
      <point x="149" y="564"/>
      <point x="117" y="564" type="curve" smooth="yes"/>
      <point x="81" y="564"/>
      <point x="56" y="588"/>
      <point x="56" y="628" type="curve" smooth="yes"/>
      <point x="56" y="671"/>
      <point x="84" y="702"/>
    </contour>
  </outline>
</glyph>
<glyph name="plusminus" format="1">
  <advance width="340"/>
  <unicode hex="00B1"/>
  <outline>
    <contour>
      <point x="26" y="164" type="curve"/>
      <point x="23" y="151"/>
      <point x="21" y="139"/>
      <point x="21" y="122" type="curve"/>
      <point x="116" y="111"/>
      <point x="213" y="111"/>
      <point x="304" y="122" type="curve"/>
      <point x="307" y="135"/>
      <point x="308" y="149"/>
      <point x="308" y="162" type="curve"/>
      <point x="184" y="152"/>
      <point x="109" y="154"/>
    </contour>
    <component base="plus" xOffset="-5"/>
  </outline>
</glyph>
<glyph name="twosuperior" format="1">
  <advance width="254"/>
  <unicode hex="00B2"/>
  <outline>
    <contour>
      <point x="243" y="609" type="curve" smooth="yes"/>
      <point x="243" y="674"/>
      <point x="200" y="717"/>
      <point x="137" y="717" type="curve" smooth="yes"/>
      <point x="82" y="717"/>
      <point x="33" y="681"/>
      <point x="14" y="596" type="curve"/>
      <point x="30" y="589"/>
      <point x="46" y="586"/>
      <point x="63" y="586" type="curve"/>
      <point x="75" y="650"/>
      <point x="102" y="682"/>
      <point x="136" y="682" type="curve" smooth="yes"/>
      <point x="171" y="682"/>
      <point x="190" y="654"/>
      <point x="190" y="615" type="curve" smooth="yes"/>
      <point x="190" y="534"/>
      <point x="143" y="465"/>
      <point x="3" y="364" type="curve"/>
      <point x="-1" y="353"/>
      <point x="-3" y="339"/>
      <point x="-4" y="328" type="curve"/>
      <point x="57" y="311"/>
      <point x="135" y="301"/>
      <point x="233" y="294" type="curve"/>
      <point x="239" y="308"/>
      <point x="243" y="322"/>
      <point x="244" y="338" type="curve"/>
      <point x="158" y="339"/>
      <point x="105" y="344"/>
      <point x="38" y="354" type="curve"/>
      <point x="36" y="340" type="line"/>
      <point x="173" y="435"/>
      <point x="243" y="527"/>
    </contour>
  </outline>
</glyph>
<glyph name="acute" format="1">
  <advance width="260"/>
  <unicode hex="00B4"/>
  <outline>
    <contour>
      <point x="113" y="571" type="curve"/>
      <point x="147" y="630"/>
      <point x="168" y="687"/>
      <point x="175" y="746" type="curve"/>
      <point x="159" y="750"/>
      <point x="132" y="751"/>
      <point x="113" y="749" type="curve"/>
      <point x="108" y="694"/>
      <point x="94" y="641"/>
      <point x="72" y="578" type="curve"/>
      <point x="86" y="574"/>
      <point x="98" y="572"/>
    </contour>
    <contour>
      <point x="88.0" y="560.0" type="move" name="_top"/>
    </contour>
  </outline>
</glyph>
<glyph name="uni00B5" format="1">
  <advance width="421"/>
  <unicode hex="00B5"/>
  <outline>
    <contour>
      <point x="332" y="-5" type="curve" smooth="yes"/>
      <point x="345" y="-5"/>
      <point x="358" y="-2"/>
      <point x="368" y="3" type="curve"/>
      <point x="368" y="169"/>
      <point x="361" y="428"/>
      <point x="354" y="557" type="curve"/>
      <point x="338" y="557"/>
      <point x="314" y="554"/>
      <point x="301" y="549" type="curve"/>
      <point x="321" y="394"/>
      <point x="315" y="125"/>
      <point x="305" y="-2" type="curve"/>
      <point x="317" y="-4"/>
      <point x="322" y="-5"/>
    </contour>
    <contour>
      <point x="63" y="121" type="line"/>
      <point x="72" y="39"/>
      <point x="104" y="-1"/>
      <point x="159" y="-1" type="curve" smooth="yes"/>
      <point x="216" y="-1"/>
      <point x="277" y="41"/>
      <point x="335" y="167" type="curve"/>
      <point x="317" y="206" type="line"/>
      <point x="279" y="101"/>
      <point x="221" y="50"/>
      <point x="171" y="50" type="curve" smooth="yes"/>
      <point x="119" y="50"/>
      <point x="99" y="89"/>
      <point x="99" y="180" type="curve" smooth="yes"/>
      <point x="99" y="286"/>
      <point x="112" y="384"/>
      <point x="133" y="498" type="curve"/>
      <point x="122" y="504"/>
      <point x="99" y="509"/>
      <point x="83" y="510" type="curve"/>
      <point x="72" y="468"/>
      <point x="49" y="336"/>
      <point x="44" y="212" type="curve" smooth="yes"/>
      <point x="38" y="83"/>
      <point x="38" y="-21"/>
      <point x="38" y="-187" type="curve"/>
      <point x="48" y="-192"/>
      <point x="61" y="-195"/>
      <point x="74" y="-195" type="curve" smooth="yes"/>
      <point x="84" y="-195"/>
      <point x="94" y="-195"/>
      <point x="106" y="-193" type="curve"/>
      <point x="89" y="-98"/>
      <point x="77" y="53"/>
      <point x="77" y="169" type="curve"/>
    </contour>
  </outline>
</glyph>
<glyph name="paragraph" format="1">
  <advance width="626.277669544"/>
  <unicode hex="00B6"/>
  <outline>
    <contour>
      <point x="527" y="-297" type="line"/>
      <point x="561" y="124"/>
      <point x="561" y="342"/>
      <point x="549" y="699" type="curve"/>
      <point x="450" y="728"/>
      <point x="385" y="743"/>
      <point x="285" y="743" type="curve" smooth="yes"/>
      <point x="111" y="743"/>
      <point x="30" y="661"/>
      <point x="30" y="547" type="curve" smooth="yes"/>
      <point x="30" y="402"/>
      <point x="163" y="311"/>
      <point x="404" y="238" type="curve"/>
      <point x="403" y="77"/>
      <point x="397" y="-46"/>
      <point x="381" y="-298" type="curve"/>
      <point x="427" y="-297" type="line"/>
      <point x="463" y="150"/>
      <point x="461" y="321"/>
      <point x="450" y="681" type="curve"/>
      <point x="465" y="677"/>
      <point x="480" y="673"/>
      <point x="494" y="668" type="curve"/>
      <point x="513" y="296"/>
      <point x="512" y="183"/>
      <point x="481" y="-298" type="curve"/>
    </contour>
  </outline>
</glyph>
<glyph name="cedilla" format="1">
  <advance width="261"/>
  <unicode hex="00B8"/>
  <outline>
    <contour>
      <point x="121" y="-225" type="curve" smooth="yes"/>
      <point x="184" y="-225"/>
      <point x="224" y="-186"/>
      <point x="224" y="-132" type="curve" smooth="yes"/>
      <point x="224" y="-86"/>
      <point x="194" y="-55"/>
      <point x="143" y="-55" type="curve" smooth="yes"/>
      <point x="119" y="-55"/>
      <point x="96" y="-63"/>
      <point x="72" y="-78" type="curve"/>
      <point x="104" y="-87" type="line"/>
      <point x="128" y="-55"/>
      <point x="138" y="-28"/>
      <point x="141" y="-1" type="curve"/>
      <point x="94" y="9" type="line"/>
      <point x="90" y="-22"/>
      <point x="79" y="-48"/>
      <point x="61" y="-75" type="curve"/>
      <point x="66" y="-83"/>
      <point x="79" y="-95"/>
      <point x="88" y="-102" type="curve"/>
      <point x="100" y="-95"/>
      <point x="110" y="-92"/>
      <point x="125" y="-92" type="curve" smooth="yes"/>
      <point x="151" y="-92"/>
      <point x="171" y="-111"/>
      <point x="171" y="-135" type="curve" smooth="yes"/>
      <point x="171" y="-165"/>
      <point x="151" y="-182"/>
      <point x="119" y="-182" type="curve" smooth="yes"/>
      <point x="90" y="-182"/>
      <point x="68" y="-161"/>
      <point x="58" y="-130" type="curve"/>
      <point x="42" y="-136"/>
      <point x="33" y="-142"/>
      <point x="20" y="-151" type="curve"/>
      <point x="38" y="-200"/>
      <point x="71" y="-225"/>
    </contour>
    <contour>
      <point x="114.0" y="0.0" type="move" name="_bottom"/>
    </contour>
  </outline>
</glyph>
<glyph name="ordmasculine" format="1">
  <advance width="222"/>
  <unicode hex="00BA"/>
  <outline>
    <contour>
      <point x="125" y="737" type="curve" smooth="yes"/>
      <point x="55" y="737"/>
      <point x="5" y="673"/>
      <point x="5" y="579" type="curve" smooth="yes"/>
      <point x="5" y="507"/>
      <point x="37" y="445"/>
      <point x="100" y="445" type="curve" smooth="yes"/>
      <point x="178" y="445"/>
      <point x="217" y="531"/>
      <point x="217" y="623" type="curve" smooth="yes"/>
      <point x="217" y="693"/>
      <point x="183" y="737"/>
    </contour>
    <contour>
      <point x="114" y="703" type="curve" smooth="yes"/>
      <point x="146" y="703"/>
      <point x="165" y="674"/>
      <point x="165" y="599" type="curve" smooth="yes"/>
      <point x="165" y="532"/>
      <point x="139" y="479"/>
      <point x="110" y="479" type="curve" smooth="yes"/>
      <point x="70" y="479"/>
      <point x="55" y="538"/>
      <point x="55" y="585" type="curve" smooth="yes"/>
      <point x="55" y="655"/>
      <point x="83" y="703"/>
    </contour>
  </outline>
</glyph>
<glyph name="threequarters" format="1">
  <advance width="703"/>
  <unicode hex="00BE"/>
  <outline>
    <contour>
      <point x="693" y="90" type="curve"/>
      <point x="699" y="102"/>
      <point x="702" y="116"/>
      <point x="703" y="130" type="curve"/>
      <point x="606" y="133"/>
      <point x="522" y="142"/>
      <point x="425" y="163" type="curve"/>
      <point x="423" y="138" type="line"/>
      <point x="501" y="244"/>
      <point x="556" y="354"/>
      <point x="599" y="468" type="curve"/>
      <point x="584" y="474"/>
      <point x="565" y="481"/>
      <point x="546" y="482" type="curve"/>
      <point x="503" y="349"/>
      <point x="463" y="267"/>
      <point x="380" y="151" type="curve"/>
      <point x="383" y="141"/>
      <point x="386" y="132"/>
      <point x="392" y="123" type="curve"/>
      <point x="498" y="105"/>
      <point x="596" y="94"/>
    </contour>
    <contour>
      <point x="589" y="-15" type="curve"/>
      <point x="590" y="80"/>
      <point x="598" y="196"/>
      <point x="620" y="267" type="curve"/>
      <point x="613" y="268"/>
      <point x="603" y="269"/>
      <point x="594" y="269" type="curve" smooth="yes"/>
      <point x="580" y="268"/>
      <point x="571" y="266"/>
      <point x="565" y="263" type="curve"/>
      <point x="552" y="202"/>
      <point x="545" y="129"/>
      <point x="545" y="51" type="curve" smooth="yes"/>
      <point x="545" y="30"/>
      <point x="546" y="9"/>
      <point x="547" y="-13" type="curve"/>
      <point x="551" y="-14"/>
      <point x="556" y="-15"/>
      <point x="564" y="-16" type="curve" smooth="yes"/>
      <point x="573" y="-16"/>
      <point x="581" y="-16"/>
    </contour>
    <component base="fraction" xOffset="167" yOffset="-3"/>
    <component base="threesuperior" xOffset="18" yOffset="51"/>
  </outline>
</glyph>
<glyph name="questiondown" format="1">
  <advance width="343"/>
  <unicode hex="00BF"/>
  <outline>
    <contour>
      <point x="196" y="197" type="line"/>
      <point x="85" y="167"/>
      <point x="30" y="79"/>
      <point x="30" y="-23" type="curve" smooth="yes"/>
      <point x="30" y="-136"/>
      <point x="87" y="-211"/>
      <point x="176" y="-211" type="curve" smooth="yes"/>
      <point x="284" y="-211"/>
      <point x="330" y="-127"/>
      <point x="338" y="7" type="curve"/>
      <point x="323" y="11"/>
      <point x="305" y="14"/>
      <point x="288" y="14" type="curve"/>
      <point x="288" y="-99"/>
      <point x="251" y="-167"/>
      <point x="182" y="-167" type="curve" smooth="yes"/>
      <point x="124" y="-167"/>
      <point x="85" y="-109"/>
      <point x="85" y="-19" type="curve" smooth="yes"/>
      <point x="85" y="74"/>
      <point x="130" y="141"/>
      <point x="226" y="164" type="curve"/>
    </contour>
    <contour>
      <point x="226" y="164" type="line"/>
      <point x="224" y="230"/>
      <point x="217" y="298"/>
      <point x="213" y="352" type="curve"/>
      <point x="201" y="353"/>
      <point x="188" y="353"/>
      <point x="176" y="352" type="curve"/>
      <point x="176" y="275"/>
      <point x="176" y="223"/>
      <point x="176" y="156" type="curve"/>
    </contour>
    <contour>
      <point x="159" y="550" type="curve"/>
      <point x="160" y="526"/>
      <point x="160" y="511"/>
      <point x="162" y="488" type="curve"/>
      <point x="180" y="486"/>
      <point x="195" y="486"/>
      <point x="216" y="488" type="curve"/>
      <point x="217" y="508"/>
      <point x="217" y="529"/>
      <point x="216" y="551" type="curve"/>
      <point x="207" y="552"/>
      <point x="199" y="553"/>
      <point x="190" y="553" type="curve" smooth="yes"/>
      <point x="180" y="553"/>
      <point x="170" y="552"/>
    </contour>
  </outline>
</glyph>
<glyph name="AE" format="1">
  <advance width="796.0"/>
  <unicode hex="00C6"/>
  <outline>
    <contour>
      <point x="367" y="689" type="curve"/>
      <point x="351" y="693"/>
      <point x="336" y="696"/>
      <point x="315" y="698" type="curve"/>
      <point x="244" y="422"/>
      <point x="174" y="240"/>
      <point x="27" y="5" type="curve"/>
      <point x="39" y="-7"/>
      <point x="52" y="-18"/>
      <point x="79" y="-25" type="curve"/>
      <point x="221" y="222"/>
      <point x="291" y="399"/>
    </contour>
    <contour>
      <point x="762" y="-18" type="curve"/>
      <point x="764" y="-6"/>
      <point x="764" y="15"/>
      <point x="760" y="32" type="curve"/>
      <point x="664" y="11"/>
      <point x="586" y="4"/>
      <point x="472" y="0" type="curve"/>
      <point x="452" y="127"/>
      <point x="439" y="245"/>
      <point x="431" y="330" type="curve" smooth="yes"/>
      <point x="418" y="473"/>
      <point x="415" y="578"/>
      <point x="417" y="683" type="curve"/>
      <point x="357" y="689" type="line"/>
      <point x="360" y="506"/>
      <point x="384" y="230"/>
      <point x="425" y="-45" type="curve"/>
      <point x="529" y="-42"/>
      <point x="622" y="-37"/>
    </contour>
    <contour>
      <point x="693" y="363" type="curve"/>
      <point x="694" y="380"/>
      <point x="692" y="395"/>
      <point x="689" y="408" type="curve"/>
      <point x="583" y="398"/>
      <point x="506" y="384"/>
      <point x="411" y="369" type="curve"/>
      <point x="413" y="326" type="line"/>
      <point x="509" y="344"/>
      <point x="568" y="353"/>
    </contour>
    <contour>
      <point x="736" y="684" type="curve"/>
      <point x="739" y="699"/>
      <point x="740" y="714"/>
      <point x="739" y="731" type="curve"/>
      <point x="581" y="727"/>
      <point x="483" y="711"/>
      <point x="357" y="689" type="curve"/>
      <point x="379" y="646" type="line"/>
      <point x="487" y="668"/>
      <point x="598" y="683"/>
    </contour>
    <contour>
      <point x="417" y="254" type="line"/>
      <point x="335" y="251"/>
      <point x="249" y="243"/>
      <point x="177" y="229" type="curve"/>
      <point x="179" y="186" type="line"/>
      <point x="248" y="200"/>
      <point x="336" y="208"/>
      <point x="427" y="209" type="curve"/>
    </contour>
  </outline>
</glyph>
<glyph name="Ccedilla" format="1">
  <advance width="513"/>
  <unicode hex="00C7"/>
  <outline>
    <contour>
      <point x="464" y="210" type="curve"/>
      <point x="445" y="218"/>
      <point x="434" y="220"/>
      <point x="414" y="220" type="curve"/>
      <point x="417" y="95"/>
      <point x="363" y="12"/>
      <point x="265" y="12" type="curve" smooth="yes"/>
      <point x="159" y="12"/>
      <point x="100" y="112"/>
      <point x="100" y="296" type="curve" smooth="yes"/>
      <point x="100" y="532"/>
      <point x="201" y="646"/>
      <point x="294" y="646" type="curve" smooth="yes"/>
      <point x="382" y="646"/>
      <point x="413" y="590"/>
      <point x="403" y="450" type="curve"/>
      <point x="422" y="449"/>
      <point x="448" y="453"/>
      <point x="462" y="464" type="curve"/>
      <point x="468" y="616"/>
      <point x="421" y="693"/>
      <point x="304" y="693" type="curve" smooth="yes"/>
      <point x="147" y="693"/>
      <point x="40" y="531"/>
      <point x="40" y="285" type="curve" smooth="yes"/>
      <point x="40" y="78"/>
      <point x="122" y="-35"/>
      <point x="262" y="-35" type="curve" smooth="yes"/>
      <point x="387" y="-35"/>
      <point x="456" y="50"/>
    </contour>
    <contour>
      <point x="262" y="-250" type="curve" smooth="yes"/>
      <point x="326" y="-250"/>
      <point x="370" y="-215"/>
      <point x="370" y="-157" type="curve" smooth="yes"/>
      <point x="370" y="-111"/>
      <point x="335" y="-80"/>
      <point x="284" y="-80" type="curve" smooth="yes"/>
      <point x="260" y="-80"/>
      <point x="237" y="-88"/>
      <point x="213" y="-103" type="curve"/>
      <point x="245" y="-112" type="line"/>
      <point x="269" y="-80"/>
      <point x="279" y="-53"/>
      <point x="282" y="-26" type="curve"/>
      <point x="235" y="-16" type="line"/>
      <point x="231" y="-47"/>
      <point x="220" y="-73"/>
      <point x="202" y="-100" type="curve"/>
      <point x="207" y="-108"/>
      <point x="220" y="-120"/>
      <point x="229" y="-127" type="curve"/>
      <point x="241" y="-121"/>
      <point x="252" y="-118"/>
      <point x="263" y="-118" type="curve" smooth="yes"/>
      <point x="292" y="-118"/>
      <point x="310" y="-137"/>
      <point x="310" y="-160" type="curve" smooth="yes"/>
      <point x="310" y="-189"/>
      <point x="290" y="-206"/>
      <point x="260" y="-206" type="curve" smooth="yes"/>
      <point x="233" y="-206"/>
      <point x="211" y="-185"/>
      <point x="201" y="-154" type="curve"/>
      <point x="182" y="-162"/>
      <point x="187" y="-160"/>
      <point x="161" y="-176" type="curve"/>
      <point x="179" y="-225"/>
      <point x="212" y="-250"/>
    </contour>
  </outline>
</glyph>
<glyph name="Eth" format="1">
  <advance width="550"/>
  <unicode hex="00D0"/>
  <outline>
    <contour>
      <point x="123" y="-12" type="curve"/>
      <point x="119" y="68"/>
      <point x="117" y="132"/>
      <point x="117" y="236" type="curve" smooth="yes"/>
      <point x="117" y="390"/>
      <point x="115" y="474"/>
      <point x="127" y="675" type="curve"/>
      <point x="125" y="676"/>
      <point x="66" y="679"/>
      <point x="63" y="678" type="curve"/>
      <point x="61" y="627"/>
      <point x="60" y="558"/>
      <point x="60" y="508" type="curve" smooth="yes"/>
      <point x="60" y="346"/>
      <point x="63" y="205"/>
      <point x="73" y="-5" type="curve"/>
      <point x="75" y="-5"/>
      <point x="122" y="-12"/>
    </contour>
    <contour>
      <point x="514" y="445" type="curve" smooth="yes"/>
      <point x="514" y="611"/>
      <point x="431" y="717"/>
      <point x="226" y="717" type="curve" smooth="yes"/>
      <point x="173" y="717"/>
      <point x="114" y="702"/>
      <point x="63" y="678" type="curve"/>
      <point x="64" y="677"/>
      <point x="84" y="636"/>
      <point x="85" y="634" type="curve"/>
      <point x="123" y="658"/>
      <point x="175" y="670"/>
      <point x="226" y="670" type="curve" smooth="yes"/>
      <point x="386" y="670"/>
      <point x="453" y="582"/>
      <point x="453" y="448" type="curve" smooth="yes"/>
      <point x="453" y="263"/>
      <point x="347" y="109"/>
      <point x="88" y="23" type="curve"/>
      <point x="123" y="-12" type="line"/>
      <point x="368" y="67"/>
      <point x="514" y="243"/>
    </contour>
    <contour>
      <point x="-33" y="400" type="curve"/>
      <point x="-35" y="388"/>
      <point x="-35" y="375"/>
      <point x="-35" y="355" type="curve"/>
      <point x="73" y="345"/>
      <point x="167" y="346"/>
      <point x="280" y="365" type="curve"/>
      <point x="282" y="381"/>
      <point x="283" y="397"/>
      <point x="282" y="410" type="curve"/>
      <point x="156.568965517" y="388.25862069"/>
      <point x="81.4102564103" y="387.564102564"/>
    </contour>
  </outline>
</glyph>
<glyph name="multiply" format="1">
  <advance width="341"/>
  <unicode hex="00D7"/>
  <outline>
    <contour>
      <point x="262" y="428" type="curve"/>
      <point x="185" y="368"/>
      <point x="120" y="292"/>
      <point x="62" y="218" type="curve"/>
      <point x="69" y="207"/>
      <point x="79" y="197"/>
      <point x="90" y="190" type="curve"/>
      <point x="173" y="287"/>
      <point x="223" y="345"/>
      <point x="291" y="398" type="curve"/>
      <point x="284" y="409"/>
      <point x="275" y="420"/>
    </contour>
    <contour>
      <point x="258" y="187" type="curve"/>
      <point x="269" y="194"/>
      <point x="279" y="201"/>
      <point x="291" y="213" type="curve"/>
      <point x="229" y="292"/>
      <point x="157" y="366"/>
      <point x="81" y="425" type="curve"/>
      <point x="70" y="418"/>
      <point x="59" y="409"/>
      <point x="50" y="400" type="curve"/>
      <point x="150" y="315"/>
      <point x="203" y="257"/>
    </contour>
  </outline>
</glyph>
<glyph name="Oslash" format="1">
  <advance width="575"/>
  <unicode hex="00D8"/>
  <outline>
    <contour>
      <point x="57" y="-49" type="curve"/>
      <point x="69" y="-59"/>
      <point x="81" y="-67"/>
      <point x="103" y="-74" type="curve"/>
      <point x="250" y="201"/>
      <point x="378" y="458"/>
      <point x="514" y="769" type="curve"/>
      <point x="499" y="781"/>
      <point x="488" y="788"/>
      <point x="474" y="794" type="curve"/>
      <point x="316" y="446"/>
      <point x="197" y="182"/>
    </contour>
    <contour>
      <point x="533" y="388" type="curve" smooth="yes"/>
      <point x="533" y="612"/>
      <point x="457" y="733"/>
      <point x="311" y="733" type="curve" smooth="yes"/>
      <point x="150" y="733"/>
      <point x="40" y="565"/>
      <point x="40" y="342" type="curve" smooth="yes"/>
      <point x="40" y="133"/>
      <point x="131" y="-20"/>
      <point x="266" y="-20" type="curve" smooth="yes"/>
      <point x="464" y="-20"/>
      <point x="533" y="219"/>
    </contour>
    <contour>
      <point x="268" y="27" type="curve" smooth="yes"/>
      <point x="148" y="27"/>
      <point x="101" y="204"/>
      <point x="101" y="351" type="curve" smooth="yes"/>
      <point x="101" y="551"/>
      <point x="189" y="685"/>
      <point x="304" y="685" type="curve" smooth="yes"/>
      <point x="413" y="685"/>
      <point x="473" y="599"/>
      <point x="473" y="377" type="curve" smooth="yes"/>
      <point x="473" y="208"/>
      <point x="412" y="27"/>
    </contour>
  </outline>
</glyph>
<glyph name="Thorn" format="1">
  <advance width="520"/>
  <unicode hex="00DE"/>
  <outline>
    <contour>
      <point x="134" y="-68" type="curve"/>
      <point x="121" y="101"/>
      <point x="115" y="207"/>
      <point x="115" y="357" type="curve" smooth="yes"/>
      <point x="115" y="460"/>
      <point x="118" y="563"/>
      <point x="133" y="709" type="curve"/>
      <point x="68" y="721" type="line"/>
      <point x="64" y="672"/>
      <point x="61" y="586"/>
      <point x="61" y="538" type="curve" smooth="yes"/>
      <point x="61" y="340"/>
      <point x="61" y="222"/>
      <point x="84" y="-67" type="curve"/>
      <point x="85" y="-67"/>
      <point x="132" y="-68"/>
    </contour>
    <contour>
      <point x="494" y="412" type="curve" smooth="yes"/>
      <point x="494" y="525"/>
      <point x="413" y="607"/>
      <point x="239" y="607" type="curve" smooth="yes"/>
      <point x="182" y="607"/>
      <point x="131" y="599"/>
      <point x="73" y="586" type="curve"/>
      <point x="73" y="584"/>
      <point x="94" y="538"/>
      <point x="95" y="536" type="curve"/>
      <point x="145" y="553"/>
      <point x="190" y="563"/>
      <point x="244" y="563" type="curve" smooth="yes"/>
      <point x="372" y="563"/>
      <point x="434" y="505"/>
      <point x="434" y="407" type="curve" smooth="yes"/>
      <point x="434" y="282"/>
      <point x="307" y="198"/>
      <point x="104" y="146" type="curve"/>
      <point x="113" y="100" type="line"/>
      <point x="358" y="173"/>
      <point x="494" y="265"/>
    </contour>
  </outline>
</glyph>
<glyph name="germandbls" format="1">
  <advance width="537"/>
  <unicode hex="00DF"/>
  <outline>
    <contour>
      <point x="112" y="388" type="line"/>
      <point x="73" y="393"/>
      <point x="42" y="400"/>
      <point x="26" y="407" type="curve"/>
      <point x="26" y="416"/>
      <point x="27" y="437"/>
      <point x="32" y="442" type="curve"/>
      <point x="58" y="438"/>
      <point x="84" y="435"/>
      <point x="112" y="432" type="curve"/>
    </contour>
    <contour>
      <point x="296" y="397" type="curve" smooth="yes"/>
      <point x="296" y="265"/>
      <point x="514" y="276"/>
      <point x="514" y="115" type="curve" smooth="yes"/>
      <point x="514" y="27"/>
      <point x="462" y="-40"/>
      <point x="378" y="-40" type="curve" smooth="yes"/>
      <point x="291" y="-40"/>
      <point x="226" y="31"/>
      <point x="226" y="149" type="curve"/>
      <point x="241" y="153"/>
      <point x="257" y="156"/>
      <point x="278" y="155" type="curve"/>
      <point x="275" y="60"/>
      <point x="313" y="4"/>
      <point x="380" y="4" type="curve" smooth="yes"/>
      <point x="433" y="4"/>
      <point x="459" y="45"/>
      <point x="459" y="104" type="curve" smooth="yes"/>
      <point x="459" y="242"/>
      <point x="245" y="238"/>
      <point x="245" y="379" type="curve" smooth="yes"/>
      <point x="245" y="426"/>
      <point x="261" y="459"/>
      <point x="298" y="498" type="curve" smooth="yes"/>
      <point x="328" y="530"/>
      <point x="339" y="551"/>
      <point x="339" y="599" type="curve" smooth="yes"/>
      <point x="339" y="645"/>
      <point x="313" y="682"/>
      <point x="264" y="682" type="curve" smooth="yes"/>
      <point x="204" y="682"/>
      <point x="139" y="634"/>
      <point x="139" y="448" type="curve" smooth="yes"/>
      <point x="139" y="274"/>
      <point x="153" y="117"/>
      <point x="183" y="-9" type="curve"/>
      <point x="166" y="-15"/>
      <point x="146" y="-21"/>
      <point x="127" y="-21" type="curve"/>
      <point x="114" y="38"/>
      <point x="88" y="236"/>
      <point x="88" y="402" type="curve" smooth="yes"/>
      <point x="88" y="648"/>
      <point x="163" y="727"/>
      <point x="264" y="727" type="curve" smooth="yes"/>
      <point x="348" y="727"/>
      <point x="390" y="664"/>
      <point x="390" y="592" type="curve" smooth="yes"/>
      <point x="390" y="551"/>
      <point x="372" y="522"/>
      <point x="339" y="490" type="curve" smooth="yes"/>
      <point x="308" y="459"/>
      <point x="296" y="434"/>
    </contour>
  </outline>
</glyph>
<glyph name="ae" format="1">
  <advance width="698"/>
  <unicode hex="00E6"/>
  <outline>
    <contour>
      <point x="233" y="533" type="curve" smooth="yes"/>
      <point x="142" y="533"/>
      <point x="65" y="457"/>
      <point x="51" y="369" type="curve"/>
      <point x="62" y="354"/>
      <point x="79" y="346"/>
      <point x="106" y="340" type="curve"/>
      <point x="109" y="425"/>
      <point x="158" y="488"/>
      <point x="224" y="488" type="curve" smooth="yes"/>
      <point x="284" y="488"/>
      <point x="315" y="454"/>
      <point x="315" y="341" type="curve" smooth="yes"/>
      <point x="315" y="318"/>
      <point x="316" y="285"/>
      <point x="313" y="233" type="curve"/>
      <point x="329" y="227"/>
      <point x="343" y="187"/>
      <point x="358" y="187" type="curve"/>
      <point x="374" y="338" type="line"/>
      <point x="374" y="421"/>
      <point x="343" y="533"/>
    </contour>
    <contour>
      <point x="357" y="274" type="line"/>
      <point x="408" y="253"/>
      <point x="463" y="243"/>
      <point x="512" y="243" type="curve" smooth="yes"/>
      <point x="554" y="243"/>
      <point x="591" y="246"/>
      <point x="619" y="255" type="curve"/>
      <point x="631" y="285"/>
      <point x="644" y="332"/>
      <point x="644" y="388" type="curve" smooth="yes"/>
      <point x="644" y="467"/>
      <point x="603" y="524"/>
      <point x="526" y="524" type="curve" smooth="yes"/>
      <point x="396" y="524"/>
      <point x="313" y="335"/>
      <point x="313" y="225" type="curve" smooth="yes"/>
      <point x="313" y="96"/>
      <point x="367" y="-10"/>
      <point x="478" y="-10" type="curve" smooth="yes"/>
      <point x="558" y="-10"/>
      <point x="644" y="69"/>
      <point x="667" y="141" type="curve"/>
      <point x="655" y="154"/>
      <point x="637" y="164"/>
      <point x="621" y="167" type="curve"/>
      <point x="600" y="92"/>
      <point x="534" y="35"/>
      <point x="477" y="35" type="curve" smooth="yes"/>
      <point x="405" y="35"/>
      <point x="368" y="121"/>
      <point x="368" y="221" type="curve" smooth="yes"/>
      <point x="368" y="337"/>
      <point x="432" y="478"/>
      <point x="521" y="478" type="curve" smooth="yes"/>
      <point x="575" y="478"/>
      <point x="589" y="445"/>
      <point x="589" y="389" type="curve" smooth="yes"/>
      <point x="589" y="354"/>
      <point x="581" y="316"/>
      <point x="574" y="289" type="curve"/>
      <point x="565" y="286"/>
      <point x="543" y="284"/>
      <point x="529" y="284" type="curve" smooth="yes"/>
      <point x="488" y="284"/>
      <point x="417" y="287"/>
      <point x="355" y="320" type="curve"/>
    </contour>
    <contour>
      <point x="322" y="266" type="line"/>
      <point x="297" y="268"/>
      <point x="275" y="269"/>
      <point x="243" y="269" type="curve" smooth="yes"/>
      <point x="91" y="269"/>
      <point x="28" y="211"/>
      <point x="28" y="133" type="curve" smooth="yes"/>
      <point x="28" y="60"/>
      <point x="77" y="8"/>
      <point x="165" y="8" type="curve" smooth="yes"/>
      <point x="243" y="8"/>
      <point x="304" y="41"/>
      <point x="351" y="111" type="curve"/>
      <point x="344" y="146" type="line"/>
      <point x="299" y="82"/>
      <point x="237" y="52"/>
      <point x="170" y="52" type="curve" smooth="yes"/>
      <point x="115" y="52"/>
      <point x="86" y="85"/>
      <point x="86" y="133" type="curve" smooth="yes"/>
      <point x="86" y="192"/>
      <point x="136" y="248"/>
      <point x="321" y="231" type="curve"/>
    </contour>
  </outline>
</glyph>
<glyph name="ccedilla" format="1">
  <advance width="402"/>
  <unicode hex="00E7"/>
  <outline>
    <contour>
      <point x="312" y="357" type="curve"/>
      <point x="335" y="357"/>
      <point x="354" y="362"/>
      <point x="371" y="370" type="curve"/>
      <point x="371" y="468"/>
      <point x="327" y="543"/>
      <point x="231" y="543" type="curve" smooth="yes"/>
      <point x="116" y="543"/>
      <point x="33" y="398"/>
      <point x="33" y="200" type="curve" smooth="yes"/>
      <point x="33" y="81"/>
      <point x="73" y="-24"/>
      <point x="192" y="-24" type="curve" smooth="yes"/>
      <point x="275" y="-24"/>
      <point x="349" y="45"/>
      <point x="369" y="122" type="curve"/>
      <point x="359" y="134"/>
      <point x="347" y="142"/>
      <point x="331" y="148" type="curve"/>
      <point x="301" y="72"/>
      <point x="257" y="21"/>
      <point x="200" y="21" type="curve" smooth="yes"/>
      <point x="120" y="21"/>
      <point x="87" y="105"/>
      <point x="87" y="205" type="curve" smooth="yes"/>
      <point x="87" y="348"/>
      <point x="148" y="498"/>
      <point x="233" y="498" type="curve" smooth="yes"/>
      <point x="291" y="498"/>
      <point x="312" y="440"/>
    </contour>
    <contour>
      <point x="197" y="-228" type="curve" smooth="yes"/>
      <point x="261" y="-228"/>
      <point x="305" y="-193"/>
      <point x="305" y="-135" type="curve" smooth="yes"/>
      <point x="305" y="-89"/>
      <point x="270" y="-58"/>
      <point x="219" y="-58" type="curve" smooth="yes"/>
      <point x="195" y="-58"/>
      <point x="172" y="-66"/>
      <point x="148" y="-81" type="curve"/>
      <point x="180" y="-90" type="line"/>
      <point x="204" y="-58"/>
      <point x="214" y="-31"/>
      <point x="217" y="-4" type="curve"/>
      <point x="170" y="6" type="line"/>
      <point x="166" y="-25"/>
      <point x="155" y="-51"/>
      <point x="137" y="-78" type="curve"/>
      <point x="142" y="-86"/>
      <point x="155" y="-98"/>
      <point x="164" y="-105" type="curve"/>
      <point x="176" y="-99"/>
      <point x="187" y="-96"/>
      <point x="198" y="-96" type="curve" smooth="yes"/>
      <point x="227" y="-96"/>
      <point x="245" y="-115"/>
      <point x="245" y="-138" type="curve" smooth="yes"/>
      <point x="245" y="-167"/>
      <point x="225" y="-184"/>
      <point x="195" y="-184" type="curve" smooth="yes"/>
      <point x="168" y="-184"/>
      <point x="146" y="-163"/>
      <point x="136" y="-132" type="curve"/>
      <point x="117" y="-140"/>
      <point x="122" y="-138"/>
      <point x="96" y="-154" type="curve"/>
      <point x="114" y="-203"/>
      <point x="147" y="-228"/>
    </contour>
  </outline>
</glyph>
<glyph name="eth" format="1">
  <advance width="437"/>
  <unicode hex="00F0"/>
  <outline>
    <contour>
      <point x="335" y="457" type="curve"/>
      <point x="343" y="498" type="line"/>
      <point x="331" y="506"/>
      <point x="283" y="518"/>
      <point x="243" y="518" type="curve" smooth="yes"/>
      <point x="114" y="518"/>
      <point x="34" y="406"/>
      <point x="34" y="236" type="curve" smooth="yes"/>
      <point x="34" y="88"/>
      <point x="92" y="-30"/>
      <point x="198" y="-30" type="curve" smooth="yes"/>
      <point x="278" y="-30"/>
      <point x="337" y="34"/>
      <point x="349" y="257" type="curve"/>
      <point x="324" y="281" type="line"/>
      <point x="317" y="69"/>
      <point x="255" y="14"/>
      <point x="200" y="14" type="curve" smooth="yes"/>
      <point x="135" y="14"/>
      <point x="89" y="90"/>
      <point x="89" y="245" type="curve" smooth="yes"/>
      <point x="89" y="409"/>
      <point x="171" y="474"/>
      <point x="251" y="474" type="curve" smooth="yes"/>
      <point x="294" y="474"/>
      <point x="317" y="467"/>
    </contour>
    <contour>
      <point x="313" y="476"/>
      <point x="321" y="128"/>
      <point x="331" y="-42" type="curve"/>
      <point x="344" y="-42"/>
      <point x="361" y="-39"/>
      <point x="371" y="-36" type="curve"/>
      <point x="369" y="15"/>
      <point x="368" y="53"/>
      <point x="368" y="127" type="curve" smooth="yes"/>
      <point x="368" y="307"/>
      <point x="366" y="588"/>
      <point x="376" y="723" type="curve"/>
      <point x="365" y="726"/>
      <point x="355" y="727"/>
      <point x="346" y="727" type="curve" smooth="yes"/>
      <point x="334" y="727"/>
      <point x="321" y="723"/>
      <point x="313" y="719" type="curve"/>
    </contour>
    <contour>
      <point x="166" y="618"/>
      <point x="166" y="605"/>
      <point x="166" y="585" type="curve"/>
      <point x="274" y="575"/>
      <point x="368" y="576"/>
      <point x="481" y="595" type="curve"/>
      <point x="483" y="611"/>
      <point x="484" y="627"/>
      <point x="483" y="640" type="curve"/>
      <point x="358" y="618"/>
      <point x="282" y="618"/>
      <point x="168" y="630" type="curve"/>
    </contour>
  </outline>
</glyph>
<glyph name="divide" format="1">
  <advance width="341"/>
  <unicode hex="00F7"/>
  <outline>
    <contour>
      <point x="32" y="342" type="curve"/>
      <point x="29" y="329"/>
      <point x="27" y="317"/>
      <point x="27" y="300" type="curve"/>
      <point x="122" y="289"/>
      <point x="219" y="289"/>
      <point x="310" y="300" type="curve"/>
      <point x="313" y="313"/>
      <point x="314" y="327"/>
      <point x="314" y="340" type="curve"/>
      <point x="190" y="330"/>
      <point x="115" y="332"/>
    </contour>
    <contour>
      <point x="219" y="392" type="curve"/>
      <point x="223" y="416"/>
      <point x="224" y="436"/>
      <point x="225" y="460" type="curve"/>
      <point x="192" y="465"/>
      <point x="165" y="461"/>
      <point x="146" y="457" type="curve"/>
      <point x="146" y="433"/>
      <point x="148" y="418"/>
      <point x="149" y="392" type="curve"/>
      <point x="172" y="389"/>
      <point x="192" y="389"/>
    </contour>
    <contour>
      <point x="217" y="172" type="curve"/>
      <point x="221" y="196"/>
      <point x="222" y="216"/>
      <point x="223" y="240" type="curve"/>
      <point x="190" y="245"/>
      <point x="163" y="241"/>
      <point x="144" y="237" type="curve"/>
      <point x="144" y="213"/>
      <point x="146" y="198"/>
      <point x="147" y="172" type="curve"/>
      <point x="170" y="169"/>
      <point x="190" y="169"/>
    </contour>
  </outline>
</glyph>
<glyph name="oslash" format="1">
  <advance width="425"/>
  <unicode hex="00F8"/>
  <outline>
    <contour>
      <point x="232" y="533" type="curve" smooth="yes"/>
      <point x="117" y="533"/>
      <point x="33" y="418"/>
      <point x="33" y="244" type="curve" smooth="yes"/>
      <point x="33" y="105"/>
      <point x="93" y="-10"/>
      <point x="202" y="-10" type="curve" smooth="yes"/>
      <point x="319" y="-10"/>
      <point x="392" y="128"/>
      <point x="392" y="317" type="curve" smooth="yes"/>
      <point x="392" y="446"/>
      <point x="333" y="533"/>
    </contour>
    <contour>
      <point x="219" y="488" type="curve" smooth="yes"/>
      <point x="291" y="488"/>
      <point x="333" y="429"/>
      <point x="333" y="277" type="curve" smooth="yes"/>
      <point x="333" y="132"/>
      <point x="270" y="35"/>
      <point x="210" y="35" type="curve" smooth="yes"/>
      <point x="122" y="35"/>
      <point x="88" y="156"/>
      <point x="88" y="251" type="curve" smooth="yes"/>
      <point x="88" y="390"/>
      <point x="153" y="488"/>
    </contour>
    <contour>
      <point x="76" y="-68" type="curve"/>
      <point x="187.379106084" y="139.570152247"/>
      <point x="279" y="337"/>
      <point x="374" y="575" type="curve"/>
      <point x="359" y="587"/>
      <point x="348" y="594"/>
      <point x="334" y="600" type="curve"/>
      <point x="221" y="335"/>
      <point x="135.306534562" y="157.4874408"/>
      <point x="30" y="-43" type="curve"/>
      <point x="42" y="-53"/>
      <point x="54" y="-61"/>
    </contour>
  </outline>
</glyph>
<glyph name="thorn" format="1">
  <advance width="424"/>
  <unicode hex="00FE"/>
  <outline>
    <contour>
      <point x="88" y="112" type="curve"/>
      <point x="79" y="46" type="line"/>
      <point x="100" y="25"/>
      <point x="124" y="10"/>
      <point x="169" y="10" type="curve" smooth="yes"/>
      <point x="282" y="10"/>
      <point x="384" y="152"/>
      <point x="384" y="355" type="curve" smooth="yes"/>
      <point x="384" y="476"/>
      <point x="334" y="553"/>
      <point x="260" y="553" type="curve" smooth="yes"/>
      <point x="169" y="553"/>
      <point x="100" y="463"/>
      <point x="76" y="322" type="curve"/>
      <point x="98" y="303" type="line"/>
      <point x="127" y="447"/>
      <point x="183" y="497"/>
      <point x="240" y="497" type="curve" smooth="yes"/>
      <point x="289" y="497"/>
      <point x="325" y="447"/>
      <point x="325" y="352" type="curve" smooth="yes"/>
      <point x="325" y="169"/>
      <point x="246" y="53"/>
      <point x="169" y="53" type="curve" smooth="yes"/>
      <point x="134" y="53"/>
      <point x="109" y="73"/>
    </contour>
    <contour>
      <point x="92" y="-218" type="curve"/>
      <point x="109" y="-218"/>
      <point x="126" y="-215"/>
      <point x="142" y="-210" type="curve"/>
      <point x="101" y="41"/>
      <point x="80" y="514"/>
      <point x="143" y="745" type="curve"/>
      <point x="136" y="747"/>
      <point x="131" y="748"/>
      <point x="120" y="748" type="curve" smooth="yes"/>
      <point x="104" y="748"/>
      <point x="91" y="745"/>
      <point x="77" y="737" type="curve"/>
      <point x="25" y="463"/>
      <point x="61" y="14"/>
    </contour>
  </outline>
</glyph>
<glyph name="Aogonek" format="1">
  <advance width="589"/>
  <unicode hex="0104"/>
  <outline>
    <contour>
      <point x="574" y="-85" type="curve"/>
      <point x="523" y="266"/>
      <point x="458" y="453"/>
      <point x="335" y="698" type="curve"/>
      <point x="315" y="702"/>
      <point x="298" y="703"/>
      <point x="272" y="705" type="curve"/>
      <point x="214" y="439"/>
      <point x="157" y="254"/>
      <point x="17" y="8" type="curve"/>
      <point x="30" y="-3"/>
      <point x="43" y="-14"/>
      <point x="69" y="-20" type="curve"/>
      <point x="200" y="232"/>
      <point x="258" y="410"/>
      <point x="313" y="669" type="curve"/>
      <point x="284" y="678" type="line"/>
      <point x="401" y="454"/>
      <point x="461" y="277"/>
      <point x="518" y="-103" type="curve"/>
      <point x="540" y="-99"/>
      <point x="555" y="-95"/>
    </contour>
    <contour>
      <point x="481" y="233" type="curve"/>
      <point x="474" y="280" type="line"/>
      <point x="369" y="280"/>
      <point x="247" y="272"/>
      <point x="149" y="253" type="curve"/>
      <point x="151" y="210" type="line"/>
      <point x="241" y="228"/>
      <point x="361" y="236"/>
    </contour>
    <contour>
      <point x="574" y="-85" type="curve"/>
      <point x="546" y="-77" type="line"/>
      <point x="484" y="-120"/>
      <point x="452" y="-165"/>
      <point x="452" y="-215" type="curve" smooth="yes"/>
      <point x="452" y="-259"/>
      <point x="482" y="-289"/>
      <point x="529" y="-289" type="curve" smooth="yes"/>
      <point x="574" y="-289"/>
      <point x="602" y="-268"/>
      <point x="625" y="-232" type="curve"/>
      <point x="619" y="-215"/>
      <point x="613" y="-205"/>
      <point x="602" y="-196" type="curve"/>
      <point x="585" y="-228"/>
      <point x="567" y="-241"/>
      <point x="543" y="-241" type="curve" smooth="yes"/>
      <point x="519" y="-241"/>
      <point x="507" y="-226"/>
      <point x="507" y="-202" type="curve" smooth="yes"/>
      <point x="507" y="-166"/>
      <point x="524" y="-132"/>
    </contour>
  </outline>
</glyph>
<glyph name="aogonek" format="1">
  <advance width="422"/>
  <unicode hex="0105"/>
  <outline>
    <contour>
      <point x="308" y="-34" type="curve"/>
      <point x="293" y="-34"/>
      <point x="275" y="-30"/>
      <point x="259" y="-24" type="curve"/>
      <point x="301" y="145"/>
      <point x="310" y="201"/>
      <point x="310" y="341" type="curve" smooth="yes"/>
      <point x="310" y="454"/>
      <point x="279" y="488"/>
      <point x="219" y="488" type="curve" smooth="yes"/>
      <point x="153" y="488"/>
      <point x="104" y="425"/>
      <point x="101" y="340" type="curve"/>
      <point x="74" y="346"/>
      <point x="57" y="354"/>
      <point x="46" y="369" type="curve"/>
      <point x="60" y="457"/>
      <point x="137" y="533"/>
      <point x="228" y="533" type="curve" smooth="yes"/>
      <point x="342" y="533"/>
      <point x="369" y="436"/>
      <point x="369" y="338" type="curve" smooth="yes"/>
      <point x="369" y="241"/>
      <point x="338" y="72"/>
    </contour>
    <contour>
      <point x="316" y="231" type="line"/>
      <point x="123" y="246"/>
      <point x="81" y="192"/>
      <point x="81" y="138" type="curve" smooth="yes"/>
      <point x="81" y="85"/>
      <point x="120" y="52"/>
      <point x="175" y="52" type="curve" smooth="yes"/>
      <point x="225" y="52"/>
      <point x="271" y="71"/>
      <point x="304" y="106" type="curve"/>
      <point x="299" y="67" type="line"/>
      <point x="274" y="33"/>
      <point x="227" y="8"/>
      <point x="170" y="8" type="curve" smooth="yes"/>
      <point x="82" y="8"/>
      <point x="23" y="60"/>
      <point x="23" y="138" type="curve" smooth="yes"/>
      <point x="23" y="218"/>
      <point x="89" y="269"/>
      <point x="238" y="269" type="curve" smooth="yes"/>
      <point x="270" y="269"/>
      <point x="292" y="268"/>
      <point x="317" y="266" type="curve"/>
    </contour>
    <contour>
      <point x="295" y="-26" type="line"/>
      <point x="245" y="-73"/>
      <point x="228" y="-107"/>
      <point x="228" y="-143" type="curve" smooth="yes"/>
      <point x="228" y="-167"/>
      <point x="240" y="-182"/>
      <point x="264" y="-182" type="curve" smooth="yes"/>
      <point x="288" y="-182"/>
      <point x="306" y="-169"/>
      <point x="323" y="-137" type="curve"/>
      <point x="334" y="-146"/>
      <point x="340" y="-156"/>
      <point x="346" y="-173" type="curve"/>
      <point x="323" y="-209"/>
      <point x="295" y="-230"/>
      <point x="250" y="-230" type="curve" smooth="yes"/>
      <point x="203" y="-230"/>
      <point x="173" y="-200"/>
      <point x="173" y="-156" type="curve" smooth="yes"/>
      <point x="173" y="-106"/>
      <point x="205" y="-61"/>
      <point x="267" y="-18" type="curve"/>
    </contour>
  </outline>
</glyph>
<glyph name="dcaron" format="1">
  <advance width="428"/>
  <unicode hex="010F"/>
  <outline>
    <contour>
      <point x="452" y="470" type="curve"/>
      <point x="488" y="539"/>
      <point x="502" y="604"/>
      <point x="510" y="679" type="curve"/>
      <point x="494" y="683"/>
      <point x="467" y="684"/>
      <point x="448" y="682" type="curve"/>
      <point x="445" y="606"/>
      <point x="433" y="540"/>
      <point x="411" y="477" type="curve"/>
      <point x="425" y="473"/>
      <point x="437" y="471"/>
    </contour>
    <component base="d" xOffset="1"/>
  </outline>
</glyph>
